<?xml version="1.0" standalone="no"?>
<!DOCTYPE svg PUBLIC "-//W3C//DTD SVG 1.1//EN" "http://www.w3.org/Graphics/SVG/1.1/DTD/svg11.dtd" >
<svg xmlns="http://www.w3.org/2000/svg">
<metadata>
Created by FontPrep 20130207 at Wed Apr  9 12:21:59 2014
 By Rich Hyun
Copyright (c) 1990, 2002 Adobe Systems Incorporated. All Rights Reserved.  (c) Copyright 1989, 1990, 2002 The Monotype Corporation Plc. All Rights Reserved.
</metadata>
<defs>
<font id="9d80a877711fd1aaa53360958f9f424a" horiz-adv-x='1024' >
  <font-face 
    font-family="RockwellStd-Bold"
    font-weight="700"
    font-stretch="normal"
    units-per-em="2048"
    panose-1="2 6 8 3 3 4 5 2 1 3"
    ascent="1391"
    descent="-657"
    x-height="969"
    cap-height="1391"
    bbox="-252 -459 2331 1901.02"
    underline-thickness="102"
    underline-position="-102"
    unicode-range="U+0020-FB02"
  />
<missing-glyph horiz-adv-x="1024" 
d="M102 1239v-1044l349 522zM164 102h696l-348 523zM573 717l349 -522v1044zM512 809l348 522h-696zM0 0v1434h1024v-1434h-1024z" />
    <glyph glyph-name="f_i" unicode="fi" horiz-adv-x="1280" 
d="M526 745v-522h95v-223h-558v223h150v522h-150v224h150v82q0 160 125 262t334 102q260 0 363 -119q44 -51 67 -129l-305 -32q-29 78 -135 77q-63 0 -100 -30q-36 -31 -36 -109v-104h572v-746h149v-223h-555v223h92v522h-258z" />
    <glyph glyph-name="f_l" unicode="fl" horiz-adv-x="1280" 
d="M1098 1391v-1168h149v-223h-555v223h92v903q-6 43 -43 65q-37 21 -90 21t-89 -30t-36 -109v-104h140v-224h-140v-522h95v-223h-558v223h150v522h-150v224h150v82q0 149 118 257t351 107q106 1 174 -24h242z" />
    <glyph glyph-name=".notdef" horiz-adv-x="1024" 
d="M102 1239v-1044l349 522zM164 102h696l-348 523zM573 717l349 -522v1044zM512 809l348 522h-696zM0 0v1434h1024v-1434h-1024z" />
    <glyph glyph-name=".null" horiz-adv-x="0" 
 />
    <glyph glyph-name="nonmarkingreturn" horiz-adv-x="681" 
 />
    <glyph glyph-name="space" unicode=" " horiz-adv-x="512" 
 />
    <glyph glyph-name="exclam" unicode="!" 
d="M195 0v336h335v-336h-335zM207 1391h311v-381l-82 -525h-147l-82 525v381z" />
    <glyph glyph-name="quotedbl" unicode="&#x22;" horiz-adv-x="1130" 
d="M211 1391h221v-336l-29 -367h-163l-29 367v336zM698 1391h222v-336l-29 -367h-164l-29 367v336z" />
    <glyph glyph-name="numbersign" unicode="#" horiz-adv-x="1368" 
d="M555 829l-55 -266h309l55 266h-309zM72 1053h299l78 374h233l-78 -374h305l76 374h236l-78 -374h151v-224h-196l-58 -266h254v-223h-299l-80 -367h-233l80 367h-311l-78 -367h-234l78 367h-145v223h194l56 266h-250v224z" />
    <glyph glyph-name="dollar" unicode="$" horiz-adv-x="1153" 
d="M362 1038q0 -46 24 -76t89 -71v264q-113 -20 -113 -117zM616 174q88 0 143 47q54 47 54 117q0 131 -197 207v-371zM616 -197h-141v174q-184 29 -279 126t-102 286h246q-6 -67 31 -133t104 -74v424q-195 92 -277 184t-81 227q0 134 99 230t259 111v88h141v-88
q180 -14 280 -114t101 -255h-245q-20 152 -136 166v-332q223 -88 332 -187q109 -98 109 -270t-122 -278t-319 -111v-174z" />
    <glyph glyph-name="percent" unicode="%" horiz-adv-x="1898" 
d="M358 0l1006 1391h180l-1007 -1391h-179zM498 1044q0 124 -20 174t-70 50q-82 0 -82 -205q0 -125 19 -176t69 -51q84 -1 84 208zM412 1415q156 0 240 -94t85 -269q0 -176 -85 -270q-84 -94 -240 -94t-241 94t-85 270t85 269q85 94 241 94zM1569 322q-1 123 -21 173t-69 50
q-82 0 -82 -205q0 -125 19 -176t69 -51q84 0 84 209zM1483 692q157 0 241 -94t84 -269t-85 -269t-241 -95q-156 0 -240 94q-85 93 -85 269t85 270t241 94z" />
    <glyph glyph-name="ampersand" unicode="&#x26;" horiz-adv-x="1642" 
d="M856 1128q0 41 -34 71t-81 30t-79 -26q-32 -27 -33 -63q0 -36 92 -151q135 57 135 139zM393 446q0 -88 69 -149t176 -61t228 112l-264 332q-209 -84 -209 -234zM1559 223v-223h-412l-125 154q-197 -178 -451 -179q-213 0 -354 122t-141 306q0 272 385 449
q-111 131 -111 262t104 215t272 84q167 0 271 -80t105 -205q0 -193 -242 -315l199 -252q115 160 168 289h332v-223h-168q-70 -152 -164 -260l108 -144h224z" />
    <glyph glyph-name="quotesingle" unicode="'" horiz-adv-x="575" 
d="M178 1391h221v-336l-28 -367h-164l-29 367v336z" />
    <glyph glyph-name="parenleft" unicode="(" horiz-adv-x="704" 
d="M412 487q0 -309 49 -479t186 -244v-200q-253 104 -403 334t-150 589t151 589t402 335v-201q-137 -74 -186 -244t-49 -479z" />
    <glyph glyph-name="parenright" unicode=")" horiz-adv-x="704" 
d="M293 487q0 309 -49 479t-187 244v201q252 -103 403 -333q150 -230 150 -590t-150 -590q-150 -229 -403 -334v200q137 74 187 244q49 170 49 479z" />
    <glyph glyph-name="asterisk" unicode="*" horiz-adv-x="1173" 
d="M463 1391h248v-170q-51 -78 -74 -267q96 47 138 77t73 75l166 49l82 -227l-170 -66q-70 23 -111 21t-147 -21q109 -129 204 -164l99 -139l-201 -141l-102 141q0 106 -82 240q-82 -133 -80 -240l-103 -141l-200 141l98 139q57 20 96 52t109 112q-119 23 -162 22t-96 -22
l-170 66l82 227l166 -49q30 -45 72 -75t137 -77q-10 164 -72 267v170z" />
    <glyph glyph-name="plus" unicode="+" horiz-adv-x="1368" 
d="M813 821h434v-260h-434v-434h-260v434h-434v260h434v434h260v-434z" />
    <glyph glyph-name="comma" unicode="," 
d="M195 336h335v-336q0 -190 -77 -279q-78 -88 -256 -88v152q88 10 127 60t38 155h-167v336z" />
    <glyph glyph-name="hyphen" unicode="-" horiz-adv-x="704" 
d="M72 348v270h559v-270h-559z" />
    <glyph glyph-name="period" unicode="." 
d="M195 336h335v-336h-335v336z" />
    <glyph glyph-name="slash" unicode="/" horiz-adv-x="1040" 
d="M748 1391h284l-737 -1416h-287z" />
    <glyph glyph-name="zero" unicode="0" horiz-adv-x="1130" 
d="M566 207q83 1 121 113t38 382t-40 379t-122 109t-120 -119q-37 -119 -37 -374t38 -373t122 -117zM88 698q0 348 123 532t354 185q231 0 355 -184q124 -185 122 -533q0 -348 -122 -532t-354 -184t-355 184t-123 532z" />
    <glyph glyph-name="one" unicode="1" horiz-adv-x="1130" 
d="M233 0v223h193v944h-205v224h510v-1168h182v-223h-680z" />
    <glyph glyph-name="two" unicode="2" horiz-adv-x="1130" 
d="M991 403v-403h-901v74q0 158 60 286t143 214q84 85 169 159q202 176 204 318q0 63 -38 105t-96 42q-86 0 -122 -69t-45 -224l-256 13q-7 254 119 376t322 121q196 0 315 -106q118 -106 118 -279q0 -113 -56 -202q-57 -89 -141 -150q-84 -60 -171 -120t-159 -145t-91 -190
h405v180h221z" />
    <glyph glyph-name="three" unicode="3" horiz-adv-x="1130" 
d="M532 207q88 0 141 56q52 56 52 157q0 102 -66 156t-196 40v234q109 2 168 49t59 126t-41 122t-109 43t-109 -48q-40 -48 -38 -136l-260 20q10 184 123 286q114 102 310 103q196 0 311 -98t114 -268q0 -215 -207 -316q258 -86 258 -334q0 -188 -130 -303t-345 -114
q-440 0 -477 444l268 20q6 -121 46 -180t128 -59z" />
    <glyph glyph-name="four" unicode="4" horiz-adv-x="1130" 
d="M592 573v484h-4l-340 -484h344zM995 205v-205h-553v205h150v178h-510q-29 98 -74 190l598 840h273v-840h135v-190h-135v-178h116z" />
    <glyph glyph-name="five" unicode="5" horiz-adv-x="1130" 
d="M520 207q186 1 186 239t-180 238q-100 0 -168 -109l-221 111l39 705h782v-328h-202l-21 104h-358l-19 -333q115 80 238 79q192 0 310 -126t118 -316t-101 -332q-53 -73 -151 -115t-231 -42q-201 0 -321 100q-119 101 -146 291l262 33q16 -106 59 -152t125 -47z" />
    <glyph glyph-name="six" unicode="6" horiz-adv-x="1130" 
d="M588 207q72 0 110 61q38 60 39 168q0 108 -46 168t-130 61q-84 0 -168 -59q2 -195 46 -297t149 -102zM591 1196q-81 0 -138 -102t-60 -293q102 90 258 90t262 -111t107 -307q0 -244 -112 -368t-314 -123q-256 0 -379 172t-123 529t129 543t389 187q174 -1 276 -99
t118 -274l-240 -20q-25 86 -58 131q-34 45 -115 45z" />
    <glyph glyph-name="seven" unicode="7" horiz-adv-x="1130" 
d="M864 223v-223h-671v223h172q12 211 114 485t240 466h-354v-195h-226v412h869v-172q-120 -147 -220 -457t-100 -539h176z" />
    <glyph glyph-name="eight" unicode="8" horiz-adv-x="1130" 
d="M567 199q86 0 136 58q51 57 51 157t-49 159t-135 59t-139 -60q-52 -62 -52 -158t51 -156t137 -59zM403 1013q0 -85 44 -135t120 -51t118 49t42 134t-40 136t-119 52t-122 -50t-43 -135zM121 1053q0 166 121 264q122 98 324 98t323 -98t121 -264q0 -209 -207 -322
q250 -94 250 -340q0 -172 -120 -291q-120 -118 -368 -118q-249 0 -367 116t-118 293q0 246 248 340q-207 113 -207 322z" />
    <glyph glyph-name="nine" unicode="9" horiz-adv-x="1130" 
d="M393 958q0 -108 46 -168t130 -60t168 58q-2 195 -46 297t-148 103q-72 0 -111 -62q-39 -60 -39 -168zM540 199q80 0 138 102q57 102 59 293q-101 -90 -257 -90t-263 110q-106 111 -106 308q-1 244 111 368t315 123q257 0 379 -172t122 -529q0 -358 -129 -544t-389 -186
q-174 0 -276 98t-117 274l240 21q25 -86 59 -131t114 -45z" />
    <glyph glyph-name="colon" unicode=":" 
d="M195 336h335v-336h-335v336zM195 969h335v-336h-335v336z" />
    <glyph glyph-name="semicolon" unicode=";" 
d="M195 969h335v-336h-335v336zM195 336h335v-336q0 -190 -77 -279q-78 -88 -256 -88v152q88 10 127 60t38 155h-167v336z" />
    <glyph glyph-name="less" unicode="&#x3c;" horiz-adv-x="1366" 
d="M119 565v238l1126 467v-283l-768 -303l768 -303v-283z" />
    <glyph glyph-name="equal" unicode="=" horiz-adv-x="1366" 
d="M119 1055h1128v-260h-1128v260zM119 573h1128v-260h-1128v260z" />
    <glyph glyph-name="greater" unicode="&#x3e;" horiz-adv-x="1366" 
d="M1247 565l-1126 -467v283l768 303l-768 303v283l1126 -467v-238z" />
    <glyph glyph-name="question" unicode="?" horiz-adv-x="1153" 
d="M338 336h336v-336h-336v336zM727 1016q0 72 -47 128t-139 56q-91 0 -143 -54t-33 -153h-310q0 203 135 313q134 110 362 110t360 -110t132 -291t-116 -289t-316 -99l-32 -146h-144l-28 355l12 6q121 -31 214 14t93 160z" />
    <glyph glyph-name="at" unicode="@" horiz-adv-x="2004" 
d="M1090 1491q376 0 612 -215t235 -547q0 -295 -189 -512t-472 -217q-156 0 -182 117q-111 -117 -282 -117t-272 123q-102 123 -102 315t129 407q61 101 170 170t240 68q176 0 266 -135l25 111h264l-164 -772q-16 -82 39 -82q73 0 204 135q60 64 103 170t43 216
q0 216 -148 389q-75 87 -213 141t-310 54q-476 1 -700 -353q-130 -204 -130 -474q0 -348 220 -538t628 -191q461 0 674 264h213q-227 -444 -908 -444q-264 0 -465 73q-202 73 -320 199q-235 251 -237 637q0 288 139 534q77 136 190 239q114 103 294 169t406 66zM887 182
q90 0 164 87t105 196q32 109 32 210t-51 165t-131 63q-80 0 -144 -51t-97 -130q-34 -79 -51 -155q-18 -76 -18 -168q0 -93 50 -155t141 -62z" />
    <glyph glyph-name="A" unicode="A" horiz-adv-x="1429" 
d="M807 678l-113 420h-4l-125 -420h242zM1432 236v-236h-676v236h174l-66 237h-360l-76 -237h186v-236h-618v236h174l272 919h-186v236h907v-236h-186l291 -919h164z" />
    <glyph glyph-name="B" unicode="B" horiz-adv-x="1429" 
d="M602 842h141q80 0 123 44t43 118q0 152 -182 151h-125v-313zM602 236h146q116 0 160 49t44 138t-55 136t-139 47h-156v-370zM66 0v236h174v919h-174v236h722q130 0 222 -22t155 -85q106 -106 107 -258q0 -205 -197 -287q250 -94 250 -333q0 -176 -128 -291t-386 -115
h-745z" />
    <glyph glyph-name="C" unicode="C" horiz-adv-x="1599" 
d="M1225 1391h235v-490h-235q-49 127 -114 177t-114 68t-118 19q-186 0 -300 -130t-114 -338q1 -208 109 -335t282 -126q145 0 247 95q101 95 140 267l275 -131q-72 -258 -262 -372t-427 -113q-170 0 -305 46t-217 118t-136 168q-95 171 -95 382q0 317 203 517t528 200
q252 0 418 -131v109z" />
    <glyph glyph-name="D" unicode="D" horiz-adv-x="1642" 
d="M641 236h137q203 0 304 120q102 120 102 340q0 219 -108 339t-310 120h-125v-919zM68 0v236h211v919h-211v236h727q195 0 329 -43t238 -146q199 -199 199 -499q1 -299 -175 -501t-491 -202h-827z" />
    <glyph glyph-name="E" unicode="E" horiz-adv-x="1366" 
d="M70 0v236h163v919h-163v236h1222v-441h-264v205h-432v-319h348v-236h-348v-364h432v206h264v-442h-1222z" />
    <glyph glyph-name="F" unicode="F" horiz-adv-x="1323" 
d="M57 0v236h199v919h-199v236h1246v-428h-267v192h-418v-321h302v-236h-302v-362h213v-236h-774z" />
    <glyph glyph-name="G" unicode="G" horiz-adv-x="1728" 
d="M975 467v235h651q8 -160 -37 -288t-123 -208q-78 -79 -183 -131q-188 -93 -411 -93q-374 0 -574 204t-200 515q0 312 206 512t532 200q281 0 434 -137v115h235v-494h-235q-42 123 -144 196t-239 72q-178 0 -289 -123t-111 -321q0 -244 121 -365t289 -120q254 0 322 231
h-244z" />
    <glyph glyph-name="H" unicode="H" horiz-adv-x="1556" 
d="M63 0v236h164v919h-164v236h668v-236h-141v-305h379v305h-142v236h668v-236h-164v-919h164v-236h-668v236h142v378h-379v-378h141v-236h-668z" />
    <glyph glyph-name="I" unicode="I" horiz-adv-x="874" 
d="M45 0v236h211v919h-211v236h784v-236h-211v-919h211v-236h-784z" />
    <glyph glyph-name="J" unicode="J" horiz-adv-x="831" 
d="M102 -168q156 0 156 168v1155h-207v236h756v-236h-186v-1128q-1 -219 -107 -337t-307 -118q-86 0 -209 25v251q66 -16 104 -16z" />
    <glyph glyph-name="K" unicode="K" horiz-adv-x="1599" 
d="M858 0v236h164l-420 495l455 424h-164v236h680v-236h-174l-391 -383l456 -536h142v-236h-748zM41 0v236h188v919h-188v236h719v-236h-168v-919h168v-236h-719z" />
    <glyph glyph-name="L" unicode="L" horiz-adv-x="1323" 
d="M57 0v236h199v919h-199v236h764v-236h-203v-919h410v430h272v-666h-1243z" />
    <glyph glyph-name="M" unicode="M" horiz-adv-x="2134" 
d="M57 0v236h181v919h-181v236h697l305 -816l317 816h705v-236h-180v-919h182v-236h-717v236h182v919h-32l-435 -1155h-151l-434 1155h-33v-919h182v-236h-588z" />
    <glyph glyph-name="N" unicode="N" horiz-adv-x="1622" 
d="M43 0v236h186v919h-186v236h582l510 -869h4v633h-181v236h625v-236h-197v-1155h-311l-594 1022h-4v-786h174v-236h-608z" />
    <glyph glyph-name="O" unicode="O" horiz-adv-x="1748" 
d="M880 1159q-160 0 -274 -118t-114 -335t106 -344q106 -126 270 -126t278 118t114 337q0 218 -110 343t-270 125zM874 1413q188 0 339 -59q151 -58 244 -160q190 -207 191 -495q1 -287 -188 -493q-92 -100 -244 -162t-340 -62q-190 0 -342 60t-243 162q-187 206 -188 497
q-1 292 203 502t568 210z" />
    <glyph glyph-name="P" unicode="P" horiz-adv-x="1366" 
d="M600 741h100q242 0 242 205q0 94 -57 152t-146 57h-139v-414zM793 236v-236h-730v236h175v919h-175v236h791q213 0 343 -127t130 -318q0 -192 -127 -316t-375 -124h-225v-270h193z" />
    <glyph glyph-name="Q" unicode="Q" horiz-adv-x="1748" 
d="M880 1159q-160 0 -274 -118t-114 -335t106 -344q106 -126 270 -126t278 118t114 337q0 218 -110 343t-270 125zM711 -170q-106 0 -203 -84l-90 135q78 92 235 117v4q-251 58 -401 246t-150 453t178 477q88 106 242 171t348 65t345 -61q277 -110 386 -392q48 -127 48 -267
q0 -300 -198 -494t-488 -212v-4q43 -14 123 -49t128 -48q49 -14 80 -13t90 7l-86 -229q-86 -10 -194 34t-215 94q-106 50 -178 50z" />
    <glyph glyph-name="R" unicode="R" horiz-adv-x="1492" 
d="M600 834h145q111 0 160 49t49 110t-40 111t-130 51h-184v-321zM1497 236v-236h-424l-313 610h-160v-374h174v-236h-727v236h191v919h-191v236h866q195 0 307 -112t111 -278q0 -238 -239 -346l225 -419h180z" />
    <glyph glyph-name="S" unicode="S" horiz-adv-x="1087" 
d="M90 0v473h236q-2 -111 59 -181t139 -71q78 0 123 43q45 42 45 104q0 112 -169 192t-287 159q-68 45 -114 125t-46 182q0 186 113 283q114 96 272 96t244 -129h4v115h233v-422h-233q-13 96 -67 150q-54 55 -124 55t-108 -32q-39 -32 -39 -82t47 -92t119 -70
q73 -28 155 -71t154 -91t119 -137t47 -205t-41 -202t-107 -128q-124 -82 -256 -82q-186 0 -278 135h-4v-117h-236z" />
    <glyph glyph-name="T" unicode="T" horiz-adv-x="1386" 
d="M1325 1391v-560h-242v324h-209v-919h209v-236h-780v236h209v919h-209v-324h-242v560h1264z" />
    <glyph glyph-name="U" unicode="U" horiz-adv-x="1386" 
d="M29 1155v236h647v-236h-121v-706q0 -111 41 -170t139 -60q193 0 193 217v719h-115v236h537v-236h-174v-778q0 -115 -46 -197t-122 -122q-140 -74 -312 -74q-227 0 -365 103t-138 341v727h-164z" />
    <glyph glyph-name="V" unicode="V" horiz-adv-x="1429" 
d="M0 1155v236h688v-236h-160l232 -696h4l233 696h-153v236h586v-236h-164l-404 -1165h-280l-418 1165h-164z" />
    <glyph glyph-name="W" unicode="W" horiz-adv-x="2027" 
d="M-2 1155v236h625v-236h-142l224 -668h4l211 668h-127v236h499v-236h-129l226 -668h4l219 668h-144v236h562v-236h-152l-389 -1165h-252l-221 635h-4l-209 -635h-256l-402 1165h-147z" />
    <glyph glyph-name="X" unicode="X" horiz-adv-x="1515" 
d="M-4 0v236h201l342 479l-338 440h-191v236h715v-222h-133l207 -260l188 260h-127v222h619v-236h-195l-330 -455l357 -464h209v-236h-744v221h142l-216 289l-208 -289h141v-221h-639z" />
    <glyph glyph-name="Y" unicode="Y" horiz-adv-x="1429" 
d="M352 0v236h197v374l-383 545h-174v236h684v-236h-127l211 -340l203 340h-121v236h596v-236h-174l-363 -545v-374h197v-236h-746z" />
    <glyph glyph-name="Z" unicode="Z" horiz-adv-x="1323" 
d="M102 0v236l660 919h-387v-252h-236v488h1075v-209l-679 -946h456v266h236v-502h-1125z" />
    <glyph glyph-name="bracketleft" unicode="[" horiz-adv-x="854" 
d="M225 -416v1807h566v-207h-252v-1393h252v-207h-566z" />
    <glyph glyph-name="backslash" unicode="\" horiz-adv-x="1040" 
d="M293 1391l739 -1416h-287l-737 1416h285z" />
    <glyph glyph-name="bracketright" unicode="]" horiz-adv-x="854" 
d="M629 -416h-566v207h252v1393h-252v207h566v-1807z" />
    <glyph glyph-name="asciicircum" unicode="^" horiz-adv-x="1193" 
d="M115 592l377 799h221l366 -799h-284l-197 489l-197 -489h-286z" />
    <glyph glyph-name="underscore" unicode="_" horiz-adv-x="1024" 
d="M-12 -154h1048v-102h-1048v102z" />
    <glyph glyph-name="grave" unicode="`" horiz-adv-x="681" 
d="M545 1094h-160l-369 317h369z" />
    <glyph glyph-name="a" unicode="a" horiz-adv-x="1193" 
d="M526 428q-66 0 -107 -34q-40 -34 -40 -88t37 -91t90 -37q82 0 192 101v79q-106 70 -172 70zM1167 223v-223h-469v76q-126 -90 -270 -90t-245 86t-101 222t112 228t285 92q94 0 219 -43v54q0 76 -51 123t-141 47t-168 -76l-250 43q113 229 469 229q239 0 347 -88t108 -282
v-398h155z" />
    <glyph glyph-name="b" unicode="b" horiz-adv-x="1280" 
d="M694 225q88 -1 138 69t51 191q0 121 -48 187q-49 66 -139 66t-141 -70q-51 -68 -51 -187t51 -187t139 -69zM506 1391v-531q66 72 129 102t147 29q186 0 302 -140t116 -364q0 -135 -40 -237t-103 -158q-123 -109 -276 -107q-153 1 -275 126v-111h-477v223h164v944h-164
v224h477z" />
    <glyph glyph-name="c" unicode="c" horiz-adv-x="1153" 
d="M1061 969v-394h-213q-74 162 -238 162q-104 0 -166 -67q-61 -68 -61 -189t58 -193q59 -72 147 -71q172 0 260 160l239 -107q-131 -293 -469 -293q-250 -1 -402 139t-150 362q0 222 139 364t350 141q150 0 293 -94v80h213z" />
    <glyph glyph-name="d" unicode="d" horiz-adv-x="1280" 
d="M397 484q-1 -118 51 -188t136 -71q84 1 141 67t57 187t-53 190t-142 69t-140 -68q-50 -68 -50 -186zM1241 223v-223h-463v115q-130 -129 -294 -129t-284 144t-120 358t121 358t293 145q172 0 284 -129v305h-149v224h463v-1168h149z" />
    <glyph glyph-name="e" unicode="e" horiz-adv-x="1173" 
d="M389 592h404q-13 92 -67 144t-138 52q-172 1 -199 -196zM623 -23q-251 1 -399 133t-148 358t147 374t373 149q226 0 374 -158q146 -159 128 -413h-709q1 -98 59 -170t179 -72q61 0 109 25t116 88l246 -76q-154 -238 -475 -238z" />
    <glyph glyph-name="f" unicode="f" 
d="M664 223v-223h-596v223h133v522h-133v224h133v82q0 152 92 258t298 106t308 -135l-235 -176q-18 61 -32 83t-46 21q-72 0 -72 -135v-104h150v-224h-150v-522h150z" />
    <glyph glyph-name="g" unicode="g" horiz-adv-x="1280" 
d="M772 482q0 112 -52 180t-140 68t-139 -67q-50 -67 -50 -180t51 -181q50 -68 136 -66q86 0 140 67t54 179zM1249 969v-224h-164v-722q0 -213 -119 -344q-120 -130 -402 -130t-421 107l150 203q119 -70 243 -70t181 67q55 67 55 171v94q-154 -131 -295 -131
q-172 0 -288 142q-115 142 -115 354t120 354t295 143q175 0 279 -133h4v119h477z" />
    <glyph glyph-name="h" unicode="h" horiz-adv-x="1280" 
d="M55 0v223h150v944h-150v224h463v-500q88 59 146 79t129 21q143 0 222 -86t79 -217v-465h141v-223h-455v621q0 63 -22 90q-24 27 -84 27t-156 -60v-455h141v-223h-604z" />
    <glyph glyph-name="i" unicode="i" 
d="M390 1413q71 0 120 -49t49 -119t-50 -120t-120 -50t-119 49t-49 120t49 120t120 49zM88 745v224h455v-746h141v-223h-596v223h141v522h-141z" />
    <glyph glyph-name="j" unicode="j" 
d="M375 1413q72 0 121 -49t49 -119t-49 -120t-120 -50t-120 49t-49 120t48 120t120 49zM78 745v224h463v-1000q-1 -215 -103 -306t-340 -91q-39 0 -112 4v250h73q88 0 128 31t40 116v772h-149z" />
    <glyph glyph-name="k" unicode="k" horiz-adv-x="1323" 
d="M72 0v215h149v952h-149v224h463v-877h4l329 256v4h-213v195h602v-195h-106l-283 -244l258 -315h131v-215h-294l-424 512h-4v-297h120v-215h-583z" />
    <glyph glyph-name="l" unicode="l" 
d="M74 0v223h149v944h-149v224h463v-1168h139v-223h-602z" />
    <glyph glyph-name="m" unicode="m" horiz-adv-x="2027" 
d="M39 745v224h493v-80q162 94 308 94q203 0 297 -133q197 133 383 133q332 0 331 -319v-441h193v-223h-506v563q0 156 -127 156q-98 0 -219 -66v-430h174v-223h-487v563q0 82 -30 119q-31 37 -109 37t-208 -66v-430h175v-223h-668v223h180v522h-180z" />
    <glyph glyph-name="n" unicode="n" horiz-adv-x="1280" 
d="M74 745v224h463v-90q141 104 269 104t216 -77t88 -253v-430h141v-223h-454v614q0 109 -90 109q-82 0 -170 -64v-436h129v-223h-592v223h149v522h-149z" />
    <glyph glyph-name="o" unicode="o" horiz-adv-x="1173" 
d="M778 485q0 127 -50 197t-142 70t-142 -71t-49 -198q0 -127 50 -197q49 -70 141 -69t142 71t50 197zM590 991q216 0 362 -135q144 -134 144 -366t-142 -372t-365 -140t-367 136t-144 374t148 371q148 132 364 132z" />
    <glyph glyph-name="p" unicode="p" horiz-adv-x="1280" 
d="M700 217q88 -1 138 69t49 190q0 120 -51 187q-52 67 -140 67t-137 -68q-49 -66 -49 -186t51 -190t139 -69zM696 -211v-223h-661v223h164v956h-164v224h477v-123q123 137 290 137q166 0 284 -144q118 -145 118 -363t-117 -358t-285 -140t-290 120v-309h184z" />
    <glyph glyph-name="q" unicode="q" horiz-adv-x="1280" 
d="M393 476q0 -120 49 -190q50 -70 138 -69q88 0 139 71q51 72 51 190t-50 185t-137 67t-139 -67q-51 -67 -51 -187zM584 -211h184v309q-122 -121 -290 -121q-168 1 -285 141t-117 358t118 362t284 145q166 0 290 -137v123h477v-224h-164v-956h164v-223h-661v223z" />
    <glyph glyph-name="r" unicode="r" horiz-adv-x="917" 
d="M737 223v-223h-682v223h181v522h-164v224h444v-246h4q43 125 130 193t208 67h45v-293h-37q-317 0 -317 -364v-103h188z" />
    <glyph glyph-name="s" unicode="s" horiz-adv-x="1044" 
d="M119 0v334h225q2 -62 60 -106t142 -44q85 0 128 26t43 71q1 45 -61 69t-145 30q-83 7 -187 42q-104 36 -173 104t-69 182t101 195q101 80 245 80t256 -47v33h221v-281h-221q-27 100 -211 100q-61 0 -97 -20t-36 -55t64 -53t158 -33q92 -14 186 -41t158 -97
q64 -71 65 -199t-99 -218t-278 -90t-250 67v-49h-225z" />
    <glyph glyph-name="t" unicode="t" horiz-adv-x="704" 
d="M39 745v224h123v151l313 221v-372h174v-224h-174v-419q0 -64 15 -82q16 -18 60 -18t99 18v-209q-117 -49 -227 -49t-185 56t-75 175v528h-123z" />
    <glyph glyph-name="u" unicode="u" horiz-adv-x="1280" 
d="M1206 223v-223h-463v82q-139 -96 -276 -96t-217 81t-80 220v458h-141v224h454v-604q1 -72 21 -99q20 -26 83 -26t156 69v436h-129v224h443v-746h149z" />
    <glyph glyph-name="v" unicode="v" horiz-adv-x="1173" 
d="M-8 745v224h569v-224h-100l151 -440l181 440h-101v224h490v-224h-142l-315 -759h-264l-328 759h-141z" />
    <glyph glyph-name="w" unicode="w" horiz-adv-x="1665" 
d="M0 745v224h526v-224h-104l117 -360h4l194 584h258l197 -584h4l111 360h-113v224h469v-224h-121l-250 -759h-266l-188 569h-4l-187 -569h-270l-254 759h-123z" />
    <glyph glyph-name="x" unicode="x" horiz-adv-x="1153" 
d="M45 0v223h141l209 250l-209 272h-141v224h373l174 -267l190 267h293v-224h-131l-194 -233l227 -289h131v-223h-373l-188 272l-201 -272h-301z" />
    <glyph glyph-name="y" unicode="y" horiz-adv-x="1216" 
d="M252 -434v223h184l64 172l-350 784h-142v224h561v-224h-94l162 -434l172 434h-104v224h491v-224h-141l-465 -1179h-338z" />
    <glyph glyph-name="z" unicode="z" horiz-adv-x="1087" 
d="M72 0v197l569 571h-311v-145h-211v346h891v-201l-568 -571h365v163h203v-360h-938z" />
    <glyph glyph-name="braceleft" unicode="{" horiz-adv-x="788" 
d="M59 592q123 0 171 72t49 219v125q0 90 12 150t49 118q74 116 315 115h88v-236h-88q-29 0 -57 -13q-28 -14 -38 -24q-9 -10 -17 -52t-8 -76v-116q0 -166 -40 -248t-143 -149q102 -67 142 -149t41 -206v-158q0 -34 8 -76t17 -52t38 -23q30 -13 58 -13t87 -1v-235h-88
q-241 0 -315 114q-37 58 -49 118t-12 151v125q-1 147 -49 219t-171 71v230z" />
    <glyph glyph-name="bar" unicode="|" horiz-adv-x="1251" 
d="M494 1391h264v-1831h-264v1831z" />
    <glyph glyph-name="braceright" unicode="}" horiz-adv-x="788" 
d="M729 362q-123 0 -171 -72t-48 -218v-125q0 -91 -12 -151t-49 -118q-75 -116 -316 -114h-88v235h88q29 -1 57 13t38 24q9 10 18 52q8 42 8 76v116q0 166 40 249t142 148q-102 66 -142 149q-40 82 -40 206v158q0 34 -8 76t-18 52t-38 24q-30 14 -58 13h-87v236h88
q241 0 316 -115q37 -58 49 -118t12 -150v-125q0 -147 48 -219t171 -72v-230z" />
    <glyph glyph-name="asciitilde" unicode="~" horiz-adv-x="1193" 
d="M367 915q113 -1 267 -67t220 -66q145 0 274 142v-271q-57 -55 -137 -94q-79 -39 -163 -39t-244 71t-244 71q-139 -1 -274 -142v258q129 137 301 137z" />
    <glyph glyph-name="uni00A0" unicode="&#xa0;" horiz-adv-x="512" 
 />
    <glyph glyph-name="exclamdown" unicode="&#xa1;" 
d="M530 969v-336h-335v336h335zM518 -422h-311v381l82 524h147l82 -524v-381z" />
    <glyph glyph-name="cent" unicode="&#xa2;" horiz-adv-x="1153" 
d="M381 483q0 -106 61 -174l150 424q-96 -6 -154 -75t-57 -175zM63 481q-1 263 191 403t424 83l164 438h129l-174 -487q51 -29 86 -56v107h182v-400h-211q-63 111 -137 142l-172 -478q208 -68 309 146l238 -107q-64 -164 -240 -246t-391 -30l-150 -447h-133l168 486
q-283 135 -283 446z" />
    <glyph glyph-name="sterling" unicode="&#xa3;" horiz-adv-x="1173" 
d="M322 299q-33 0 -55 -23q-21 -24 -21 -60t26 -62t63 -27q36 -1 69 23t47 63q-68 86 -129 86zM823 1030q-11 191 -147 191q-68 0 -108 -32t-40 -77t20 -92t55 -115q36 -68 54 -112h258v-205h-213q16 -154 -20 -275q86 -37 149 -37q132 1 146 173l143 -29q6 -213 -72 -326
q-78 -112 -216 -112q-139 0 -261 110q-101 -110 -213 -110t-178 66t-66 168q0 101 63 167q62 66 159 66q63 0 153 -41q0 70 -38 180h-304v205h201q-98 188 -98 301q0 143 118 232t300 89t281 -91t114 -263z" />
    <glyph glyph-name="currency" unicode="&#xa4;" horiz-adv-x="1366" 
d="M683 934q-97 0 -167 -70t-70 -166t70 -166t167 -70t166 70q69 68 69 165t-69 167t-166 70zM679 1174q122 0 243 -68l137 141l170 -172l-137 -139q63 -119 63 -243t-63 -230l137 -137l-170 -170l-137 135q-123 -68 -246 -68t-232 68l-137 -135l-170 170l137 137
q-66 119 -66 243t66 230l-137 139l170 172l137 -141q113 68 235 68z" />
    <glyph glyph-name="yen" unicode="&#xa5;" horiz-adv-x="1429" 
d="M842 1155v236h598v-236h-174l-125 -188h282v-140h-376l-146 -219h522v-139h-522v-233h197v-236h-746v236h197v233h-541v139h541l-156 219h-385v140h291l-135 188h-174v236h686v-236h-129l213 -340l205 340h-123z" />
    <glyph glyph-name="brokenbar" unicode="&#xa6;" horiz-adv-x="1251" 
d="M494 1391h264v-781h-264v781zM494 340h264v-780h-264v780z" />
    <glyph glyph-name="section" unicode="&#xa7;" horiz-adv-x="1067" 
d="M766 438q0 88 -158 156l-213 94q-92 -61 -92 -145q0 -53 39 -92t135 -82l195 -88q94 74 94 157zM542 -231q70 1 110 35t40 88t-66 100q-67 45 -161 84q-95 39 -189 85t-160 124t-67 180q0 199 207 303q-162 117 -162 282t118 262t316 97t314 -101q115 -101 116 -274h-264
q-12 164 -178 164q-63 0 -103 -30t-40 -84t58 -102q58 -46 137 -73t187 -82q107 -55 185 -133t78 -188q0 -176 -203 -311q156 -95 156 -265t-119 -270t-307 -100t-308 104t-126 277h264q2 -80 50 -126q47 -46 117 -46z" />
    <glyph glyph-name="dieresis" unicode="&#xa8;" horiz-adv-x="681" 
d="M113 1393q59 0 102 -42q43 -41 43 -101t-43 -103t-102 -43t-102 43q-42 43 -42 102t42 102q43 42 102 42zM567 1393q59 0 103 -42q44 -41 43 -101q0 -60 -43 -103q-42 -43 -102 -43t-102 43t-42 102t42 101t101 43z" />
    <glyph glyph-name="copyright" unicode="&#xa9;" horiz-adv-x="1515" 
d="M758 1495q317 0 541 -224q225 -223 225 -541t-224 -542t-542 -225q-317 0 -542 224q-224 223 -224 541t224 543q225 224 542 224zM758 1343q-256 0 -435 -179t-179 -434t180 -435t434 -180t434 180t180 435t-179 434t-435 179zM768 303q-176 0 -282 115
q-105 114 -105 310t104 312t285 115q246 0 334 -244l-162 -39q-53 139 -178 140q-98 0 -152 -75t-55 -209q0 -134 52 -209t147 -75q137 0 186 172l162 -55q-39 -125 -125 -191t-211 -67z" />
    <glyph glyph-name="ordfeminine" unicode="&#xaa;" horiz-adv-x="811" 
d="M374 1073q-42 0 -68 -20q-26 -21 -26 -53t24 -54q62 -59 183 37v47q-71 43 -113 43zM788 950v-133h-301v45q-86 -53 -178 -53q-91 0 -157 51t-66 133t72 137q72 56 163 56t166 -31v37q0 43 -33 72q-34 28 -94 28t-108 -45l-162 27q74 141 307 141q291 0 291 -219v-246
h100z" />
    <glyph glyph-name="guillemotleft" unicode="&#xab;" horiz-adv-x="1110" 
d="M313 483l226 -483h-295l-232 483l232 486h295zM874 483l226 -483h-295l-232 483l232 486h295z" />
    <glyph glyph-name="logicalnot" unicode="&#xac;" horiz-adv-x="1368" 
d="M119 1065h1128v-748h-260v488h-868v260z" />
    <glyph glyph-name="uni00AD" unicode="&#xad;" horiz-adv-x="704" 
d="M72 348v270h559v-270h-559z" />
    <glyph glyph-name="registered" unicode="&#xae;" horiz-adv-x="1515" 
d="M758 1495q317 0 541 -224q225 -223 225 -541t-224 -542t-542 -225q-317 0 -542 224q-224 223 -224 541t224 543q225 224 542 224zM758 1343q-256 0 -435 -179t-179 -434t180 -435t434 -180t434 180t180 435t-179 434t-435 179zM578 782h145q174 0 174 112t-170 112h-149
v-224zM608 653h-30v-334h-166v814h399q131 0 196 -66t65 -161t-60 -155q-59 -60 -162 -73v-4q64 -24 95 -68q32 -44 53 -80q21 -35 36 -59t86 -148h-205q-148 303 -228 327q-24 7 -79 7z" />
    <glyph glyph-name="macron" unicode="&#xaf;" horiz-adv-x="681" 
d="M-123 1110v209h930v-209h-930z" />
    <glyph glyph-name="degree" unicode="&#xb0;" horiz-adv-x="811" 
d="M404 1282q-89 0 -151 -61q-63 -61 -63 -151t62 -154q62 -62 151 -62q88 0 152 62q63 62 63 152t-62 152q-63 62 -152 62zM403 1413q143 0 245 -100q102 -99 102 -243t-102 -246t-244 -101q-144 0 -244 101q-100 100 -100 244t100 244t243 101z" />
    <glyph glyph-name="plusminus" unicode="&#xb1;" horiz-adv-x="1368" 
d="M813 1001h434v-260h-434v-434h-260v434h-434v260h434v435h260v-435zM119 193h1128v-261h-1128v261z" />
    <glyph glyph-name="two.superior" unicode="&#xb2;" horiz-adv-x="681" 
d="M604 903v-223h-551v37q0 87 35 155t84 110t97 78q118 88 118 161q0 31 -18 50t-54 19q-71 0 -79 -149l-183 14q-2 127 72 194t201 67q126 0 200 -57q74 -55 74 -137t-51 -136t-113 -84q-171 -82 -200 -195h213v96h155z" />
    <glyph glyph-name="three.superior" unicode="&#xb3;" horiz-adv-x="681" 
d="M326 797q42 -1 68 27t26 73q0 98 -107 98h-47v131q135 0 135 88q0 34 -20 54t-55 20q-80 0 -76 -90h-178q2 90 55 143q80 74 206 74q125 0 197 -52t72 -149t-113 -153q143 -45 144 -170q0 -99 -81 -159t-214 -60q-268 -1 -293 237l182 13q4 -125 99 -125z" />
    <glyph glyph-name="acute" unicode="&#xb4;" horiz-adv-x="681" 
d="M137 1094l160 317h369l-369 -317h-160z" />
    <glyph glyph-name="mu" unicode="&#xb5;" horiz-adv-x="1259" 
d="M150 969h278v-412q0 -176 42 -266t157 -90q88 -1 146 75t58 222v471h285v-969h-262v129h-4q-31 -74 -89 -113t-122 -39q-141 0 -207 154h-4v-565h-278v1403z" />
    <glyph glyph-name="paragraph" unicode="&#xb6;" horiz-adv-x="1130" 
d="M631 -434h-238v1003q-185 15 -289 121t-104 290t115 297q115 114 323 114h692v-261h-112v-1564h-238v1564h-149v-1564z" />
    <glyph glyph-name="periodcentered" unicode="&#xb7;" horiz-adv-x="747" 
d="M205 981h336v-336h-336v336z" />
    <glyph glyph-name="cedilla" unicode="&#xb8;" horiz-adv-x="681" 
d="M322 25v-52q82 -14 130 -61t48 -115q0 -133 -119 -177t-361 -32v103q211 0 211 80q0 63 -120 71l36 183h175z" />
    <glyph glyph-name="one.superior" unicode="&#xb9;" horiz-adv-x="681" 
d="M131 680v127h117v469h-117v127h322v-596h106v-127h-428z" />
    <glyph glyph-name="ordmasculine" unicode="&#xba;" horiz-adv-x="768" 
d="M384 948q58 0 91 42t33 119t-33 119t-91 42t-91 -43t-33 -119t33 -118t91 -42zM385 805q-150 0 -241 84t-91 221t91 221t241 84t240 -84t90 -221t-90 -221t-240 -84z" />
    <glyph glyph-name="guillemotright" unicode="&#xbb;" horiz-adv-x="1110" 
d="M236 483l-226 486h295l232 -486l-232 -483h-295zM797 483l-226 486h295l232 -486l-232 -483h-295z" />
    <glyph glyph-name="onequarter" unicode="&#xbc;" horiz-adv-x="1898" 
d="M190 680v127h117v469h-117v127h322v-596h106v-127h-428zM1495 305v211h-4l-168 -211h172zM356 0l1008 1391h178l-1007 -1391h-179zM1763 117v-117h-358v117h90v78h-297q-29 68 -47 98l356 442h183v-430h73v-110h-73v-78h73z" />
    <glyph glyph-name="onehalf" unicode="&#xbd;" horiz-adv-x="1898" 
d="M190 680v127h117v469h-117v127h322v-596h106v-127h-428zM356 0l1008 1391h178l-1007 -1391h-179zM1755 223v-223h-551v37q0 87 35 155t84 110t97 78q118 88 118 161q0 31 -18 50t-54 19q-71 0 -80 -149l-182 14q-2 127 72 194t201 67t201 -57q74 -55 73 -137
q0 -82 -51 -136q-52 -54 -114 -83q-62 -30 -122 -81t-78 -115h213v96h156z" />
    <glyph glyph-name="threequarters" unicode="&#xbe;" horiz-adv-x="1898" 
d="M397 797q41 -1 68 27t27 73q0 98 -107 98h-47v131q135 0 135 88q0 34 -20 54t-56 20q-80 0 -75 -90h-179q2 41 18 83q15 42 34 58q80 76 208 76q127 0 199 -52t72 -149t-113 -153q143 -45 144 -170q0 -99 -81 -159t-214 -60q-268 -1 -293 237l182 13q4 -125 98 -125z
M1495 305v211h-4l-168 -211h172zM356 0l1008 1391h178l-1007 -1391h-179zM1763 117v-117h-358v117h90v78h-297q-29 68 -47 98l356 442h183v-430h73v-110h-73v-78h73z" />
    <glyph glyph-name="questiondown" unicode="&#xbf;" horiz-adv-x="1153" 
d="M815 655h-336v336h336v-336zM426 -25q0 -72 47 -128t139 -56t144 54q51 54 32 153h310q0 -202 -135 -312t-363 -110t-359 110q-132 110 -132 291q1 181 117 289t315 99l32 145h144l28 -354l-12 -6q-121 32 -214 -14t-93 -161z" />
    <glyph glyph-name="Agrave" unicode="&#xc0;" horiz-adv-x="1429" 
d="M920 1516h-160l-369 317h369zM807 678l-113 420h-4l-125 -420h242zM1432 236v-236h-676v236h174l-66 237h-360l-76 -237h186v-236h-618v236h174l272 919h-186v236h907v-236h-186l291 -919h164z" />
    <glyph glyph-name="Aacute" unicode="&#xc1;" horiz-adv-x="1429" 
d="M512 1516l160 317h368l-368 -317h-160zM807 678l-113 420h-4l-125 -420h242zM1432 236v-236h-676v236h174l-66 237h-360l-76 -237h186v-236h-618v236h174l272 919h-186v236h907v-236h-186l291 -919h164z" />
    <glyph glyph-name="Acircumflex" unicode="&#xc2;" horiz-adv-x="1429" 
d="M324 1487l241 368h301l244 -368h-174l-223 219l-209 -219h-180zM807 678l-113 420h-4l-125 -420h242zM1432 236v-236h-676v236h174l-66 237h-360l-76 -237h186v-236h-618v236h174l272 919h-186v236h907v-236h-186l291 -919h164z" />
    <glyph glyph-name="Atilde" unicode="&#xc3;" horiz-adv-x="1429" 
d="M874 1503q-56 -1 -170 57t-149 58q-76 0 -80 -109h-149q0 143 63 230q61 90 168 90q63 -1 173 -59t146 -58t62 32t27 81h143q4 -139 -65 -231t-169 -91zM807 678l-113 420h-4l-125 -420h242zM1432 236v-236h-676v236h174l-66 237h-360l-76 -237h186v-236h-618v236h174
l272 919h-186v236h907v-236h-186l291 -919h164z" />
    <glyph glyph-name="Adieresis" unicode="&#xc4;" horiz-adv-x="1429" 
d="M942 1815q59 0 102 -42q43 -41 43 -101t-43 -103t-102 -43t-101 43t-42 102t42 101t101 43zM487 1815q59 0 103 -42q44 -41 43 -101q0 -60 -43 -103q-42 -43 -102 -43t-102 43t-42 102t42 101t101 43zM807 678l-113 420h-4l-125 -420h242zM1432 236v-236h-676v236h174
l-66 237h-360l-76 -237h186v-236h-618v236h174l272 919h-186v236h907v-236h-186l291 -919h164z" />
    <glyph glyph-name="Aring" unicode="&#xc5;" horiz-adv-x="1429" 
d="M715 1798q-47 0 -78 -31t-31 -77t32 -79q32 -32 78 -32t78 32t32 78q0 45 -32 77t-79 32zM715 1901q88 1 150 -61q63 -62 63 -150t-62 -150t-151 -63q-88 0 -150 62q-61 63 -61 151t62 150t149 61zM807 678l-113 420h-4l-125 -420h242zM1432 236v-236h-676v236h174
l-66 237h-360l-76 -237h186v-236h-618v236h174l272 919h-186v236h907v-236h-186l291 -919h164z" />
    <glyph glyph-name="AE" unicode="&#xc6;" horiz-adv-x="2027" 
d="M909 807v371h-90l-157 -371h247zM-4 0v236h145l398 919h-207v236h1622v-441h-266v205h-416v-317h336v-236h-336v-366h416v210h266v-446h-1202v236h157v366h-334l-163 -366h163v-236h-579z" />
    <glyph glyph-name="Ccedilla" unicode="&#xc7;" horiz-adv-x="1599" 
d="M807 1413q252 0 418 -131v109h235v-490h-235q-49 127 -114 177t-114 68t-118 19q-186 0 -300 -130t-114 -338q1 -208 109 -335t282 -126q145 0 247 95q101 95 140 267l275 -131q-139 -485 -711 -485l-4 -23q86 -8 137 -57t51 -119q0 -133 -119 -177t-360 -32v102
q211 0 211 80q0 64 -121 72l35 170q-157 30 -271 104t-174 176q-118 197 -116 418q0 317 203 517t528 200z" />
    <glyph glyph-name="Egrave" unicode="&#xc8;" horiz-adv-x="1366" 
d="M887 1516h-160l-369 317h369zM70 0v236h163v919h-163v236h1222v-441h-264v205h-432v-319h348v-236h-348v-364h432v206h264v-442h-1222z" />
    <glyph glyph-name="Eacute" unicode="&#xc9;" horiz-adv-x="1366" 
d="M479 1516l160 317h369l-369 -317h-160zM70 0v236h163v919h-163v236h1222v-441h-264v205h-432v-319h348v-236h-348v-364h432v206h264v-442h-1222z" />
    <glyph glyph-name="Ecircumflex" unicode="&#xca;" horiz-adv-x="1366" 
d="M291 1487l241 368h302l243 -368h-174l-223 219l-209 -219h-180zM70 0v236h163v919h-163v236h1222v-441h-264v205h-432v-319h348v-236h-348v-364h432v206h264v-442h-1222z" />
    <glyph glyph-name="Edieresis" unicode="&#xcb;" horiz-adv-x="1366" 
d="M455 1815q59 0 102 -42q43 -41 43 -101t-43 -103t-102 -43t-102 43q-42 43 -42 102t42 102q43 42 102 42zM909 1815q59 0 103 -42q44 -41 43 -101q0 -60 -43 -103q-42 -43 -102 -43t-102 43t-42 102t42 101t101 43zM70 0v236h163v919h-163v236h1222v-441h-264v205h-432
v-319h348v-236h-348v-364h432v206h264v-442h-1222z" />
    <glyph glyph-name="Igrave" unicode="&#xcc;" horiz-adv-x="874" 
d="M641 1516h-160l-368 317h368zM45 0v236h211v919h-211v236h784v-236h-211v-919h211v-236h-784z" />
    <glyph glyph-name="Iacute" unicode="&#xcd;" horiz-adv-x="874" 
d="M233 1516l160 317h369l-369 -317h-160zM45 0v236h211v919h-211v236h784v-236h-211v-919h211v-236h-784z" />
    <glyph glyph-name="Icircumflex" unicode="&#xce;" horiz-adv-x="874" 
d="M45 1487l242 368h301l243 -368h-174l-223 219l-209 -219h-180zM45 0v236h211v919h-211v236h784v-236h-211v-919h211v-236h-784z" />
    <glyph glyph-name="Idieresis" unicode="&#xcf;" horiz-adv-x="874" 
d="M209 1815q59 0 102 -42q43 -41 43 -101t-43 -103t-102 -43t-101 43t-42 102t42 101t101 43zM664 1815q59 0 102 -42q43 -41 43 -101t-43 -103t-102 -43t-102 43q-42 43 -42 102t42 102q43 42 102 42zM45 0v236h211v919h-211v236h784v-236h-211v-919h211v-236h-784z" />
    <glyph glyph-name="Eth" unicode="&#xd0;" horiz-adv-x="1642" 
d="M641 236h137q203 0 304 120q102 120 102 340q0 219 -108 339t-310 120h-125v-367h256v-186h-256v-366zM68 0v236h211v366h-211v186h211v367h-211v236h727q195 0 329 -43t238 -146q199 -199 199 -499q1 -299 -175 -501t-491 -202h-827z" />
    <glyph glyph-name="Ntilde" unicode="&#xd1;" horiz-adv-x="1622" 
d="M971 1503q-55 -1 -170 57t-150 58q-76 0 -80 -109h-149q0 143 63 230q61 90 168 90q63 -1 173 -59t146 -58t62 32t27 81h143q4 -139 -64 -231q-69 -91 -169 -91zM43 0v236h186v919h-186v236h582l510 -869h4v633h-181v236h625v-236h-197v-1155h-311l-594 1022h-4v-786h174
v-236h-608z" />
    <glyph glyph-name="Ograve" unicode="&#xd2;" horiz-adv-x="1748" 
d="M1079 1516h-159l-369 317h369zM880 1159q-160 0 -274 -118t-114 -335t106 -344q106 -126 270 -126t278 118t114 337q0 218 -110 343t-270 125zM874 1413q188 0 339 -59q151 -58 244 -160q190 -207 191 -495q1 -287 -188 -493q-92 -100 -244 -162t-340 -62q-190 0 -342 60
t-243 162q-187 206 -188 497q-1 292 203 502t568 210z" />
    <glyph glyph-name="Oacute" unicode="&#xd3;" horiz-adv-x="1748" 
d="M672 1516l159 317h369l-369 -317h-159zM880 1159q-160 0 -274 -118t-114 -335t106 -344q106 -126 270 -126t278 118t114 337q0 218 -110 343t-270 125zM874 1413q188 0 339 -59q151 -58 244 -160q190 -207 191 -495q1 -287 -188 -493q-92 -100 -244 -162t-340 -62
q-190 0 -342 60t-243 162q-187 206 -188 497q-1 292 203 502t568 210z" />
    <glyph glyph-name="Ocircumflex" unicode="&#xd4;" horiz-adv-x="1748" 
d="M483 1487l242 368h301l244 -368h-174l-224 219l-208 -219h-181zM880 1159q-160 0 -274 -118t-114 -335t106 -344q106 -126 270 -126t278 118t114 337q0 218 -110 343t-270 125zM874 1413q188 0 339 -59q151 -58 244 -160q190 -207 191 -495q1 -287 -188 -493
q-92 -100 -244 -162t-340 -62q-190 0 -342 60t-243 162q-187 206 -188 497q-1 292 203 502t568 210z" />
    <glyph glyph-name="Otilde" unicode="&#xd5;" horiz-adv-x="1748" 
d="M1034 1503q-55 -1 -170 57t-149 58q-76 0 -80 -109h-150q0 143 64 230q61 90 168 90q63 -1 173 -59t146 -58t61 32t27 81h144q4 -139 -65 -231t-169 -91zM880 1159q-160 0 -274 -118t-114 -335t106 -344q106 -126 270 -126t278 118t114 337q0 218 -110 343t-270 125z
M874 1413q188 0 339 -59q151 -58 244 -160q190 -207 191 -495q1 -287 -188 -493q-92 -100 -244 -162t-340 -62q-190 0 -342 60t-243 162q-187 206 -188 497q-1 292 203 502t568 210z" />
    <glyph glyph-name="Odieresis" unicode="&#xd6;" horiz-adv-x="1748" 
d="M647 1815q59 0 103 -42q44 -41 43 -101q0 -60 -43 -103q-42 -43 -102 -43t-102 43t-42 102t42 101t101 43zM1102 1815q59 0 102 -42q43 -41 43 -101t-43 -103t-102 -43t-102 43q-42 43 -42 102t42 102q43 42 102 42zM880 1159q-160 0 -274 -118t-114 -335t106 -344
q106 -126 270 -126t278 118t114 337q0 218 -110 343t-270 125zM874 1413q188 0 339 -59q151 -58 244 -160q190 -207 191 -495q1 -287 -188 -493q-92 -100 -244 -162t-340 -62q-190 0 -342 60t-243 162q-187 206 -188 497q-1 292 203 502t568 210z" />
    <glyph glyph-name="multiply" unicode="&#xd7;" horiz-adv-x="1366" 
d="M1038 145l-354 355l-354 -355l-183 183l353 352l-357 356l185 185l356 -357l356 357l185 -185l-357 -356l353 -352z" />
    <glyph glyph-name="Oslash" unicode="&#xd8;" horiz-adv-x="1748" 
d="M877 236q170 0 276 126t106 308t-57 293l-561 -641q104 -86 236 -86zM877 1159q-173 0 -279 -127t-106 -332q0 -155 61 -270l561 643q-102 86 -237 86zM877 -18q-256 0 -437 108l-137 -156l-117 66l142 174q-225 207 -226 524q0 269 180 481q90 105 244 170t351 64
q260 1 438 -108l117 137l116 -86l-116 -137l6 -5q211 -207 211 -502t-189 -504q-92 -102 -244 -164t-339 -62z" />
    <glyph glyph-name="Ugrave" unicode="&#xd9;" horiz-adv-x="1386" 
d="M897 1516h-160l-368 317h368zM29 1155v236h647v-236h-121v-706q0 -111 41 -170t139 -60q193 0 193 217v719h-115v236h537v-236h-174v-778q0 -115 -46 -197t-122 -122q-140 -74 -312 -74q-227 0 -365 103t-138 341v727h-164z" />
    <glyph glyph-name="Uacute" unicode="&#xda;" horiz-adv-x="1386" 
d="M489 1516l160 317h369l-369 -317h-160zM29 1155v236h647v-236h-121v-706q0 -111 41 -170t139 -60q193 0 193 217v719h-115v236h537v-236h-174v-778q0 -115 -46 -197t-122 -122q-140 -74 -312 -74q-227 0 -365 103t-138 341v727h-164z" />
    <glyph glyph-name="Ucircumflex" unicode="&#xdb;" horiz-adv-x="1386" 
d="M301 1487l242 368h301l243 -368h-174l-223 219l-209 -219h-180zM29 1155v236h647v-236h-121v-706q0 -111 41 -170t139 -60q193 0 193 217v719h-115v236h537v-236h-174v-778q0 -115 -46 -197t-122 -122q-140 -74 -312 -74q-227 0 -365 103t-138 341v727h-164z" />
    <glyph glyph-name="Udieresis" unicode="&#xdc;" horiz-adv-x="1386" 
d="M465 1815q59 0 102 -42q43 -41 43 -101t-43 -103t-102 -43t-101 43t-42 102t42 101t101 43zM920 1815q59 0 102 -42q43 -41 43 -101t-43 -103t-102 -43t-102 43q-42 43 -42 102t42 102q43 42 102 42zM29 1155v236h647v-236h-121v-706q0 -111 41 -170t139 -60
q193 0 193 217v719h-115v236h537v-236h-174v-778q0 -115 -46 -197t-122 -122q-140 -74 -312 -74q-227 0 -365 103t-138 341v727h-164z" />
    <glyph glyph-name="Yacute" unicode="&#xdd;" horiz-adv-x="1429" 
d="M512 1516l160 317h368l-368 -317h-160zM352 0v236h197v374l-383 545h-174v236h684v-236h-127l211 -340l203 340h-121v236h596v-236h-174l-363 -545v-374h197v-236h-746z" />
    <glyph glyph-name="Thorn" unicode="&#xde;" horiz-adv-x="1366" 
d="M600 520h135q203 0 203 174q0 88 -56 132t-147 44h-135v-350zM793 236v-236h-730v236h175v919h-175v236h730v-236h-193v-78h201q252 0 389 -96q137 -95 137 -279t-132 -286t-384 -103h-211v-77h193z" />
    <glyph glyph-name="germandbls" unicode="&#xdf;" horiz-adv-x="1323" 
d="M592 223v-223h-547v223h164v752q0 197 106 303q137 137 361 137t353 -90q128 -90 128 -246q0 -199 -213 -286q279 -92 279 -385q1 -195 -101 -309t-278 -113q-76 0 -152 30v207q29 -12 60 -12q154 0 153 203q0 139 -54 192t-159 60v225q72 4 114 45q42 40 42 108t-46 113
t-125 45t-117 -57t-38 -180v-742h70z" />
    <glyph glyph-name="agrave" unicode="&#xe0;" horiz-adv-x="1193" 
d="M801 1094h-160l-369 317h369zM526 428q-66 0 -107 -34q-40 -34 -40 -88t37 -91t90 -37q82 0 192 101v79q-106 70 -172 70zM1167 223v-223h-469v76q-126 -90 -270 -90t-245 86t-101 222t112 228t285 92q94 0 219 -43v54q0 76 -51 123t-141 47t-168 -76l-250 43
q113 229 469 229q239 0 347 -88t108 -282v-398h155z" />
    <glyph glyph-name="aacute" unicode="&#xe1;" horiz-adv-x="1193" 
d="M393 1094l160 317h369l-369 -317h-160zM526 428q-66 0 -107 -34q-40 -34 -40 -88t37 -91t90 -37q82 0 192 101v79q-106 70 -172 70zM1167 223v-223h-469v76q-126 -90 -270 -90t-245 86t-101 222t112 228t285 92q94 0 219 -43v54q0 76 -51 123t-141 47t-168 -76l-250 43
q113 229 469 229q239 0 347 -88t108 -282v-398h155z" />
    <glyph glyph-name="acircumflex" unicode="&#xe2;" horiz-adv-x="1193" 
d="M205 1065l241 369h302l243 -369h-174l-223 219l-209 -219h-180zM526 428q-66 0 -107 -34q-40 -34 -40 -88t37 -91t90 -37q82 0 192 101v79q-106 70 -172 70zM1167 223v-223h-469v76q-126 -90 -270 -90t-245 86t-101 222t112 228t285 92q94 0 219 -43v54q0 76 -51 123
t-141 47t-168 -76l-250 43q113 229 469 229q239 0 347 -88t108 -282v-398h155z" />
    <glyph glyph-name="atilde" unicode="&#xe3;" horiz-adv-x="1193" 
d="M756 1081q-55 -1 -170 57t-150 58q-76 0 -80 -109h-149q0 143 63 230q61 90 168 90q63 0 173 -58q110 -59 146 -59q35 0 61 32t28 81h143q4 -139 -64 -231q-69 -91 -169 -91zM526 428q-66 0 -107 -34q-40 -34 -40 -88t37 -91t90 -37q82 0 192 101v79q-106 70 -172 70z
M1167 223v-223h-469v76q-126 -90 -270 -90t-245 86t-101 222t112 228t285 92q94 0 219 -43v54q0 76 -51 123t-141 47t-168 -76l-250 43q113 229 469 229q239 0 347 -88t108 -282v-398h155z" />
    <glyph glyph-name="adieresis" unicode="&#xe4;" horiz-adv-x="1193" 
d="M369 1393q59 0 102 -42q43 -41 43 -101t-43 -103t-102 -43t-102 43q-42 43 -42 102t42 102q43 42 102 42zM823 1393q59 0 103 -42q44 -41 43 -101q0 -60 -43 -103q-42 -43 -102 -43t-102 43t-42 102t42 101t101 43zM526 428q-66 0 -107 -34q-40 -34 -40 -88t37 -91
t90 -37q82 0 192 101v79q-106 70 -172 70zM1167 223v-223h-469v76q-126 -90 -270 -90t-245 86t-101 222t112 228t285 92q94 0 219 -43v54q0 76 -51 123t-141 47t-168 -76l-250 43q113 229 469 229q239 0 347 -88t108 -282v-398h155z" />
    <glyph glyph-name="aring" unicode="&#xe5;" horiz-adv-x="1193" 
d="M596 1376q-47 0 -78 -30t-31 -78q0 -47 32 -79t78 -32t78 32t32 78q0 45 -32 77t-79 32zM596 1479q88 1 150 -61t62 -150t-62 -150t-150 -63q-88 0 -150 62q-61 63 -61 151q-1 88 61 150t150 61zM526 428q-66 0 -107 -34q-40 -34 -40 -88t37 -91t90 -37q82 0 192 101v79
q-106 70 -172 70zM1167 223v-223h-469v76q-126 -90 -270 -90t-245 86t-101 222t112 228t285 92q94 0 219 -43v54q0 76 -51 123t-141 47t-168 -76l-250 43q113 229 469 229q239 0 347 -88t108 -282v-398h155z" />
    <glyph glyph-name="ae" unicode="&#xe6;" horiz-adv-x="1812" 
d="M556 432q-64 0 -102 -39t-38 -93t28 -87t74 -33q88 0 207 107v71q-105 74 -169 74zM1229 782q-81 0 -133 -50t-60 -138h398q-16 88 -70 138t-135 50zM1255 -23q-285 0 -436 203q-104 -110 -190 -156t-180 -47q-143 1 -235 89t-93 228q0 140 102 230t269 90q115 0 233 -47
v31q0 96 -54 144t-135 48t-171 -71l-246 45q121 227 471 227q211 0 346 -94q123 94 297 94q246 -1 381 -153t133 -414h-709q8 -110 70 -174t166 -64q106 0 217 111l240 -74q-70 -117 -194 -181t-282 -65z" />
    <glyph glyph-name="ccedilla" unicode="&#xe7;" horiz-adv-x="1153" 
d="M66 500q0 200 139 342t350 141q150 0 293 -94v80h213v-394h-213q-74 162 -238 162q-104 0 -166 -67q-61 -68 -61 -189t58 -193q59 -72 147 -71q172 0 260 160l239 -107q-73 -154 -189 -224t-298 -69l-4 -14q88 -10 139 -58t51 -118q0 -133 -118 -177t-361 -32v103
q211 0 211 79q0 64 -121 72l49 168q-178 41 -279 170q-101 130 -101 330z" />
    <glyph glyph-name="egrave" unicode="&#xe8;" horiz-adv-x="1173" 
d="M791 1094h-160l-369 317h369zM389 592h404q-13 92 -67 144t-138 52q-172 1 -199 -196zM623 -23q-251 1 -399 133t-148 358t147 374t373 149q226 0 374 -158q146 -159 128 -413h-709q1 -98 59 -170t179 -72q61 0 109 25t116 88l246 -76q-154 -238 -475 -238z" />
    <glyph glyph-name="eacute" unicode="&#xe9;" horiz-adv-x="1173" 
d="M383 1094l160 317h368l-368 -317h-160zM389 592h404q-13 92 -67 144t-138 52q-172 1 -199 -196zM623 -23q-251 1 -399 133t-148 358t147 374t373 149q226 0 374 -158q146 -159 128 -413h-709q1 -98 59 -170t179 -72q61 0 109 25t116 88l246 -76q-154 -238 -475 -238z" />
    <glyph glyph-name="ecircumflex" unicode="&#xea;" horiz-adv-x="1173" 
d="M195 1065l241 369h301l244 -369h-174l-223 219l-209 -219h-180zM389 592h404q-13 92 -67 144t-138 52q-172 1 -199 -196zM623 -23q-251 1 -399 133t-148 358t147 374t373 149q226 0 374 -158q146 -159 128 -413h-709q1 -98 59 -170t179 -72q61 0 109 25t116 88l246 -76
q-154 -238 -475 -238z" />
    <glyph glyph-name="edieresis" unicode="&#xeb;" horiz-adv-x="1173" 
d="M358 1393q58 0 102 -42q44 -41 44 -101t-43 -103t-103 -43t-101 43q-42 43 -42 102t42 101t101 43zM813 1393q59 0 102 -42q43 -41 43 -101t-43 -103t-102 -43t-101 43t-42 102t42 101t101 43zM389 592h404q-13 92 -67 144t-138 52q-172 1 -199 -196zM623 -23
q-251 1 -399 133t-148 358t147 374t373 149q226 0 374 -158q146 -159 128 -413h-709q1 -98 59 -170t179 -72q61 0 109 25t116 88l246 -76q-154 -238 -475 -238z" />
    <glyph glyph-name="igrave" unicode="&#xec;" 
d="M567 1094h-159l-369 317h369zM88 745v224h455v-746h141v-223h-596v223h141v522h-141z" />
    <glyph glyph-name="iacute" unicode="&#xed;" 
d="M160 1094l159 317h369l-369 -317h-159zM88 745v224h455v-746h141v-223h-596v223h141v522h-141z" />
    <glyph glyph-name="icircumflex" unicode="&#xee;" 
d="M-29 1065l242 369h301l244 -369h-174l-224 219l-208 -219h-181zM88 745v224h455v-746h141v-223h-596v223h141v522h-141z" />
    <glyph glyph-name="idieresis" unicode="&#xef;" 
d="M135 1393q59 0 103 -42q44 -41 43 -101q0 -60 -43 -103q-42 -43 -102 -43t-102 43t-42 102t42 101t101 43zM590 1393q59 0 102 -42q43 -41 43 -101t-43 -103t-102 -43t-102 43q-42 43 -42 102t42 102q43 42 102 42zM88 745v224h455v-746h141v-223h-596v223h141v522h-141z
" />
    <glyph glyph-name="eth" unicode="&#xf0;" horiz-adv-x="1173" 
d="M1110 565q0 -266 -143 -425q-143 -158 -375 -158t-371 141t-139 367t144 366t317 139q117 0 207 -71l4 4q-45 88 -183 196l-258 -100l-133 100l256 101q-92 68 -162 100l222 88q92 -39 172 -96l245 96l138 -102l-256 -99q151 -141 233 -317t82 -330zM399 504
q0 -283 191 -283q94 0 148 75t54 199q0 125 -52 193t-141 68t-145 -70t-55 -182z" />
    <glyph glyph-name="ntilde" unicode="&#xf1;" horiz-adv-x="1280" 
d="M799 1081q-55 -1 -170 57t-150 58q-76 0 -80 -109h-149q0 143 63 230q61 90 168 90q63 0 173 -58q110 -59 146 -59t62 32t27 81h143q4 -139 -64 -231q-69 -91 -169 -91zM74 745v224h463v-90q141 104 269 104t216 -77t88 -253v-430h141v-223h-454v614q0 109 -90 109
q-82 0 -170 -64v-436h129v-223h-592v223h149v522h-149z" />
    <glyph glyph-name="ograve" unicode="&#xf2;" horiz-adv-x="1173" 
d="M791 1094h-160l-369 317h369zM778 485q0 127 -50 197t-142 70t-142 -71t-49 -198q0 -127 50 -197q49 -70 141 -69t142 71t50 197zM590 991q216 0 362 -135q144 -134 144 -366t-142 -372t-365 -140t-367 136t-144 374t148 371q148 132 364 132z" />
    <glyph glyph-name="oacute" unicode="&#xf3;" horiz-adv-x="1173" 
d="M383 1094l160 317h368l-368 -317h-160zM778 485q0 127 -50 197t-142 70t-142 -71t-49 -198q0 -127 50 -197q49 -70 141 -69t142 71t50 197zM590 991q216 0 362 -135q144 -134 144 -366t-142 -372t-365 -140t-367 136t-144 374t148 371q148 132 364 132z" />
    <glyph glyph-name="ocircumflex" unicode="&#xf4;" horiz-adv-x="1173" 
d="M195 1065l241 369h301l244 -369h-174l-223 219l-209 -219h-180zM778 485q0 127 -50 197t-142 70t-142 -71t-49 -198q0 -127 50 -197q49 -70 141 -69t142 71t50 197zM590 991q216 0 362 -135q144 -134 144 -366t-142 -372t-365 -140t-367 136t-144 374t148 371
q148 132 364 132z" />
    <glyph glyph-name="otilde" unicode="&#xf5;" horiz-adv-x="1173" 
d="M745 1081q-55 -1 -170 57t-149 58q-76 0 -80 -109h-149q0 143 63 230q61 90 168 90q63 0 173 -58q110 -59 146 -59q35 0 61 32t28 81h143q4 -139 -65 -231t-169 -91zM778 485q0 127 -50 197t-142 70t-142 -71t-49 -198q0 -127 50 -197q49 -70 141 -69t142 71t50 197z
M590 991q216 0 362 -135q144 -134 144 -366t-142 -372t-365 -140t-367 136t-144 374t148 371q148 132 364 132z" />
    <glyph glyph-name="odieresis" unicode="&#xf6;" horiz-adv-x="1173" 
d="M358 1393q58 0 102 -42q44 -41 44 -101t-43 -103t-103 -43t-101 43q-42 43 -42 102t42 101t101 43zM813 1393q59 0 102 -42q43 -41 43 -101t-43 -103t-102 -43t-101 43t-42 102t42 101t101 43zM778 485q0 127 -50 197t-142 70t-142 -71t-49 -198q0 -127 50 -197
q49 -70 141 -69t142 71t50 197zM590 991q216 0 362 -135q144 -134 144 -366t-142 -372t-365 -140t-367 136t-144 374t148 371q148 132 364 132z" />
    <glyph glyph-name="divide" unicode="&#xf7;" horiz-adv-x="1368" 
d="M119 821h1128v-260h-1128v260zM682 1272q62 0 108 -44t46 -108t-45 -108q-45 -45 -109 -45t-108 45t-44 108t44 108q45 44 108 44zM682 416q62 0 108 -44t46 -108t-45 -108q-45 -45 -109 -45t-108 45t-44 108t44 108q45 44 108 44z" />
    <glyph glyph-name="oslash" unicode="&#xf8;" horiz-adv-x="1173" 
d="M601 217q77 0 127 70t50 190q0 56 -16 115l-285 -334q47 -41 124 -41zM576 752q-76 0 -128 -70t-53 -186q1 -62 19 -121l284 336q-46 41 -122 41zM78 491q0 223 148 361t360 139q160 0 286 -78l123 144l95 -84l-119 -137q125 -136 125 -358t-146 -361t-360 -140
q-170 0 -287 78l-121 -143l-96 88l119 131q-127 137 -127 360z" />
    <glyph glyph-name="ugrave" unicode="&#xf9;" horiz-adv-x="1280" 
d="M844 1094h-160l-369 317h369zM1206 223v-223h-463v82q-139 -96 -276 -96t-217 81t-80 220v458h-141v224h454v-604q1 -72 21 -99q20 -26 83 -26t156 69v436h-129v224h443v-746h149z" />
    <glyph glyph-name="uacute" unicode="&#xfa;" horiz-adv-x="1280" 
d="M436 1094l160 317h369l-369 -317h-160zM1206 223v-223h-463v82q-139 -96 -276 -96t-217 81t-80 220v458h-141v224h454v-604q1 -72 21 -99q20 -26 83 -26t156 69v436h-129v224h443v-746h149z" />
    <glyph glyph-name="ucircumflex" unicode="&#xfb;" horiz-adv-x="1280" 
d="M248 1065l241 369h302l243 -369h-174l-223 219l-209 -219h-180zM1206 223v-223h-463v82q-139 -96 -276 -96t-217 81t-80 220v458h-141v224h454v-604q1 -72 21 -99q20 -26 83 -26t156 69v436h-129v224h443v-746h149z" />
    <glyph glyph-name="udieresis" unicode="&#xfc;" horiz-adv-x="1280" 
d="M412 1393q59 0 102 -42q43 -41 43 -101t-43 -103t-102 -43t-102 43q-42 43 -42 102t42 102q43 42 102 42zM866 1393q58 0 102 -42q44 -41 44 -101t-43 -103t-103 -43t-101 43q-42 43 -42 102t42 101t101 43zM1206 223v-223h-463v82q-139 -96 -276 -96t-217 81t-80 220
v458h-141v224h454v-604q1 -72 21 -99q20 -26 83 -26t156 69v436h-129v224h443v-746h149z" />
    <glyph glyph-name="yacute" unicode="&#xfd;" horiz-adv-x="1216" 
d="M406 1094l159 317h369l-369 -317h-159zM252 -434v223h184l64 172l-350 784h-142v224h561v-224h-94l162 -434l172 434h-104v224h491v-224h-141l-465 -1179h-338z" />
    <glyph glyph-name="thorn" unicode="&#xfe;" horiz-adv-x="1280" 
d="M700 217q88 -1 138 69t49 190q0 120 -51 187q-52 67 -140 67t-137 -68q-49 -66 -49 -186t51 -190t139 -69zM702 -211v-223h-667v223h164v1378h-164v224h477v-545q82 80 140 108t136 29q180 0 298 -144q118 -145 118 -365t-117 -358t-303 -139q-80 0 -140 28t-132 93v-309
h190z" />
    <glyph glyph-name="ydieresis" unicode="&#xff;" horiz-adv-x="1216" 
d="M381 1393q59 0 102 -42q43 -41 43 -101t-43 -103t-102 -43t-101 43t-42 102t42 101t101 43zM836 1393q59 0 102 -42q43 -41 43 -101t-43 -103t-102 -43t-102 43q-42 43 -42 102t42 102q43 42 102 42zM252 -434v223h184l64 172l-350 784h-142v224h561v-224h-94l162 -434
l172 434h-104v224h491v-224h-141l-465 -1179h-338z" />
    <glyph glyph-name="dotlessi" unicode="&#x131;" 
d="M88 745v224h455v-746h141v-223h-596v223h141v522h-141z" />
    <glyph glyph-name="Lslash" unicode="&#x141;" horiz-adv-x="1323" 
d="M618 236h410v430h272v-666h-1243v236h199v264l-199 -119v229l199 119v426h-199v236h764v-236h-203v-235l228 135v-230l-228 -135v-454z" />
    <glyph glyph-name="lslash" unicode="&#x142;" 
d="M537 223h139v-223h-602v223h149v275l-215 -154v246l215 153v424h-149v224h463v-447l215 154v-246l-215 -154v-475z" />
    <glyph glyph-name="OE" unicode="&#x152;" horiz-adv-x="2068" 
d="M844 1155q-364 0 -369 -459q0 -209 100 -334t306 -124h86v917h-123zM1995 444v-444h-1170q-188 0 -331 56q-144 56 -228 154q-168 194 -168 478q0 336 193 529q94 94 228 134t366 40h1110v-443h-264v207h-402v-321h322v-236h-322v-362h402v208h264z" />
    <glyph glyph-name="oe" unicode="&#x153;" horiz-adv-x="2068" 
d="M862 488q0 132 -70 214t-177 82t-179 -85t-72 -213t72 -216t180 -88t178 87q68 88 68 219zM1425 786q-91 0 -157 -54t-76 -138h477q-20 88 -86 140t-158 52zM1468 -23q-289 0 -440 140q-180 -139 -433 -139t-400 146q-147 148 -148 357q0 146 86 283q86 136 260 194
q98 33 217 33q238 0 418 -143q143 143 401 143t415 -177t130 -392h-792q10 -109 87 -172t195 -64q167 0 265 111l245 -74q-53 -115 -189 -181t-317 -65z" />
    <glyph glyph-name="Scaron" unicode="&#x160;" horiz-adv-x="1087" 
d="M150 1855h180l209 -219l223 219h174l-244 -368h-301zM90 0v473h236q-2 -111 59 -181t139 -71q78 0 123 43q45 42 45 104q0 112 -169 192t-287 159q-68 45 -114 125t-46 182q0 186 113 283q114 96 272 96t244 -129h4v115h233v-422h-233q-13 96 -67 150q-54 55 -124 55
t-108 -32q-39 -32 -39 -82t47 -92t119 -70q73 -28 155 -71t154 -91t119 -137t47 -205t-41 -202t-107 -128q-124 -82 -256 -82q-186 0 -278 135h-4v-117h-236z" />
    <glyph glyph-name="scaron" unicode="&#x161;" horiz-adv-x="1044" 
d="M129 1434h180l209 -220l223 220h174l-243 -369h-301zM119 0v334h225q2 -62 60 -106t142 -44q85 0 128 26t43 71q1 45 -61 69t-145 30q-83 7 -187 42q-104 36 -173 104t-69 182t101 195q101 80 245 80t256 -47v33h221v-281h-221q-27 100 -211 100q-61 0 -97 -20t-36 -55
t64 -53t158 -33q92 -14 186 -41t158 -97q64 -71 65 -199t-99 -218t-278 -90t-250 67v-49h-225z" />
    <glyph glyph-name="Ydieresis" unicode="&#x178;" horiz-adv-x="1429" 
d="M487 1815q59 0 103 -42q44 -41 43 -101q0 -60 -43 -103q-42 -43 -102 -43t-102 43t-42 102t42 101t101 43zM942 1815q59 0 102 -42q43 -41 43 -101t-43 -103t-102 -43t-101 43t-42 102t42 101t101 43zM352 0v236h197v374l-383 545h-174v236h684v-236h-127l211 -340
l203 340h-121v236h596v-236h-174l-363 -545v-374h197v-236h-746z" />
    <glyph glyph-name="Zcaron" unicode="&#x17d;" horiz-adv-x="1323" 
d="M268 1855h181l208 -219l224 219h174l-244 -368h-301zM102 0v236l660 919h-387v-252h-236v488h1075v-209l-679 -946h456v266h236v-502h-1125z" />
    <glyph glyph-name="zcaron" unicode="&#x17e;" horiz-adv-x="1087" 
d="M150 1434h180l209 -220l223 220h174l-244 -369h-301zM72 0v197l569 571h-311v-145h-211v346h891v-201l-568 -571h365v163h203v-360h-938z" />
    <glyph glyph-name="florin" unicode="&#x192;" horiz-adv-x="1130" 
d="M254 -430q-152 0 -274 39l57 221q101 -20 165 -20t87 30t39 137l149 873h-201l37 211h201l33 180q23 125 94 187q72 62 220 62t282 -40l-56 -227q-185 56 -239 4q-25 -25 -35 -86l-14 -80h205l-37 -211h-205l-176 -1000q-27 -156 -104 -218q-76 -62 -228 -62z" />
    <glyph glyph-name="circumflex" unicode="&#x2c6;" horiz-adv-x="681" 
d="M-51 1065l241 369h302l243 -369h-174l-223 219l-209 -219h-180z" />
    <glyph glyph-name="caron" unicode="&#x2c7;" horiz-adv-x="681" 
d="M-53 1434h180l209 -220l223 220h174l-244 -369h-301z" />
    <glyph glyph-name="uni02C9" unicode="&#x2c9;" horiz-adv-x="681" 
d="M-123 1110v209h930v-209h-930z" />
    <glyph glyph-name="breve" unicode="&#x2d8;" horiz-adv-x="681" 
d="M340 1063q-150 0 -262 105t-127 264h217q39 -129 171 -129t173 129h217q-14 -156 -127 -262q-112 -106 -262 -107z" />
    <glyph glyph-name="dotaccent" unicode="&#x2d9;" horiz-adv-x="681" 
d="M340 1393q59 0 102 -42q43 -41 43 -101t-43 -103t-102 -43t-101 43t-42 102t42 101t101 43z" />
    <glyph glyph-name="ring" unicode="&#x2da;" horiz-adv-x="681" 
d="M451 1267q0 45 -32 77t-78 32t-78 -30t-32 -78q0 -47 32 -79t77 -32t78 32t33 78zM340 1479q88 1 150 -61t62 -150t-62 -150t-150 -63q-88 0 -150 62q-61 63 -61 151q-1 88 61 150t150 61z" />
    <glyph glyph-name="ogonek" unicode="&#x2db;" horiz-adv-x="681" 
d="M340 -125q0 -49 29 -78q50 -50 186 -8v-223q-76 -25 -143 -25q-121 0 -201 75q-79 74 -79 184t61 200h184q-37 -76 -37 -125z" />
    <glyph glyph-name="tilde" unicode="&#x2dc;" horiz-adv-x="681" 
d="M500 1081q-55 -1 -170 57t-150 58q-76 0 -80 -109h-149q0 143 63 230q61 90 168 90q63 0 173 -58q110 -59 146 -59q35 0 61 32t28 81h143q4 -139 -64 -231q-69 -91 -169 -91z" />
    <glyph glyph-name="hungarumlaut" unicode="&#x2dd;" horiz-adv-x="681" 
d="M-104 1094l159 317h369l-369 -317h-159zM379 1094l160 317h368l-368 -317h-160z" />
    <glyph glyph-name="uni03A9" unicode="&#x3a9;" horiz-adv-x="1431" 
d="M346 213v6q-244 223 -244 549q0 264 173 450t446 185q141 0 259 -56q118 -57 192 -147q154 -189 153 -420q0 -176 -72 -321t-176 -240v-6h277v-213h-541v158q106 68 174 208t68 346t-89 339t-246 133t-252 -132t-95 -336q-1 -204 69 -350t172 -208v-158h-540v213h272z
" />
    <glyph glyph-name="uni03BC" unicode="&#x3bc;" horiz-adv-x="1259" 
d="M150 969h278v-412q0 -176 42 -266t157 -90q88 -1 146 75t58 222v471h285v-969h-262v129h-4q-31 -74 -89 -113t-122 -39q-141 0 -207 154h-4v-565h-278v1403z" />
    <glyph glyph-name="pi" unicode="&#x3c0;" horiz-adv-x="1218" 
d="M1032 815v-518q0 -178 27 -297h-260q-35 66 -35 285v530h-268q-6 -180 -42 -427t-85 -388h-260q49 168 85 410t39 405q-133 0 -196 -20l-29 176q82 68 334 67h852l-23 -223h-139z" />
    <glyph glyph-name="endash" unicode="&#x2013;" horiz-adv-x="1024" 
d="M-12 637h1048v-250h-1048v250z" />
    <glyph glyph-name="emdash" unicode="&#x2014;" horiz-adv-x="2048" 
d="M-12 637h2072v-250h-2072v250z" />
    <glyph glyph-name="quoteleft" unicode="&#x2018;" 
d="M530 688h-335v336q0 190 77 279q78 88 256 88v-152q-88 -10 -127 -60t-39 -155h168v-336z" />
    <glyph glyph-name="quoteright" unicode="&#x2019;" 
d="M195 1391h335v-336q0 -190 -77 -279q-78 -88 -256 -88v152q88 10 127 60t38 155h-167v336z" />
    <glyph glyph-name="quotesinglbase" unicode="&#x201a;" 
d="M195 336h335v-336q0 -190 -77 -279q-78 -88 -256 -88v152q88 10 127 60t38 155h-167v336z" />
    <glyph glyph-name="quotedblleft" unicode="&#x201c;" horiz-adv-x="1216" 
d="M522 688h-336v336q0 190 78 278t256 89v-152q-88 -10 -127 -59t-39 -156h168v-336zM1032 688h-336v336q0 190 78 278t256 89v-152q-88 -10 -127 -60t-39 -155h168v-336z" />
    <glyph glyph-name="quotedblright" unicode="&#x201d;" horiz-adv-x="1216" 
d="M184 1391h336v-336q0 -191 -78 -279t-256 -88v152q88 10 127 60t39 155h-168v336zM694 1391h336v-336q0 -191 -78 -279t-256 -88v152q88 10 127 60t39 155h-168v336z" />
    <glyph glyph-name="quotedblbase" unicode="&#x201e;" horiz-adv-x="1216" 
d="M184 336h336v-336q0 -190 -78 -278t-256 -89v152q88 10 127 60t39 155h-168v336zM694 336h336v-336q0 -190 -78 -278t-256 -89v152q88 10 127 60t39 155h-168v336z" />
    <glyph glyph-name="dagger" unicode="&#x2020;" horiz-adv-x="1003" 
d="M569 772q0 -143 70 -252v-217l-70 -723h-135l-72 723v219q72 98 72 250q-160 0 -237 -53h-189v250h193q61 -47 233 -60q8 66 -12 149t-60 126v202h277v-202q-33 -35 -55 -117t-19 -158q101 7 145 19t97 41h186v-250h-186q-78 53 -238 53z" />
    <glyph glyph-name="daggerdbl" unicode="&#x2021;" horiz-adv-x="1003" 
d="M430 985q0 99 -63 197v204h270v-204q-25 -32 -45 -94t-21 -107v-39q87 0 137 25q17 8 54 30h196v-247h-196q-86 53 -191 53q-18 -193 97 -322q-109 -117 -99 -321q129 0 193 53h196v-248h-194q-88 51 -193 53v-69q13 -92 66 -166v-205h-270v205q43 66 63 160v77
q-117 -4 -188 -55h-197v248h197q68 -53 190 -53q14 188 -98 323q121 121 98 320q-94 0 -194 -53h-193v247h195q66 -45 190 -55v43z" />
    <glyph glyph-name="bullet" unicode="&#x2022;" 
d="M362 983q119 0 203 -83t84 -202q0 -118 -84 -202t-203 -84q-120 0 -202 84t-82 202t82 202q82 83 202 83z" />
    <glyph glyph-name="ellipsis" unicode="&#x2026;" horiz-adv-x="2048" 
d="M174 336h336v-336h-336v336zM1538 336h336v-336h-336v336zM856 336h336v-336h-336v336z" />
    <glyph glyph-name="perthousand" unicode="&#x2030;" horiz-adv-x="2390" 
d="M221 0l1008 1391h178l-1008 -1391h-178zM473 1044q0 124 -20 174t-70 50q-82 0 -82 -205q-1 -125 19 -176t69 -51q84 -1 84 208zM713 1052q0 -176 -85 -270t-241 -94t-241 94t-85 270t85 269q85 94 241 94t241 -94t85 -269zM1309 324q-1 123 -21 173t-69 50
q-82 0 -82 -205q0 -125 19 -176t69 -51q84 0 84 209zM1223 694q157 0 241 -94t84 -269t-85 -269t-241 -95q-156 0 -240 94q-85 93 -85 269t85 270t241 94zM2091 324q0 123 -20 173t-70 50q-82 0 -82 -205q0 -125 19 -176t69 -51q84 0 84 209zM2331 331q0 -175 -85 -269
t-241 -95q-156 0 -241 94q-85 93 -85 269t85 270t241 94t241 -94t85 -269z" />
    <glyph glyph-name="guilsinglleft" unicode="&#x2039;" horiz-adv-x="555" 
d="M311 483l226 -483h-295l-232 483l232 486h295z" />
    <glyph glyph-name="guilsinglright" unicode="&#x203a;" horiz-adv-x="555" 
d="M244 483l-226 486h295l232 -486l-232 -483h-295z" />
    <glyph glyph-name="fraction" unicode="&#x2044;" horiz-adv-x="681" 
d="M-252 0l1008 1391h178l-1008 -1391h-178z" />
    <glyph glyph-name="Euro" unicode="&#x20ac;" horiz-adv-x="1130" 
d="M4 475v160h105v127h-105v160h121q39 229 155 361t289 132q85 1 143 -25t119 -87v88h181v-404h-176q-39 104 -82 153q-42 50 -134 50t-133 -68t-55 -200h285v-160h-291v-127h291v-160h-283q27 -268 172 -268q100 0 149 56q48 56 64 167l230 -53q-56 -279 -237 -357
q-88 -38 -226 -38q-389 0 -463 493h-119z" />
    <glyph glyph-name="afii61289" unicode="&#x2113;" horiz-adv-x="1046" 
d="M469 1024v-297q227 258 227 453q0 158 -106 157q-51 -1 -86 -73t-35 -240zM211 1016q0 254 102 382t254 128t225 -100t72 -257q0 -309 -395 -682v-81q2 -98 50 -152t124 -53q145 0 256 180l109 -111q-147 -283 -426 -282q-168 0 -257 88t-108 231q-2 8 -2 21
q-16 -12 -51 -39t-51 -39l-68 139l55 44q72 58 111 93v490z" />
    <glyph glyph-name="trademark" unicode="&#x2122;" horiz-adv-x="2048" 
d="M909 573v818h260l148 -564h4l147 564h261v-818h-158v652h-4l-174 -652h-152l-170 652h-4v-652h-158zM401 573v676h-254v142h666v-142h-246v-676h-166z" />
    <glyph glyph-name="Omega" unicode="&#x2126;" horiz-adv-x="1431" 
d="M346 213v6q-244 223 -244 549q0 264 173 450t446 185q141 0 259 -56q118 -57 192 -147q154 -189 153 -420q0 -176 -72 -321t-176 -240v-6h277v-213h-541v158q106 68 174 208t68 346t-89 339t-246 133t-252 -132t-95 -336q-1 -204 69 -350t172 -208v-158h-540v213h272z
" />
    <glyph glyph-name="estimated" unicode="&#x212e;" horiz-adv-x="1728" 
d="M1366 729v393q0 27 -18 45q-209 205 -486 205t-483 -211q-18 -18 -19 -49v-383q0 -12 11 -12h987q8 0 8 12zM1659 678h-1288q-10 0 -11 -8v-389q0 -25 17 -45q207 -213 499 -213t502 237h113q-109 -127 -275 -202t-354 -74q-330 0 -562 209t-232 505t232 506
q232 209 562 209t563 -209t234 -506v-20z" />
    <glyph glyph-name="partialdiff" unicode="&#x2202;" horiz-adv-x="1163" 
d="M522 209h2q102 0 172 122t86 275q-16 54 -76 108t-150 54t-156 -94q-64 -94 -64 -210t52 -185q52 -70 134 -70zM514 1567q230 0 392 -199q162 -198 161 -564q0 -366 -153 -590t-418 -224q-199 0 -311 146t-111 325q0 233 125 375t311 143q110 0 186 -51t109 -107h2
q2 16 2 64q0 188 -94 326q-93 138 -239 138t-269 -94l-74 195q151 117 381 117z" />
    <glyph glyph-name="Delta" unicode="&#x2206;" horiz-adv-x="1327" 
d="M328 213h657l-213 565q-12 43 -55 174t-55 178h-7q-8 -36 -48 -152t-54 -169zM51 0v152l459 1259h317l445 -1255v-156h-1221z" />
    <glyph glyph-name="product" unicode="&#x220f;" horiz-adv-x="1456" 
d="M1407 1143h-205v-1333h-262v1333h-426v-1333h-262v1333h-205v237h1360v-237z" />
    <glyph glyph-name="summation" unicode="&#x2211;" horiz-adv-x="1126" 
d="M1090 -190h-1045v167l481 619l-463 602v182h994v-223h-637v-6l405 -514l-450 -578v-8h715v-241z" />
    <glyph glyph-name="minus" unicode="&#x2212;" horiz-adv-x="1368" 
d="M119 821h1128v-260h-1128v260z" />
    <glyph glyph-name="uni2215" unicode="&#x2215;" horiz-adv-x="681" 
d="M-252 0l1008 1391h178l-1008 -1391h-178z" />
    <glyph glyph-name="uni2219" unicode="&#x2219;" horiz-adv-x="747" 
d="M205 981h336v-336h-336v336z" />
    <glyph glyph-name="radical" unicode="&#x221a;" horiz-adv-x="1198" 
d="M1219 1657l-455 -1933h-211l-299 860l-148 -58l-43 146l349 141l204 -623q6 -31 20 -90t21 -84l5 -2q6 45 30 189l342 1454h185z" />
    <glyph glyph-name="infinity" unicode="&#x221e;" horiz-adv-x="1554" 
d="M1133 764h-3q-58 0 -106 -30t-104 -95q-56 -64 -62 -72q92 -117 152 -159t134 -43q75 0 121 60t46 142q0 81 -49 139t-129 58zM428 365h4q50 1 104 33t84 63t80 92q-47 61 -63 83t-55 60q-68 68 -155 68t-136 -57t-49 -143t53 -143q53 -56 133 -56zM1458 571v-2
q0 -158 -96 -253t-225 -95q-188 0 -359 225q-88 -112 -172 -168t-204 -56t-214 94q-94 95 -94 245t95 246t239 96q190 0 358 -219q6 6 39 44t68 72t105 68t149 35q135 -1 223 -93t88 -239z" />
    <glyph glyph-name="integral" unicode="&#x222b;" horiz-adv-x="796" 
d="M168 -145q133 -1 133 321q0 206 -15 517q-16 310 -16 480q0 169 28 273t93 172q86 92 240 92q74 1 123 -22l-27 -181q-37 16 -72 17q-66 0 -100 -51q-53 -70 -53 -330q0 -156 15 -458t15 -525q0 -224 -76 -364t-259 -140q-96 0 -158 33l33 186q47 -20 96 -20z" />
    <glyph glyph-name="approxequal" unicode="&#x2248;" horiz-adv-x="1103" 
d="M750 233q-90 0 -224 78q-102 68 -158 68q-92 0 -148 -72q-19 -25 -52 -71l-94 86q47 90 125 147t151 57t101 -10t46 -16t47 -23q30 -18 38 -22t57 -34t71 -34q23 -4 59 -4q73 0 163 141l94 -86q-111 -205 -276 -205zM752 608q-94 0 -226 78q-104 68 -158 68
q-91 0 -148 -72q-19 -25 -52 -72l-94 88q47 90 125 146t169 57q91 0 210 -72q27 -18 45 -27q18 -8 34 -18q17 -10 25 -12t24 -8t58 -6q79 0 168 143l94 -88q-111 -205 -274 -205z" />
    <glyph glyph-name="notequal" unicode="&#x2260;" horiz-adv-x="1103" 
d="M1008 846v-152h-328l-117 -268h445v-152h-504l-98 -225l-121 49l80 176h-269v152h326l117 268h-443v152h500l98 223l119 -49l-76 -174h271z" />
    <glyph glyph-name="lessequal" unicode="&#x2264;" horiz-adv-x="1103" 
d="M1010 -29h-912v154h912v-154zM1001 199l-895 442v164l895 444v-176l-745 -346v-4l745 -348v-176z" />
    <glyph glyph-name="greaterequal" unicode="&#x2265;" horiz-adv-x="1103" 
d="M1006 -29h-906v154h906v-154zM109 1249l897 -444v-164l-895 -442v176l743 348v4l-745 346v176z" />
    <glyph glyph-name="lozenge" unicode="&#x25ca;" horiz-adv-x="1196" 
d="M864 684l-225 465q-20 55 -37 117h-6q-25 -80 -39 -117l-225 -455l227 -473q27 -68 33 -110h10q10 45 33 108zM1098 690l-400 -788h-211l-389 788l400 789h211z" />
    </font>
</defs>
</svg>
