<?xml version="1.0" standalone="no"?>
<!DOCTYPE svg PUBLIC "-//W3C//DTD SVG 1.1//EN" "http://www.w3.org/Graphics/SVG/1.1/DTD/svg11.dtd" >
<svg xmlns="http://www.w3.org/2000/svg">
<metadata>
Created by FontPrep 20130207 at Wed Apr  9 12:22:02 2014
 By Rich Hyun
Copyright (c) 1990, 2002 Adobe Systems Incorporated. All Rights Reserved.  (c) Copyright 1989, 1990, 2002 The Monotype Corporation Plc. All Rights Reserved.
</metadata>
<defs>
<font id="6cad18060702688d5a08740c6f749592" horiz-adv-x='1024' >
  <font-face 
    font-family="RockwellStd-Light"
    font-weight="300"
    font-stretch="normal"
    units-per-em="2048"
    panose-1="2 4 3 3 2 1 2 2 2 3"
    ascent="1391"
    descent="-657"
    x-height="969"
    cap-height="1391"
    bbox="-172 -459 2060 1855"
    underline-thickness="102"
    underline-position="-102"
    unicode-range="U+0020-FB02"
  />
<missing-glyph horiz-adv-x="1024" 
d="M102 1239v-1044l349 522zM164 102h696l-348 523zM573 717l349 -522v1044zM512 809l348 522h-696zM0 0v1434h1024v-1434h-1024z" />
    <glyph glyph-name="f_i" unicode="fi" horiz-adv-x="1110" 
d="M938 969v-877h145v-92h-403v92h151v785h-522v-785h142v-92h-404v92h156v785h-150v92h150v178q0 133 73 200q74 67 163 67t149 -53q60 -52 82 -142l-97 -15q-20 61 -52 89t-89 28t-90 -42t-33 -114v-196h629zM891 1413q35 -1 59 -25t25 -57q0 -33 -25 -59q-24 -26 -58 -25
q-34 0 -58 25q-24 24 -25 58t23 58t59 25z" />
    <glyph glyph-name="f_l" unicode="fl" horiz-adv-x="1110" 
d="M936 1391v-1299h147v-92h-403v92h149v1206h-190q18 -27 31 -79l-97 -15q-20 61 -52 89t-89 28t-90 -42t-33 -114v-196h158v-92h-158v-785h142v-92h-404v92h156v785h-156v92h156v178q0 135 72 201q73 66 167 65q56 1 101 -22h393z" />
    <glyph glyph-name=".notdef" horiz-adv-x="1024" 
d="M102 1239v-1044l349 522zM164 102h696l-348 523zM573 717l349 -522v1044zM512 809l348 522h-696zM0 0v1434h1024v-1434h-1024z" />
    <glyph glyph-name=".null" horiz-adv-x="0" 
 />
    <glyph glyph-name="nonmarkingreturn" horiz-adv-x="681" 
 />
    <glyph glyph-name="space" unicode=" " horiz-adv-x="512" 
 />
    <glyph glyph-name="exclam" unicode="!" horiz-adv-x="512" 
d="M203 1391h106v-435l-24 -587h-58l-24 587v435zM313 190v-190h-114v190h114z" />
    <glyph glyph-name="quotedbl" unicode="&#x22;" horiz-adv-x="575" 
d="M391 1413h115v-213l-29 -258h-57l-29 258v213zM72 1413h114v-213l-28 -258h-58l-28 258v213z" />
    <glyph glyph-name="numbersign" unicode="#" horiz-adv-x="1368" 
d="M535 920l-82 -398h389l80 398h-387zM1202 1012v-92h-184l-80 -398h264v-92h-284l-91 -416h-96l90 416h-385l-90 -416h-96l90 416h-172v92h188l82 398h-270v92h289l86 418h96l-86 -418h389l86 418h96l-86 -418h164z" />
    <glyph glyph-name="dollar" unicode="$" horiz-adv-x="1044" 
d="M492 770v498q-121 -10 -191 -76t-70 -170q1 -189 261 -252zM889 356q0 114 -74 190q-74 75 -229 97v-571q139 16 221 93t82 191zM123 1014q0 142 101 235q101 94 268 105v59h94v-59q330 -47 342 -404h-99q-6 266 -243 314v-519q399 -61 399 -376q0 -167 -104 -269
t-295 -120v-154h-94v154q-373 18 -416 430h102q38 -315 314 -340v596q-170 23 -270 114q-99 92 -99 234z" />
    <glyph glyph-name="percent" unicode="%" horiz-adv-x="1728" 
d="M338 0l979 1391h69l-978 -1391h-70zM539 1040q1 154 -49 235t-142 81q-194 0 -194 -314t192 -315q192 0 193 313zM344 1413q276 0 277 -372q0 -372 -277 -371q-135 0 -206 95t-70 277q0 371 276 371zM1577 360q0 154 -49 235t-142 81q-194 0 -194 -314t192 -315
q192 0 193 313zM1384 733q275 0 275 -372t-277 -371q-136 0 -206 95t-70 277t71 276t207 95z" />
    <glyph glyph-name="ampersand" unicode="&#x26;" horiz-adv-x="1429" 
d="M646 1323q-94 0 -158 -53t-64 -133t77 -173q9 -12 31 -44l33 -48q150 54 228 116q77 62 77 144t-64 137q-65 54 -160 54zM221 428q0 -129 94 -239q94 -109 264 -109t320 158l-373 520q-305 -109 -305 -330zM572 -20q-206 0 -336 124t-130 308q0 291 365 422
q-53 72 -80 110q-71 101 -69 182q0 119 96 203t230 84t225 -81q91 -82 91 -194t-82 -192q-83 -80 -264 -149l340 -482q111 160 154 383h236v-92h-156q-37 -135 -73 -213t-97 -155l106 -146h220v-92h-275l-115 158q-180 -178 -386 -178z" />
    <glyph glyph-name="quotesingle" unicode="'" horiz-adv-x="448" 
d="M168 1413h115v-213l-29 -258h-57l-29 258v213z" />
    <glyph glyph-name="parenleft" unicode="(" horiz-adv-x="724" 
d="M289 489q0 -313 94 -516t289 -317v-90q-140 60 -240 166t-152 235t-76 257t-24 265t24 265t76 258q52 129 152 234t240 167v-90q-195 -115 -289 -318t-94 -516z" />
    <glyph glyph-name="parenright" unicode=")" horiz-adv-x="724" 
d="M436 489q0 313 -94 517t-289 317v90q139 -61 239 -167t153 -234q100 -248 100 -522t-100 -523q-52 -129 -152 -234t-240 -167v90q195 116 289 318t94 515z" />
    <glyph glyph-name="asterisk" unicode="*" horiz-adv-x="1003" 
d="M440 1391h123v-152q-32 -69 -37 -242q172 59 224 111l145 47l37 -108l-152 -50q-57 16 -235 -45q106 -162 164 -182l90 -125l-90 -67l-91 122q-4 45 -27 87q-24 42 -89 131q-10 -14 -30 -40l-28 -38q-42 -64 -50 -92t-9 -48l-92 -122l-88 67l88 125q39 16 69 51t99 131
q-174 57 -240 45l-149 50l37 108l145 -47q29 -30 74 -52t149 -59q-11 184 -37 242v152z" />
    <glyph glyph-name="plus" unicode="+" horiz-adv-x="1366" 
d="M729 702h492v-92h-492v-491h-92v491h-492v92h492v492h92v-492z" />
    <glyph glyph-name="comma" unicode="," horiz-adv-x="512" 
d="M199 0v190h114v-223q0 -219 -133 -225v74q41 0 53 37t17 147h-51z" />
    <glyph glyph-name="hyphen" unicode="-" horiz-adv-x="704" 
d="M70 438v92h563v-92h-563z" />
    <glyph glyph-name="period" unicode="." horiz-adv-x="512" 
d="M199 0v190h114v-190h-114z" />
    <glyph glyph-name="slash" unicode="/" horiz-adv-x="575" 
d="M479 1391h96l-479 -1420h-96z" />
    <glyph glyph-name="zero" unicode="0" horiz-adv-x="1087" 
d="M545 68q172 0 258 166t86 468q0 301 -89 463t-256 162t-255 -162t-88 -467q0 -630 344 -630zM544 -18q-220 0 -334 182t-114 533t114 533t334 183q220 0 335 -182q115 -181 115 -533t-116 -534q-114 -182 -334 -182z" />
    <glyph glyph-name="one" unicode="1" horiz-adv-x="1087" 
d="M303 0v92h197v1206h-197v93h303v-1299h197v-92h-500z" />
    <glyph glyph-name="two" unicode="2" horiz-adv-x="1087" 
d="M819 1044q0 128 -76 206t-194 77q-158 0 -236 -101t-73 -282h-95q-8 219 104 344t291 125t281 -99q103 -99 103 -268t-107 -276q-41 -41 -185 -135t-232 -182t-136 -198t-47 -163h625l10 340h90l-12 -432h-817q-11 122 55 272t160 244t227 181t176 130q88 89 88 217z" />
    <glyph glyph-name="three" unicode="3" horiz-adv-x="1087" 
d="M528 68q131 0 235 79q103 80 103 238q0 92 -40 159q-40 66 -102 96q-145 69 -280 38v92q150 -10 245 68t95 208t-74 206t-197 75q-121 0 -187 -80t-68 -209h-98q2 178 103 276t260 99q159 0 262 -101t104 -255q0 -231 -225 -318v-4q127 -18 217 -105t90 -254t-124 -281
q-124 -113 -317 -113q-194 0 -318 124t-132 322h96q18 -182 120 -271t232 -89z" />
    <glyph glyph-name="four" unicode="4" horiz-adv-x="1087" 
d="M678 489v777h-4l-490 -777h494zM522 0v84h156v324h-537q-14 51 -51 81l588 914h92v-914h225v-81h-225v-324h123v-84h-371z" />
    <glyph glyph-name="five" unicode="5" horiz-adv-x="1087" 
d="M533 68q144 0 246 101q101 101 101 269t-90 266q-91 98 -237 99q-180 0 -309 -172q-29 29 -82 49l63 711h676v-295h-94v192h-498l-49 -528l4 -4q127 133 307 133t297 -126t117 -317q0 -121 -43 -215q-73 -159 -257 -224q-75 -26 -150 -25q-177 0 -299 114t-136 295h103
q20 -147 103 -235t227 -88z" />
    <glyph glyph-name="six" unicode="6" horiz-adv-x="1087" 
d="M567 68q139 0 224 98q83 98 83 260t-74 266q-75 104 -220 105q-88 -1 -180 -53t-164 -142q0 -252 82 -393t249 -141zM590 1327q-122 0 -203 -82q-80 -82 -113 -212t-38 -322l4 -4q150 176 354 176q168 0 276 -123t109 -322q0 -200 -115 -328t-297 -128q-434 0 -434 657
q0 286 85 510q46 121 139 193t223 71q170 1 267 -103t107 -282h-102q-4 145 -72 222t-190 77z" />
    <glyph glyph-name="seven" unicode="7" horiz-adv-x="1087" 
d="M281 0v92h174q-23 260 75 599t308 597h-613v-207h-94v310h811v-93q-205 -274 -302 -592t-79 -614h164v-92h-444z" />
    <glyph glyph-name="eight" unicode="8" horiz-adv-x="1087" 
d="M545 774q145 0 229 74t84 210t-98 203t-226 67t-216 -79q-88 -77 -89 -203t85 -199t231 -73zM538 68q161 0 260 87t99 223t-87 225t-258 89t-266 -81q-96 -81 -96 -221t94 -231t254 -91zM131 1049q0 166 117 265t296 99t296 -103t116 -261q0 -119 -66 -204t-177 -108v-4
q135 -31 212 -123t76 -225q0 -176 -128 -290q-129 -113 -329 -113t-329 114t-129 289q0 131 77 224t212 126v2q-113 23 -179 108t-65 204z" />
    <glyph glyph-name="nine" unicode="9" horiz-adv-x="1087" 
d="M520 1327q-139 0 -223 -98t-84 -260q0 -163 75 -267t220 -104q88 0 180 52t164 143q0 252 -83 393t-249 141zM494 512q-168 0 -277 123t-109 321t115 328q115 129 297 129q434 0 434 -657q0 -293 -85 -510q-46 -121 -139 -193t-222 -71q-170 0 -268 104t-107 281h103
q4 -145 71 -223q68 -76 191 -76q122 0 202 82t113 212t39 322l-4 4q-150 -176 -354 -176z" />
    <glyph glyph-name="colon" unicode=":" horiz-adv-x="512" 
d="M199 0v190h114v-190h-114zM199 778v191h114v-191h-114z" />
    <glyph glyph-name="semicolon" unicode=";" horiz-adv-x="512" 
d="M199 778v191h114v-191h-114zM199 0v190h114v-223q0 -219 -133 -225v74q41 0 53 37t17 147h-51z" />
    <glyph glyph-name="less" unicode="&#x3c;" horiz-adv-x="1366" 
d="M270 657l949 -395v-102l-1074 456v82l1074 457v-102z" />
    <glyph glyph-name="equal" unicode="=" horiz-adv-x="1366" 
d="M145 473h1076v-92h-1076v92zM145 938h1076v-92h-1076v92z" />
    <glyph glyph-name="greater" unicode="&#x3e;" horiz-adv-x="1366" 
d="M1096 657l-949 396v102l1074 -457v-82l-1074 -456v102z" />
    <glyph glyph-name="question" unicode="?" horiz-adv-x="917" 
d="M465 190v-190h-115v190h115zM729 1054q0 104 -82 186q-82 81 -209 81t-204 -79t-76 -208h-97q1 168 105 274t274 105q170 1 281 -107t111 -262t-97 -266q-96 -111 -274 -104l-25 -297h-49l-37 393l15 6q119 -27 242 30q122 58 122 248z" />
    <glyph glyph-name="at" unicode="@" horiz-adv-x="1642" 
d="M1063 673q0 117 -72 197t-176 80t-182 -57q-132 -96 -189 -318q-23 -88 -22 -159q0 -136 73 -228t183 -92t203 100q92 100 137 229q45 130 45 248zM1139 90q123 0 257 167t134 405q0 185 -82 340q-47 89 -120 157q-74 68 -194 111t-274 43q-342 0 -560 -224
q-218 -225 -218 -575t218 -565t570 -215q438 0 672 313h103q-113 -185 -313 -289t-464 -104q-388 0 -628 238t-240 612q0 375 220 628q106 122 274 194t365 71q197 0 345 -65t236 -171q172 -211 172 -493q0 -152 -51 -282t-130 -212t-167 -128t-168 -46q-156 0 -111 184
l-4 4q-145 -188 -340 -188q-150 0 -248 120t-98 302q0 131 53 268q53 136 174 242t283 106q201 0 305 -192l35 168h125l-170 -803q-14 -63 -6 -92t45 -29z" />
    <glyph glyph-name="A" unicode="A" horiz-adv-x="1343" 
d="M424 621h498l-242 704h-14zM373 1298v93h598v-93h-174l424 -1206h172v-92h-461v92h174l-154 436h-561l-149 -436h182v-92h-471v92h176l418 1206h-174z" />
    <glyph glyph-name="B" unicode="B" horiz-adv-x="1153" 
d="M328 772h233q156 0 242 75t86 183t-72 188t-239 80h-250v-526zM328 92h266q180 0 273 84t93 212t-90 210t-286 82h-256v-588zM35 0v92h178v1206h-178v93h555q316 0 393 -227q20 -58 21 -126q0 -219 -205 -299v-4q276 -78 276 -338q0 -139 -92 -257q-49 -62 -148 -101
t-235 -39h-565z" />
    <glyph glyph-name="C" unicode="C" horiz-adv-x="1536" 
d="M127 702q0 326 199 519t481 192q158 -1 294 -65t222 -179h4v222h94v-445h-96q-29 170 -180 268q-152 98 -330 99q-252 0 -413 -172q-160 -173 -160 -443t164 -444t417 -174q399 0 555 428l90 -51q-70 -229 -238 -354q-169 -124 -411 -123q-309 0 -501 197
q-191 199 -191 525z" />
    <glyph glyph-name="D" unicode="D" horiz-adv-x="1449" 
d="M326 92h262q338 0 494 156t155 444q0 288 -158 447q-90 90 -209 125t-286 34h-258v-1206zM18 0v92h193v1206h-193v93h553q201 0 343 -39t243 -140q195 -195 195 -519t-205 -529q-88 -88 -222 -126t-341 -38h-566z" />
    <glyph glyph-name="E" unicode="E" horiz-adv-x="1236" 
d="M31 0v92h178v1206h-178v93h1114v-338h-94v245h-727v-540h577v-92h-577v-574h727v250h94v-342h-1114z" />
    <glyph glyph-name="F" unicode="F" horiz-adv-x="1087" 
d="M31 0v92h180v1206h-180v93h1056v-340h-92v247h-669v-536h512v-92h-512v-578h184v-92h-479z" />
    <glyph glyph-name="G" unicode="G" horiz-adv-x="1622" 
d="M1024 535v92h487q-2 -309 -201 -479q-200 -168 -502 -168t-504 200t-202 512q0 311 198 516t497 205q162 1 303 -67t233 -191h4v236h93v-455h-93q-41 164 -193 270q-153 106 -343 107q-254 0 -419 -172q-165 -173 -165 -443t170 -444t436 -174q191 0 359 102
q84 50 141 142t70 211h-369z" />
    <glyph glyph-name="H" unicode="H" horiz-adv-x="1409" 
d="M41 0v92h168v1206h-168v93h459v-93h-176v-524h759v524h-178v93h463v-93h-170v-1206h170v-92h-463v92h178v590h-759v-590h176v-92h-459z" />
    <glyph glyph-name="I" unicode="I" horiz-adv-x="575" 
d="M55 0v92h174v1206h-174v93h465v-93h-176v-1206h176v-92h-465z" />
    <glyph glyph-name="J" unicode="J" horiz-adv-x="555" 
d="M4 -334q129 0 175 55t46 168v1409h-209v93h523v-93h-199v-1394q0 -180 -87 -259t-255 -79q-74 -1 -137 22v101q102 -23 143 -23z" />
    <glyph glyph-name="K" unicode="K" horiz-adv-x="1193" 
d="M731 0v92h187l-578 639l578 567h-160v93h442v-93h-149l-564 -557l592 -649h148v-92h-496zM29 0v92h182v1206h-182v93h489v-93h-192v-1206h192v-92h-489z" />
    <glyph glyph-name="L" unicode="L" horiz-adv-x="1044" 
d="M33 0v92h188v1206h-188v93h489v-93h-186v-1206h573v461h109v-553h-985z" />
    <glyph glyph-name="M" unicode="M" horiz-adv-x="1748" 
d="M39 0v92h180v1206h-180v93h356l430 -1041q27 -59 52 -147h4q14 66 41 131l432 1057h358v-93h-172v-1206h172v-92h-463v92h176v1235h-4l-542 -1327h-23l-537 1327h-4v-1235h166v-92h-442z" />
    <glyph glyph-name="N" unicode="N" horiz-adv-x="1449" 
d="M20 0v92h187v1206h-187v93h328l799 -1227h4v1134h-195v93h474v-93h-183v-1316h-106l-834 1278h-4v-1168h197v-92h-480z" />
    <glyph glyph-name="O" unicode="O" horiz-adv-x="1599" 
d="M217 696q0 -268 165 -442t419 -174t419 174t164 442q0 268 -164 443q-165 174 -419 174q-254 -1 -419 -175t-165 -442zM102 693q0 314 197 517t501 203t502 -203t198 -513t-196 -514q-196 -203 -500 -203t-503 200t-199 513z" />
    <glyph glyph-name="P" unicode="P" 
d="M332 1298v-632h262q383 0 383 307q0 161 -84 243t-287 82h-274zM33 0v92h184v1206h-184v93h602q229 0 343 -116t114 -290t-113 -293t-336 -119h-311v-481h188v-92h-487z" />
    <glyph glyph-name="Q" unicode="Q" horiz-adv-x="1599" 
d="M801 1313q-252 1 -418 -175t-166 -438t163 -440t417 -178t421 176t166 442q0 266 -165 440q-166 173 -418 173zM670 -6v4q-264 52 -416 240t-152 458q0 311 197 514t501 203t502 -203t198 -507q0 -303 -188 -507q-187 -204 -466 -212v-4q47 -12 121 -54q73 -42 141 -64
t137 -7l-37 -97q-102 -10 -188 31t-169 87t-175 46t-174 -59l-43 61q84 70 211 70z" />
    <glyph glyph-name="R" unicode="R" horiz-adv-x="1173" 
d="M326 786h288q338 0 338 261q0 117 -79 185t-216 66h-331v-512zM6 0v92h205v1206h-205v93h682q180 1 280 -97t99 -240q0 -142 -83 -232t-236 -117l278 -613h178v-92h-258l-313 694h-307v-602h194v-92h-514z" />
    <glyph glyph-name="S" unicode="S" horiz-adv-x="1110" 
d="M88 0v477h94v-47q0 -142 117 -246t267 -104t245 82q94 82 94 213q0 84 -45 142t-117 89t-228 74t-245 90q-178 95 -178 299q0 145 114 245t292 99q110 0 204 -43t154 -119h4v140h92v-375h-92v28q0 106 -110 188q-111 81 -247 81t-220 -70t-84 -163q0 -166 162 -233
q73 -30 225 -69t271 -104q73 -41 118 -118t45 -187q0 -166 -127 -278t-315 -111q-124 0 -230 54t-162 148h-4v-182h-94z" />
    <glyph glyph-name="T" unicode="T" horiz-adv-x="1173" 
d="M340 0v92h190v1206h-401v-346h-94v439h1106v-439h-94v346h-402v-1206h191v-92h-496z" />
    <glyph glyph-name="U" unicode="U" horiz-adv-x="1323" 
d="M184 1298h-178v93h469v-93h-176v-892q0 -162 94 -244t262 -82q367 0 367 321v897h-176v93h469v-93h-178v-892q0 -106 -35 -186t-84 -125q-49 -43 -117 -71q-168 -68 -373 -32q-240 42 -316 242q-28 75 -28 172v892z" />
    <glyph glyph-name="V" unicode="V" horiz-adv-x="1343" 
d="M-45 1298v93h471v-93h-174l438 -1146l422 1146h-170v93h449v-93h-181l-481 -1312h-96l-498 1312h-180z" />
    <glyph glyph-name="W" unicode="W" horiz-adv-x="1941" 
d="M-41 1298v93h463v-93h-172l330 -1151h4l295 1151h-164v93h524v-93h-168l313 -1151h5l319 1151h-178v93h450v-93h-176l-379 -1312h-90l-366 1335h-4l-344 -1335h-95l-393 1312h-174z" />
    <glyph glyph-name="X" unicode="X" horiz-adv-x="1343" 
d="M29 0v92h192l383 608l-383 598h-192v93h489v-93h-166l310 -491l313 491h-172v93h467v-93h-185l-364 -579l399 -627h197v-92h-514v92h186l-327 520l-326 -520h182v-92h-489z" />
    <glyph glyph-name="Y" unicode="Y" horiz-adv-x="1236" 
d="M375 0v92h192v535l-426 671h-180v93h496v-93h-183l361 -571l362 571h-180v93h459v-93h-168l-426 -671v-535h199v-92h-506z" />
    <glyph glyph-name="Z" unicode="Z" 
d="M55 0v92l852 1206h-714v-245h-93v338h944v-93l-851 -1206h780v266h94v-358h-1012z" />
    <glyph glyph-name="bracketleft" unicode="[" horiz-adv-x="704" 
d="M346 1298v-1617h326v-93h-432v1803h432v-93h-326z" />
    <glyph glyph-name="backslash" unicode="\" horiz-adv-x="575" 
d="M96 1391l479 -1420h-96l-479 1420h96z" />
    <glyph glyph-name="bracketright" unicode="]" horiz-adv-x="704" 
d="M358 1298h-325v93h432v-1803h-432v93h325v1617z" />
    <glyph glyph-name="asciicircum" unicode="^" horiz-adv-x="1343" 
d="M672 1413l448 -536l-65 -56l-383 461l-385 -461l-62 56z" />
    <glyph glyph-name="underscore" unicode="_" horiz-adv-x="1024" 
d="M-12 -154h1048v-102h-1048v102z" />
    <glyph glyph-name="grave" unicode="`" horiz-adv-x="681" 
d="M414 1098l-244 317h117l205 -317h-78z" />
    <glyph glyph-name="a" unicode="a" horiz-adv-x="1044" 
d="M485 492q-123 0 -197 -62t-75 -156q0 -94 60 -150q61 -56 149 -56t182 46t154 115v177q-150 86 -273 86zM758 0v139q-180 -154 -359 -153q-123 0 -209 84t-86 208t102 209q102 84 250 84t302 -79v225q0 203 -258 203q-221 0 -299 -166l-80 20q57 117 148 169t255 52
q164 -1 252 -73t88 -201v-629h160v-92h-266z" />
    <glyph glyph-name="b" unicode="b" horiz-adv-x="1259" 
d="M309 490q-1 -182 105 -300t273 -116q167 0 271 119t104 303t-102 298q-104 114 -268 114t-274 -118t-109 -300zM29 0v92h176v1206h-176v93h282v-617h4q127 221 383 221q207 0 340 -139t133 -359q0 -219 -135 -365t-344 -146q-242 0 -377 202h-4v-188h-282z" />
    <glyph glyph-name="c" unicode="c" horiz-adv-x="1044" 
d="M563 -29q-211 -1 -345 141t-134 361t133 365t334 145q201 0 305 -141h4v127h88v-369h-88q0 129 -90 208t-217 79q-160 0 -260 -113t-100 -296t102 -297t266 -113q234 0 336 231l86 -37q-53 -137 -165 -214t-255 -77z" />
    <glyph glyph-name="d" unicode="d" horiz-adv-x="1216" 
d="M548 907q-160 0 -266 -121q-108 -121 -108 -298q0 -178 108 -296t272 -118t270 116t106 296q0 179 -111 300t-271 121zM1210 0h-282v188h-4q-133 -203 -373 -202q-207 0 -342 142t-135 359t135 363t336 145q121 0 220 -57t159 -164h4v524h-189v93h295v-1299h176v-92z" />
    <glyph glyph-name="e" unicode="e" 
d="M568 905q-151 0 -250 -94t-128 -258h758q-27 168 -128 260t-252 92zM188 461q0 -168 119 -286t289 -118q231 0 379 211l84 -39q-72 -121 -199 -189t-276 -69q-218 1 -360 145t-142 368t138 368t353 143q215 0 349 -146t137 -388h-871z" />
    <glyph glyph-name="f" unicode="f" horiz-adv-x="512" 
d="M47 0v92h150v785h-150v92h150v178q0 133 73 200q74 67 163 67t149 -53q60 -52 82 -142l-97 -15q-20 61 -52 89t-89 28t-90 -42t-33 -114v-196h191v-92h-191v-785h191v-92h-447z" />
    <glyph glyph-name="g" unicode="g" horiz-adv-x="1216" 
d="M188 479q0 -176 106 -290q106 -113 269 -113q164 0 274 117q109 117 109 289t-111 291q-112 118 -272 118q-159 0 -267 -118t-108 -294zM944 -35v238h-4q-54 -101 -156 -159t-227 -58q-205 0 -341 140t-136 351t140 359t341 147q246 0 379 -221h4v207h287v-92h-180v-902
q-1 -119 -49 -209q-82 -151 -280 -203q-79 -22 -157 -22q-240 0 -377 137l70 70q129 -111 317 -110q129 0 239 65q58 35 94 103t36 159z" />
    <glyph glyph-name="h" unicode="h" horiz-adv-x="1110" 
d="M27 0v92h176v1206h-176v93h282v-553q182 158 367 157q116 -1 190 -65t74 -191v-647h158v-92h-436v92h172v625q0 182 -170 182q-78 0 -176 -46t-179 -122v-639h160v-92h-442z" />
    <glyph glyph-name="i" unicode="i" horiz-adv-x="512" 
d="M326 1331q0 -33 -26 -59t-58 -25t-58 25q-24 24 -24 58t24 59q25 25 59 25q35 0 59 -26q24 -24 24 -57zM49 0v92h170v785h-170v92h277v-877h166v-92h-443z" />
    <glyph glyph-name="j" unicode="j" horiz-adv-x="491" 
d="M247 1413q35 -1 59 -25t24 -57t-26 -59t-58 -25q-32 0 -58 25q-24 24 -24 58t24 59q25 24 59 24zM223 877h-178v92h285v-1086q0 -180 -112 -250t-300 -47v92q160 -18 233 31t72 205v963z" />
    <glyph glyph-name="k" unicode="k" horiz-adv-x="1067" 
d="M27 0v92h178v1206h-178v93h284v-877l510 358v5h-147v92h403v-92h-125l-510 -363l484 -422h170v-92h-211l-574 500v-408h178v-92h-462z" />
    <glyph glyph-name="l" unicode="l" horiz-adv-x="491" 
d="M18 0v92h175v1206h-177v93h283v-1299h174v-92h-455z" />
    <glyph glyph-name="m" unicode="m" horiz-adv-x="1728" 
d="M31 0v92h170v785h-170v92h276v-150q176 164 363 164q94 0 157 -45t88 -127q188 172 377 172q119 0 186 -67t66 -195v-629h156v-92h-428v92h166v619q0 176 -160 176q-176 0 -352 -176v-619h159v-92h-432v92h166v619q0 176 -155 176q-86 0 -167 -40t-190 -136v-619h160v-92
h-436z" />
    <glyph glyph-name="n" unicode="n" horiz-adv-x="1087" 
d="M14 0v92h179v785h-179v92h285v-150q197 164 365 164q118 0 190 -68t72 -184v-639h155v-92h-434v92h172v610q0 184 -162 185q-80 0 -177 -47t-181 -127v-621h158v-92h-443z" />
    <glyph glyph-name="o" unicode="o" 
d="M193 483q0 -180 105 -298q105 -117 267 -117t269 117q106 118 106 298t-106 298t-268 118t-268 -118q-105 -118 -105 -298zM84 483q0 219 138 365t344 147q206 0 344 -147q138 -146 138 -364t-138 -365t-344 -147t-344 146t-138 365z" />
    <glyph glyph-name="p" unicode="p" horiz-adv-x="1216" 
d="M648 891q-166 0 -270 -115t-104 -296t106 -297q106 -115 274 -115q167 0 272 114q104 115 104 297t-108 297q-109 115 -274 115zM172 -342v1219h-164v92h271v-205h4q55 102 155 160t221 59q201 0 336 -143q135 -144 135 -364t-133 -362t-344 -143q-260 0 -370 222h-4
v-535h176v-92h-459v92h176z" />
    <glyph glyph-name="q" unicode="q" horiz-adv-x="1216" 
d="M940 481q0 180 -103 295t-269 115t-274 -116t-108 -298t104 -296q104 -113 271 -113q166 0 273 116q106 117 106 297zM1042 -342h179v-92h-459v92h174v535h-4q-109 -221 -369 -222q-211 1 -344 143t-133 361t134 363t337 145q119 0 218 -57t157 -158h4v201h285v-92h-179
v-1219z" />
    <glyph glyph-name="r" unicode="r" horiz-adv-x="811" 
d="M45 0v92h184v785h-184v92h291v-238h4q51 131 167 197t277 55v-102q-269 4 -363 -102q-49 -54 -67 -121t-18 -164v-402h199v-92h-490z" />
    <glyph glyph-name="s" unicode="s" horiz-adv-x="917" 
d="M78 0v336h94q0 -121 83 -195q83 -73 210 -73t203 54t76 136t-64 123q-62 41 -152 57t-180 36t-153 78q-63 60 -63 170t86 186q87 76 216 75q172 0 266 -127h5v113h90v-318h-90q-4 106 -79 175q-76 69 -184 69t-161 -55q-53 -56 -53 -120t44 -102q45 -38 114 -51
q170 -30 295 -70q69 -22 114 -80t45 -149q0 -129 -100 -206t-269 -76q-205 0 -295 135h-4v-121h-94z" />
    <glyph glyph-name="t" unicode="t" horiz-adv-x="532" 
d="M178 877h-172v92h172v217l107 84v-301h202v-92h-202v-676q0 -47 6 -72q14 -59 87 -55q40 2 109 18v-92q-139 -45 -224 -6t-85 162v721z" />
    <glyph glyph-name="u" unicode="u" horiz-adv-x="1110" 
d="M821 0v139q-178 -154 -381 -153q-112 0 -178 66t-65 173v652h-170v92h276v-717q0 -170 158 -170q86 0 183 47t177 129v619h-170v92h277v-877h166v-92h-273z" />
    <glyph glyph-name="v" unicode="v" horiz-adv-x="1067" 
d="M-4 877v92h401v-92h-133l195 -523q61 -166 84 -262h4q35 125 63 205l213 580h-135v92h383v-92h-147l-328 -891h-98l-342 891h-160z" />
    <glyph glyph-name="w" unicode="w" horiz-adv-x="1536" 
d="M6 877v92h340v-92h-113l154 -502q57 -188 70 -266h4q23 129 67 266l160 502h-113v92h367v-92h-108l137 -437q61 -201 84 -340h4q4 76 80 310l155 467h-127v92h363v-92h-133l-289 -891h-98l-250 841h-4l-242 -841h-104l-277 891h-127z" />
    <glyph glyph-name="x" unicode="x" horiz-adv-x="1087" 
d="M37 0v92h131l311 408l-301 377h-125v92h361v-92h-115l240 -302l235 302h-104v92h356v-92h-131l-295 -377l330 -408h123v-92h-361v92h119l-272 334l-252 -334h127v-92h-377z" />
    <glyph glyph-name="y" unicode="y" horiz-adv-x="1087" 
d="M4 877v92h422v-92h-158l295 -721l273 721h-154v92h403v-92h-147l-496 -1311h-270v92h205l135 369l-348 850h-160z" />
    <glyph glyph-name="z" unicode="z" horiz-adv-x="980" 
d="M92 0v92l682 785h-549v-252h-84v344h750v-92l-682 -785h596v262h86v-354h-799z" />
    <glyph glyph-name="braceleft" unicode="{" horiz-adv-x="681" 
d="M98 545q98 0 146 80q47 80 47 213v245q0 168 84 244t209 66v-111q-80 -2 -114 -19t-50 -73t-17 -178v-142q0 -158 -45 -252t-151 -139q106 -45 151 -139t45 -252v-141q1 -123 17 -178t50 -73t114 -20v-110q-125 -10 -209 66t-84 243v246q0 133 -47 213t-146 80v131z" />
    <glyph glyph-name="bar" unicode="|" horiz-adv-x="1015" 
d="M455 1391h106v-1850h-106v1850z" />
    <glyph glyph-name="braceright" unicode="}" horiz-adv-x="681" 
d="M584 545v-131q-98 0 -146 -80t-47 -213v-246q0 -168 -84 -244t-209 -65v110q80 2 114 20t50 72q16 56 17 179v141q0 158 45 252t151 139q-106 45 -151 139t-45 252v142q0 216 -67 251q-34 17 -114 19v111q125 10 209 -66t84 -244v-245q-1 -133 47 -213t146 -80z" />
    <glyph glyph-name="asciitilde" unicode="~" horiz-adv-x="1343" 
d="M922 670q62 0 120 28q59 28 168 103v-111q-170 -121 -268 -121t-272 79t-242 79q-68 1 -126 -25q-56 -26 -167 -106v111q166 121 287 120q82 -1 260 -79t240 -78z" />
    <glyph glyph-name="uni00A0" unicode="&#xa0;" horiz-adv-x="512" 
 />
    <glyph glyph-name="exclamdown" unicode="&#xa1;" horiz-adv-x="512" 
d="M203 -422v434l24 588h58l24 -588v-434h-106zM199 778v191h114v-191h-114z" />
    <glyph glyph-name="cent" unicode="&#xa2;" horiz-adv-x="1044" 
d="M414 96l200 785q-202 25 -312 -99t-109 -299q1 -131 63 -239t158 -148zM84 473q0 247 170 399t383 97l102 401h68l-107 -416q100 -35 156 -112h4v127h88v-369h-88q-8 193 -182 264l-205 -788q303 -51 424 223l86 -37q-59 -152 -201 -234t-331 -44l-107 -418h-70l113 434
q-137 49 -220 178t-83 295z" />
    <glyph glyph-name="sterling" unicode="&#xa3;" horiz-adv-x="1067" 
d="M164 160q0 -45 30 -75t74 -30q99 0 160 150q-60 65 -126 65t-102 -32t-36 -78zM111 641v92h245q-106 227 -106 367t95 226q95 87 253 87t249 -87t95 -249h-100q-4 119 -69 185t-175 66t-177 -62q-67 -61 -67 -167t107 -366h268v-92h-237q74 -197 26 -410q74 -63 108 -91
q90 -74 165 -73q77 1 113 58t38 182h84q2 -153 -61 -239t-170 -86q-135 0 -303 168q-78 -168 -222 -168q-80 0 -131 51t-51 129t55 130t137 52t166 -57q33 129 -59 354h-276z" />
    <glyph glyph-name="currency" unicode="&#xa4;" horiz-adv-x="1366" 
d="M682 1044q-144 0 -244 -100t-100 -244t100 -244q100 -102 244 -102t244 102q102 102 102 244q0 143 -101 244q-102 100 -245 100zM1124 698q0 -57 -24 -137t-74 -141l129 -127l-63 -66l-131 127q-127 -96 -277 -96t-278 96l-127 -127l-66 66l125 127q-96 131 -96 276
t96 279l-125 129l66 67l127 -131q290 200 555 0l131 131l63 -67l-129 -129q98 -121 98 -277z" />
    <glyph glyph-name="yen" unicode="&#xa5;" 
d="M686 965h-219l108 -238zM672 1298v93h458v-93h-167l-117 -241h284v-92h-333l-117 -246h450v-92h-507v-535h198v-92h-506v92h193v535h-508v92h449l-113 246h-336v92h301l-121 241h-180v93h496v-93h-183l119 -241h301l119 241h-180z" />
    <glyph glyph-name="brokenbar" unicode="&#xa6;" horiz-adv-x="1015" 
d="M455 645v746h106v-746h-106zM455 -459v748h106v-748h-106z" />
    <glyph glyph-name="section" unicode="&#xa7;" horiz-adv-x="897" 
d="M764 428q0 118 -79 173t-210 108t-199 88q-145 -96 -145 -226t119 -209q72 -47 196 -100q125 -53 168 -78q150 100 150 244zM209 -80q0 -118 74 -192q73 -74 189 -74t188 68t71 154q0 152 -181 234q-252 111 -333 154q-80 43 -132 117t-52 162q0 87 40 155t136 146
q-135 96 -135 260q0 133 99 221t249 88q86 0 163 -28q77 -29 141 -109t69 -205h-97q-6 125 -85 191t-191 66t-180 -63q-70 -61 -70 -149t51 -149t128 -97t166 -76t166 -79t128 -110t51 -160t-48 -170t-130 -134q139 -83 139 -241t-97 -246t-256 -88t-261 99t-100 255h100z
" />
    <glyph glyph-name="dieresis" unicode="&#xa8;" horiz-adv-x="681" 
d="M164 1323q29 0 49 -20q20 -19 20 -49t-20 -50t-49 -20t-49 20t-21 49q0 29 20 49t50 21zM518 1323q29 0 49 -20q21 -19 21 -49t-20 -50t-50 -20q-29 0 -49 20t-20 49t20 49t49 21z" />
    <glyph glyph-name="copyright" unicode="&#xa9;" horiz-adv-x="1642" 
d="M819 59q276 0 472 196t196 472t-196 472t-472 196t-472 -196q-195 -196 -195 -472t196 -472t471 -196zM821 1491q317 0 541 -223q224 -222 223 -540q0 -318 -223 -542q-222 -224 -540 -223q-318 0 -541 223q-223 222 -223 540t222 542q224 224 541 223zM831 1061
q-125 0 -203 -89t-77 -240q0 -151 75 -251t195 -100q180 0 250 205l90 -33q-39 -141 -135 -201t-201 -61q-167 0 -275 127t-108 300t102 299t287 126q209 0 322 -219l-96 -29q-72 166 -226 166z" />
    <glyph glyph-name="ordfeminine" unicode="&#xaa;" horiz-adv-x="681" 
d="M327 1110q-81 0 -130 -38t-49 -94t38 -89t96 -33t120 28t100 68v107q-94 51 -175 51zM502 815v84q-122 -92 -218 -92t-151 50t-55 126t65 126q66 50 163 50t196 -49v127q0 129 -168 129q-143 0 -195 -98l-53 12q74 133 250 133q123 0 179 -44t56 -140v-359h103v-55h-172z
" />
    <glyph glyph-name="guillemotleft" unicode="&#xab;" horiz-adv-x="960" 
d="M180 489l312 -489h-113l-313 489l313 490h113zM616 489l312 -489h-113l-313 489l313 490h113z" />
    <glyph glyph-name="logicalnot" unicode="&#xac;" horiz-adv-x="1366" 
d="M145 948h1076v-579h-93v487h-983v92z" />
    <glyph glyph-name="uni00AD" unicode="&#xad;" horiz-adv-x="704" 
d="M70 438v92h563v-92h-563z" />
    <glyph glyph-name="registered" unicode="&#xae;" horiz-adv-x="1642" 
d="M819 59q276 0 472 196t196 472t-196 472t-472 196t-472 -196q-195 -196 -195 -472t196 -472t471 -196zM821 1491q317 0 541 -223q224 -222 223 -540q0 -318 -223 -542q-222 -224 -540 -223q-318 0 -541 223q-223 222 -223 540t222 542q224 224 541 223zM618 750h134
q139 0 198 34q60 34 60 114q0 81 -52 111t-192 29h-148v-288zM512 1120h338q129 0 202 -57q72 -57 72 -153t-66 -162q-66 -64 -173 -66v-4q90 -33 133 -91t135 -270h-121q-98 227 -162 287t-206 62h-46v-349h-106v803z" />
    <glyph glyph-name="macron" unicode="&#xaf;" horiz-adv-x="681" 
d="M12 1229v59h658v-59h-658z" />
    <glyph glyph-name="degree" unicode="&#xb0;" horiz-adv-x="811" 
d="M612 1113q0 77 -55 147t-147 71q-92 0 -152 -62q-60 -61 -59 -143q0 -82 58 -145q59 -63 145 -63t148 59t62 136zM406 1413q120 0 204 -84t84 -205q0 -120 -85 -204t-203 -84t-204 84q-85 84 -85 204t85 205q85 84 204 84z" />
    <glyph glyph-name="plusminus" unicode="&#xb1;" horiz-adv-x="1366" 
d="M729 862h492v-92h-492v-491h-92v491h-492v92h492v492h92v-492zM145 55h1076v-92h-1076v92z" />
    <glyph glyph-name="two.superior" unicode="&#xb2;" horiz-adv-x="661" 
d="M51 680q0 202 220 341q61 38 101 58q40 21 70 57t29 91q0 55 -42 92t-118 37t-121 -50t-38 -145h-80q-14 115 58 184t184 69t175 -54q63 -53 63 -138t-45 -130q-46 -44 -135 -92q-206 -110 -235 -259h344l6 172h78l-8 -233h-506z" />
    <glyph glyph-name="three.superior" unicode="&#xb3;" horiz-adv-x="661" 
d="M336 729q84 0 135 42t51 114q0 73 -66 115t-184 26v59q92 -10 148 32q55 41 55 103t-41 99q-42 37 -108 37t-104 -39t-36 -109h-84q2 92 62 148t162 57q102 0 168 -54t65 -138q0 -111 -108 -158q156 -49 155 -182q0 -91 -78 -151t-196 -60t-196 66q-77 66 -81 175h80
q25 -182 201 -182z" />
    <glyph glyph-name="acute" unicode="&#xb4;" horiz-adv-x="681" 
d="M268 1098h-78l205 317h117z" />
    <glyph glyph-name="mu" unicode="&#xb5;" 
d="M213 969h100v-490q0 -211 76 -304t184 -93q258 0 258 407v480h101v-969h-101v119h-4q-102 -143 -258 -144q-78 0 -136 33t-116 111h-4v-553h-100v1403z" />
    <glyph glyph-name="paragraph" unicode="&#xb6;" horiz-adv-x="1323" 
d="M1266 1391v-138h-195v-1687h-129v1687h-266v-1687h-131v979q-213 0 -331 125t-118 309t130 298t349 114h691z" />
    <glyph glyph-name="periodcentered" unicode="&#xb7;" horiz-adv-x="598" 
d="M242 588v190h114v-190h-114z" />
    <glyph glyph-name="cedilla" unicode="&#xb8;" horiz-adv-x="681" 
d="M387 -258q0 80 -127 94l29 150h65l-14 -74q70 -8 110 -50t39 -108q0 -197 -342 -188v65q98 -8 169 18t71 93z" />
    <glyph glyph-name="one.superior" unicode="&#xb9;" horiz-adv-x="661" 
d="M172 680v59h115v602h-115v60h203v-662h114v-59h-317z" />
    <glyph glyph-name="ordmasculine" unicode="&#xba;" horiz-adv-x="724" 
d="M121 1106q1 -110 69 -180t174 -70t174 71t68 179t-68 180q-68 70 -174 70q-105 0 -174 -70t-69 -180zM49 1106q0 131 90 219t223 88q134 0 224 -88t90 -219t-89 -219t-223 -88t-225 88q-90 88 -90 219z" />
    <glyph glyph-name="guillemotright" unicode="&#xbb;" horiz-adv-x="960" 
d="M344 489l-311 490h112l314 -490l-314 -489h-112zM780 489l-311 490h113l313 -490l-313 -489h-113z" />
    <glyph glyph-name="onequarter" unicode="&#xbc;" horiz-adv-x="1728" 
d="M174 680v59h115v602h-115v60h203v-662h115v-59h-318zM1237 262v350h-4l-256 -350h260zM256 0l979 1391h72l-979 -1391h-72zM1147 0v55h90v154h-313q-8 31 -33 45l346 473h80v-465h133v-53h-133v-154h72v-55h-242z" />
    <glyph glyph-name="onehalf" unicode="&#xbd;" horiz-adv-x="1728" 
d="M1020 0q0 239 320 399q100 50 100 148q0 55 -42 92t-118 37t-121 -50t-39 -145h-80q-14 115 59 184t185 69t174 -54q64 -53 64 -138t-46 -130q-46 -44 -136 -92q-205 -109 -234 -259h344l6 172h78l-8 -233h-506zM256 0l979 1391h72l-979 -1391h-72zM172 680v59h115v602
h-115v60h203v-662h114v-59h-317z" />
    <glyph glyph-name="threequarters" unicode="&#xbe;" horiz-adv-x="1728" 
d="M410 729q84 0 135 42t51 114q0 73 -66 115t-184 26v59q92 -10 148 32q55 41 55 103t-41 99t-108 37q-66 0 -104 -39t-36 -109h-84q2 92 62 148t162 57q101 0 167 -54t66 -138q0 -111 -109 -158q156 -49 156 -182q0 -91 -78 -151t-196 -60t-196 66q-77 66 -81 175h80
q25 -182 201 -182zM1391 262v350h-5l-256 -350h261zM410 0l979 1391h71l-979 -1391h-71zM1300 0v55h91v154h-314q-8 31 -33 45l347 473h79v-465h134v-53h-134v-154h72v-55h-242z" />
    <glyph glyph-name="questiondown" unicode="&#xbf;" horiz-adv-x="917" 
d="M453 778v191h114v-191h-114zM188 -86q0 -106 82 -186t209 -80t204 79t77 207h96q0 -168 -104 -273t-274 -105t-282 108q-110 108 -110 262t96 264t275 105l24 297h49l37 -393l-14 -6q-120 28 -242 -30q-123 -58 -123 -249z" />
    <glyph glyph-name="Agrave" unicode="&#xc0;" horiz-adv-x="1343" 
d="M745 1513l-243 318h116l205 -318h-78zM424 621h498l-242 704h-14zM373 1298v93h598v-93h-174l424 -1206h172v-92h-461v92h174l-154 436h-561l-149 -436h182v-92h-471v92h176l418 1206h-174z" />
    <glyph glyph-name="Aacute" unicode="&#xc1;" horiz-adv-x="1343" 
d="M600 1513h-78l205 318h117zM424 621h498l-242 704h-14zM373 1298v93h598v-93h-174l424 -1206h172v-92h-461v92h174l-154 436h-561l-149 -436h182v-92h-471v92h176l418 1206h-174z" />
    <glyph glyph-name="Acircumflex" unicode="&#xc2;" horiz-adv-x="1343" 
d="M371 1522l241 297h103l260 -297h-76l-235 207l-222 -207h-71zM424 621h498l-242 704h-14zM373 1298v93h598v-93h-174l424 -1206h172v-92h-461v92h174l-154 436h-561l-149 -436h182v-92h-471v92h176l418 1206h-174z" />
    <glyph glyph-name="Atilde" unicode="&#xc3;" horiz-adv-x="1343" 
d="M522 1761q56 0 154 -49t153 -49q78 0 121 96h54q-20 -82 -72 -130t-112 -48q-62 0 -160 49t-144 49q-82 0 -119 -98h-55q57 180 180 180zM424 621h498l-242 704h-14zM373 1298v93h598v-93h-174l424 -1206h172v-92h-461v92h174l-154 436h-561l-149 -436h182v-92h-471v92
h176l418 1206h-174z" />
    <glyph glyph-name="Adieresis" unicode="&#xc4;" horiz-adv-x="1343" 
d="M496 1739q29 -1 49 -21t20 -49t-20 -49t-49 -20q-30 0 -50 20t-20 49t20 49t50 21zM850 1739q29 -1 49 -21q21 -20 21 -49t-20 -49t-50 -20q-29 0 -49 20t-21 49q0 29 20 49t50 21zM424 621h498l-242 704h-14zM373 1298v93h598v-93h-174l424 -1206h172v-92h-461v92h174
l-154 436h-561l-149 -436h182v-92h-471v92h176l418 1206h-174z" />
    <glyph glyph-name="Aring" unicode="&#xc5;" horiz-adv-x="1343" 
d="M672 1794q-53 0 -89 -37t-36 -89t37 -89t89 -37t89 38t37 89t-37 88t-90 37zM672 1855q78 0 133 -54t55 -132t-55 -133t-133 -55t-132 55t-55 133q1 78 55 132t132 54zM424 621h498l-242 704h-14zM373 1298v93h598v-93h-174l424 -1206h172v-92h-461v92h174l-154 436h-561
l-149 -436h182v-92h-471v92h176l418 1206h-174z" />
    <glyph glyph-name="AE" unicode="&#xc6;" horiz-adv-x="1921" 
d="M889 760v538h-88l-297 -538h385zM-125 0v92h148l663 1206h-229v93h1372v-338h-94v245h-731v-538h583v-92h-583v-576h731v250h94v-342h-1172v92h232v576h-432l-320 -576h162v-92h-424z" />
    <glyph glyph-name="Ccedilla" unicode="&#xc7;" horiz-adv-x="1536" 
d="M127 692q0 336 199 529t481 192q158 -1 294 -65t222 -179h4v222h94v-445h-96q-29 170 -180 268q-152 98 -330 99q-252 0 -413 -172q-160 -173 -160 -443t164 -444t417 -174q399 0 555 428l90 -51q-70 -229 -238 -354q-169 -124 -411 -123q-41 0 -59 2l-10 -50
q70 -8 110 -50t39 -107q0 -101 -92 -147t-250 -42v66q98 -8 169 18t71 92q0 81 -127 95l24 133q-258 39 -412 229t-155 473z" />
    <glyph glyph-name="Egrave" unicode="&#xc8;" horiz-adv-x="1236" 
d="M692 1513l-243 318h116l205 -318h-78zM31 0v92h178v1206h-178v93h1114v-338h-94v245h-727v-540h577v-92h-577v-574h727v250h94v-342h-1114z" />
    <glyph glyph-name="Eacute" unicode="&#xc9;" horiz-adv-x="1236" 
d="M547 1513h-78l205 318h117zM31 0v92h178v1206h-178v93h1114v-338h-94v245h-727v-540h577v-92h-577v-574h727v250h94v-342h-1114z" />
    <glyph glyph-name="Ecircumflex" unicode="&#xca;" horiz-adv-x="1236" 
d="M317 1522l242 297h103l260 -297h-76l-236 207l-221 -207h-72zM31 0v92h178v1206h-178v93h1114v-338h-94v245h-727v-540h577v-92h-577v-574h727v250h94v-342h-1114z" />
    <glyph glyph-name="Edieresis" unicode="&#xcb;" horiz-adv-x="1236" 
d="M442 1739q30 -1 50 -21t20 -49t-20 -49t-50 -20t-49 20q-20 20 -20 49t20 49t49 21zM797 1739q29 -1 49 -21t20 -49t-20 -49t-49 -20t-49 20t-21 49q1 29 21 49t49 21zM31 0v92h178v1206h-178v93h1114v-338h-94v245h-727v-540h577v-92h-577v-574h727v250h94v-342h-1114z
" />
    <glyph glyph-name="Igrave" unicode="&#xcc;" horiz-adv-x="575" 
d="M360 1513l-243 318h116l205 -318h-78zM55 0v92h174v1206h-174v93h465v-93h-176v-1206h176v-92h-465z" />
    <glyph glyph-name="Iacute" unicode="&#xcd;" horiz-adv-x="575" 
d="M215 1513h-78l205 318h117zM55 0v92h174v1206h-174v93h465v-93h-176v-1206h176v-92h-465z" />
    <glyph glyph-name="Icircumflex" unicode="&#xce;" horiz-adv-x="575" 
d="M-14 1522l241 297h103l260 -297h-76l-235 207l-222 -207h-71zM55 0v92h174v1206h-174v93h465v-93h-176v-1206h176v-92h-465z" />
    <glyph glyph-name="Idieresis" unicode="&#xcf;" horiz-adv-x="575" 
d="M111 1739q29 -1 49 -21t20 -49t-20 -49t-49 -20t-49 20t-21 49q1 29 21 49t49 21zM465 1739q29 -1 49 -21t20 -49t-20 -49t-49 -20t-49 20t-21 49q1 29 21 49t49 21zM55 0v92h174v1206h-174v93h465v-93h-176v-1206h176v-92h-465z" />
    <glyph glyph-name="Eth" unicode="&#xd0;" horiz-adv-x="1449" 
d="M326 92h262q338 0 494 156t155 444q0 288 -158 447q-90 90 -209 125t-286 34h-258v-555h426v-92h-426v-559zM18 0v92h193v559h-193v92h193v555h-193v93h553q201 0 343 -39t243 -140q195 -195 195 -519t-205 -529q-88 -88 -222 -126t-341 -38h-566z" />
    <glyph glyph-name="Ntilde" unicode="&#xd1;" horiz-adv-x="1449" 
d="M575 1761q55 0 153 -49t155 -49q78 0 121 96h53q-19 -82 -71 -130t-114 -48t-159 49q-98 49 -144 49q-81 0 -118 -98h-56q57 180 180 180zM20 0v92h187v1206h-187v93h328l799 -1227h4v1134h-195v93h474v-93h-183v-1316h-106l-834 1278h-4v-1168h197v-92h-480z" />
    <glyph glyph-name="Ograve" unicode="&#xd2;" horiz-adv-x="1599" 
d="M872 1513l-243 318h116l205 -318h-78zM217 696q0 -268 165 -442t419 -174t419 174t164 442q0 268 -164 443q-165 174 -419 174q-254 -1 -419 -175t-165 -442zM102 693q0 314 197 517t501 203t502 -203t198 -513t-196 -514q-196 -203 -500 -203t-503 200t-199 513z" />
    <glyph glyph-name="Oacute" unicode="&#xd3;" horiz-adv-x="1599" 
d="M727 1513h-78l205 318h117zM217 696q0 -268 165 -442t419 -174t419 174t164 442q0 268 -164 443q-165 174 -419 174q-254 -1 -419 -175t-165 -442zM102 693q0 314 197 517t501 203t502 -203t198 -513t-196 -514q-196 -203 -500 -203t-503 200t-199 513z" />
    <glyph glyph-name="Ocircumflex" unicode="&#xd4;" horiz-adv-x="1599" 
d="M498 1522l241 297h103l260 -297h-76l-235 207l-222 -207h-71zM217 696q0 -268 165 -442t419 -174t419 174t164 442q0 268 -164 443q-165 174 -419 174q-254 -1 -419 -175t-165 -442zM102 693q0 314 197 517t501 203t502 -203t198 -513t-196 -514q-196 -203 -500 -203
t-503 200t-199 513z" />
    <glyph glyph-name="Otilde" unicode="&#xd5;" horiz-adv-x="1599" 
d="M649 1761q55 0 153 -49t154 -49q78 0 121 96h53q-20 -82 -71 -130t-113 -48t-160 49t-143 49q-82 0 -119 -98h-55q57 180 180 180zM217 696q0 -268 165 -442t419 -174t419 174t164 442q0 268 -164 443q-165 174 -419 174q-254 -1 -419 -175t-165 -442zM102 693
q0 314 197 517t501 203t502 -203t198 -513t-196 -514q-196 -203 -500 -203t-503 200t-199 513z" />
    <glyph glyph-name="Odieresis" unicode="&#xd6;" horiz-adv-x="1599" 
d="M623 1739q29 -1 49 -21t20 -49t-20 -49t-49 -20t-49 20t-21 49q1 29 21 49t49 21zM977 1739q29 -1 49 -21t20 -49t-20 -49t-49 -20t-49 20t-21 49q1 29 21 49t49 21zM217 696q0 -268 165 -442t419 -174t419 174t164 442q0 268 -164 443q-165 174 -419 174
q-254 -1 -419 -175t-165 -442zM102 693q0 314 197 517t501 203t502 -203t198 -513t-196 -514q-196 -203 -500 -203t-503 200t-199 513z" />
    <glyph glyph-name="multiply" unicode="&#xd7;" horiz-adv-x="1368" 
d="M684 592l-424 -422l-65 66l421 421l-421 422l65 66l422 -424l424 424l65 -66l-421 -422l421 -421l-65 -66z" />
    <glyph glyph-name="Oslash" unicode="&#xd8;" horiz-adv-x="1599" 
d="M793 80q153 0 273 59q205 101 286 356q33 103 32 205q1 264 -151 428l-805 -915q147 -133 365 -133zM807 1313q-262 0 -426 -174t-164 -451q0 -128 36 -228t122 -198l805 916q-98 76 -180 106t-193 29zM1499 700q0 -276 -168 -489q-82 -103 -220 -167t-301 -64t-260 34
t-194 117l-127 -141l-53 45l127 145q-201 207 -201 500t172 505q84 103 220 165t290 63q154 0 253 -34t214 -122l127 146l54 -47l-132 -148q199 -193 199 -508z" />
    <glyph glyph-name="Ugrave" unicode="&#xd9;" horiz-adv-x="1323" 
d="M735 1513l-243 318h116l205 -318h-78zM184 1298h-178v93h469v-93h-176v-892q0 -162 94 -244t262 -82q367 0 367 321v897h-176v93h469v-93h-178v-892q0 -106 -35 -186t-84 -125q-49 -43 -117 -71q-168 -68 -373 -32q-240 42 -316 242q-28 75 -28 172v892z" />
    <glyph glyph-name="Uacute" unicode="&#xda;" horiz-adv-x="1323" 
d="M590 1513h-78l205 318h117zM184 1298h-178v93h469v-93h-176v-892q0 -162 94 -244t262 -82q367 0 367 321v897h-176v93h469v-93h-178v-892q0 -106 -35 -186t-84 -125q-49 -43 -117 -71q-168 -68 -373 -32q-240 42 -316 242q-28 75 -28 172v892z" />
    <glyph glyph-name="Ucircumflex" unicode="&#xdb;" horiz-adv-x="1323" 
d="M360 1522l242 297h103l260 -297h-76l-236 207l-221 -207h-72zM184 1298h-178v93h469v-93h-176v-892q0 -162 94 -244t262 -82q367 0 367 321v897h-176v93h469v-93h-178v-892q0 -106 -35 -186t-84 -125q-49 -43 -117 -71q-168 -68 -373 -32q-240 42 -316 242
q-28 75 -28 172v892z" />
    <glyph glyph-name="Udieresis" unicode="&#xdc;" horiz-adv-x="1323" 
d="M485 1739q29 -1 49 -21t21 -49q0 -29 -20 -49q-19 -20 -49 -20t-50 20t-20 49t20 49t49 21zM840 1739q29 -1 49 -21t20 -49t-20 -49t-49 -20t-49 20t-21 49q0 29 20 49t50 21zM184 1298h-178v93h469v-93h-176v-892q0 -162 94 -244t262 -82q367 0 367 321v897h-176v93h469
v-93h-178v-892q0 -106 -35 -186t-84 -125q-49 -43 -117 -71q-168 -68 -373 -32q-240 42 -316 242q-28 75 -28 172v892z" />
    <glyph glyph-name="Yacute" unicode="&#xdd;" horiz-adv-x="1236" 
d="M547 1513h-78l205 318h117zM375 0v92h192v535l-426 671h-180v93h496v-93h-183l361 -571l362 571h-180v93h459v-93h-168l-426 -671v-535h199v-92h-506z" />
    <glyph glyph-name="Thorn" unicode="&#xde;" 
d="M332 1012v-633h262q383 0 383 307q0 166 -90 246t-281 80h-274zM33 0v92h184v1206h-184v93h487v-93h-188v-194h303q229 0 343 -116t114 -290t-113 -292t-336 -119h-311v-195h188v-92h-487z" />
    <glyph glyph-name="germandbls" unicode="&#xdf;" horiz-adv-x="1259" 
d="M983 158q88 86 88 237t-80 251q-92 116 -323 116v82q143 -6 209 66q65 72 65 176q0 103 -85 172t-226 69q-217 0 -288 -142q-30 -60 -30 -149v-944h154v-92h-434v92h174v938q0 176 110 280q111 103 307 103t309 -93q114 -93 114 -245q1 -96 -49 -166t-140 -96v-4
q150 -27 234 -135t84 -280t-110 -290t-282 -118q-66 0 -116 14v92q33 -20 130 -20q96 0 185 86z" />
    <glyph glyph-name="agrave" unicode="&#xe0;" horiz-adv-x="1044" 
d="M596 1098l-244 317h117l205 -317h-78zM485 492q-123 0 -197 -62t-75 -156q0 -94 60 -150q61 -56 149 -56t182 46t154 115v177q-150 86 -273 86zM758 0v139q-180 -154 -359 -153q-123 0 -209 84t-86 208t102 209q102 84 250 84t302 -79v225q0 203 -258 203
q-221 0 -299 -166l-80 20q57 117 148 169t255 52q164 -1 252 -73t88 -201v-629h160v-92h-266z" />
    <glyph glyph-name="aacute" unicode="&#xe1;" horiz-adv-x="1044" 
d="M451 1098h-78l205 317h116zM485 492q-123 0 -197 -62t-75 -156q0 -94 60 -150q61 -56 149 -56t182 46t154 115v177q-150 86 -273 86zM758 0v139q-180 -154 -359 -153q-123 0 -209 84t-86 208t102 209q102 84 250 84t302 -79v225q0 203 -258 203q-221 0 -299 -166l-80 20
q57 117 148 169t255 52q164 -1 252 -73t88 -201v-629h160v-92h-266z" />
    <glyph glyph-name="acircumflex" unicode="&#xe2;" horiz-adv-x="1044" 
d="M221 1106l242 297h102l260 -297h-75l-236 207l-221 -207h-72zM485 492q-123 0 -197 -62t-75 -156q0 -94 60 -150q61 -56 149 -56t182 46t154 115v177q-150 86 -273 86zM758 0v139q-180 -154 -359 -153q-123 0 -209 84t-86 208t102 209q102 84 250 84t302 -79v225
q0 203 -258 203q-221 0 -299 -166l-80 20q57 117 148 169t255 52q164 -1 252 -73t88 -201v-629h160v-92h-266z" />
    <glyph glyph-name="atilde" unicode="&#xe3;" horiz-adv-x="1044" 
d="M680 1247q78 0 121 96h53q-20 -82 -72 -130t-112 -48q-62 0 -160 49t-143 50q-82 -1 -119 -99h-55q57 180 180 181q55 0 153 -50t154 -49zM485 492q-123 0 -197 -62t-75 -156q0 -94 60 -150q61 -56 149 -56t182 46t154 115v177q-150 86 -273 86zM758 0v139
q-180 -154 -359 -153q-123 0 -209 84t-86 208t102 209q102 84 250 84t302 -79v225q0 203 -258 203q-221 0 -299 -166l-80 20q57 117 148 169t255 52q164 -1 252 -73t88 -201v-629h160v-92h-266z" />
    <glyph glyph-name="adieresis" unicode="&#xe4;" horiz-adv-x="1044" 
d="M346 1323q29 0 49 -20q21 -19 21 -49t-20 -50t-50 -20q-29 0 -49 20t-21 49q0 29 20 49t50 21zM700 1323q30 0 50 -20q20 -19 20 -49t-20 -50t-50 -20t-49 20q-20 20 -20 49t20 49t49 21zM485 492q-123 0 -197 -62t-75 -156q0 -94 60 -150q61 -56 149 -56t182 46t154 115
v177q-150 86 -273 86zM758 0v139q-180 -154 -359 -153q-123 0 -209 84t-86 208t102 209q102 84 250 84t302 -79v225q0 203 -258 203q-221 0 -299 -166l-80 20q57 117 148 169t255 52q164 -1 252 -73t88 -201v-629h160v-92h-266z" />
    <glyph glyph-name="aring" unicode="&#xe5;" horiz-adv-x="1044" 
d="M523 1378q-52 0 -89 -36t-37 -89t37 -90t88 -37t89 37t38 89t-37 89t-89 37zM522 1440q78 0 133 -54t55 -133q0 -78 -54 -133q-56 -55 -134 -55t-132 55t-54 133q0 79 54 133t132 54zM485 492q-123 0 -197 -62t-75 -156q0 -94 60 -150q61 -56 149 -56t182 46t154 115v177
q-150 86 -273 86zM758 0v139q-180 -154 -359 -153q-123 0 -209 84t-86 208t102 209q102 84 250 84t302 -79v225q0 203 -258 203q-221 0 -299 -166l-80 20q57 117 148 169t255 52q164 -1 252 -73t88 -201v-629h160v-92h-266z" />
    <glyph glyph-name="ae" unicode="&#xe6;" horiz-adv-x="1771" 
d="M468 489q-112 0 -184 -62q-72 -61 -71 -157q0 -96 62 -157t157 -62q168 0 320 162v186q-172 90 -284 90zM1232 905q-140 0 -250 -95t-126 -257h737q-8 154 -114 253q-107 99 -247 99zM1698 461h-852q14 -182 124 -290t279 -108q229 0 381 205l82 -43q-66 -102 -182 -178
t-279 -76q-268 0 -413 222q-199 -221 -412 -222q-137 0 -226 85t-89 216t96 213t250 82t295 -86v232q0 203 -260 202q-207 0 -283 -163l-84 22q41 102 142 162t239 59q289 0 340 -221q139 221 389 221q191 0 327 -139t136 -395z" />
    <glyph glyph-name="ccedilla" unicode="&#xe7;" horiz-adv-x="1044" 
d="M84 485q0 207 133 353t334 145q201 0 305 -141h4v127h88v-369h-88q0 129 -90 208t-217 79q-160 0 -260 -113t-100 -296t102 -297t266 -113q233 0 336 231l86 -37q-53 -137 -165 -214t-255 -77h-26l-13 -59q70 -8 110 -50t40 -108q0 -197 -342 -188v65q98 -8 169 18t70 93
q0 80 -127 94l29 146q-176 29 -283 162q-106 134 -106 341z" />
    <glyph glyph-name="egrave" unicode="&#xe8;" 
d="M639 1098l-244 317h117l205 -317h-78zM568 905q-151 0 -250 -94t-128 -258h758q-27 168 -128 260t-252 92zM188 461q0 -168 119 -286t289 -118q231 0 379 211l84 -39q-72 -121 -199 -189t-276 -69q-218 1 -360 145t-142 368t138 368t353 143q215 0 349 -146t137 -388
h-871z" />
    <glyph glyph-name="eacute" unicode="&#xe9;" 
d="M494 1098h-78l205 317h116zM568 905q-151 0 -250 -94t-128 -258h758q-27 168 -128 260t-252 92zM188 461q0 -168 119 -286t289 -118q231 0 379 211l84 -39q-72 -121 -199 -189t-276 -69q-218 1 -360 145t-142 368t138 368t353 143q215 0 349 -146t137 -388h-871z" />
    <glyph glyph-name="ecircumflex" unicode="&#xea;" 
d="M264 1106l242 297h102l260 -297h-75l-236 207l-221 -207h-72zM568 905q-151 0 -250 -94t-128 -258h758q-27 168 -128 260t-252 92zM188 461q0 -168 119 -286t289 -118q231 0 379 211l84 -39q-72 -121 -199 -189t-276 -69q-218 1 -360 145t-142 368t138 368t353 143
q215 0 349 -146t137 -388h-871z" />
    <glyph glyph-name="edieresis" unicode="&#xeb;" 
d="M389 1323q29 0 49 -20q20 -19 20 -49t-20 -50t-49 -20t-49 20t-21 49q1 29 21 49t49 21zM743 1323q29 0 49 -20q20 -19 21 -49q0 -30 -20 -50q-19 -20 -49 -20t-50 20t-20 49t20 49t49 21zM568 905q-151 0 -250 -94t-128 -258h758q-27 168 -128 260t-252 92zM188 461
q0 -168 119 -286t289 -118q231 0 379 211l84 -39q-72 -121 -199 -189t-276 -69q-218 1 -360 145t-142 368t138 368t353 143q215 0 349 -146t137 -388h-871z" />
    <glyph glyph-name="igrave" unicode="&#xec;" horiz-adv-x="512" 
d="M266 1098l-243 317h116l205 -317h-78zM49 0v92h172v785h-172v92h279v-877h164v-92h-443z" />
    <glyph glyph-name="iacute" unicode="&#xed;" horiz-adv-x="512" 
d="M184 1098h-78l205 317h117zM49 0v92h172v785h-172v92h279v-877h164v-92h-443z" />
    <glyph glyph-name="icircumflex" unicode="&#xee;" horiz-adv-x="512" 
d="M-45 1106l242 297h102l260 -297h-76l-235 207l-221 -207h-72zM49 0v92h172v785h-172v92h279v-877h164v-92h-443z" />
    <glyph glyph-name="idieresis" unicode="&#xef;" horiz-adv-x="512" 
d="M80 1323q29 0 49 -20q21 -19 21 -49t-20 -50t-50 -20q-29 0 -49 20t-21 49q0 29 20 49t50 21zM434 1323q29 0 49 -20q21 -19 21 -49t-20 -50t-50 -20q-29 0 -49 20t-20 49t20 49t49 21zM49 0v92h172v785h-172v92h279v-877h164v-92h-443z" />
    <glyph glyph-name="eth" unicode="&#xf0;" horiz-adv-x="1153" 
d="M1059 578q0 -289 -133 -448t-343 -159q-209 -1 -349 143t-140 365t139 369t343 147q204 0 329 -157l4 4q-25 63 -46 106q-22 43 -80 114t-138 132l-266 -127l-76 53l266 127q-121 76 -225 117l113 55q133 -57 223 -121l254 121l76 -53l-258 -121q150 -125 228 -298
t79 -369zM203 483q0 -180 105 -298q105 -117 268 -117t269 122q105 123 105 322q0 158 -102 272t-268 115q-166 0 -272 -118q-105 -118 -105 -298z" />
    <glyph glyph-name="ntilde" unicode="&#xf1;" horiz-adv-x="1087" 
d="M700 1247q78 0 121 96h53q-20 -82 -71 -130t-113 -48t-160 49t-143 50q-82 -1 -119 -99h-55q57 180 180 181q55 0 153 -50t154 -49zM14 0v92h179v785h-179v92h285v-150q197 164 365 164q118 0 190 -68t72 -184v-639h155v-92h-434v92h172v610q0 184 -162 185
q-80 0 -177 -47t-181 -127v-621h158v-92h-443z" />
    <glyph glyph-name="ograve" unicode="&#xf2;" 
d="M639 1098l-244 317h117l205 -317h-78zM193 483q0 -180 105 -298q105 -117 267 -117t269 117q106 118 106 298t-106 298t-268 118t-268 -118q-105 -118 -105 -298zM84 483q0 219 138 365t344 147q206 0 344 -147q138 -146 138 -364t-138 -365t-344 -147t-344 146t-138 365
z" />
    <glyph glyph-name="oacute" unicode="&#xf3;" 
d="M494 1098h-78l205 317h116zM193 483q0 -180 105 -298q105 -117 267 -117t269 117q106 118 106 298t-106 298t-268 118t-268 -118q-105 -118 -105 -298zM84 483q0 219 138 365t344 147q206 0 344 -147q138 -146 138 -364t-138 -365t-344 -147t-344 146t-138 365z" />
    <glyph glyph-name="ocircumflex" unicode="&#xf4;" 
d="M264 1106l242 297h102l260 -297h-75l-236 207l-221 -207h-72zM193 483q0 -180 105 -298q105 -117 267 -117t269 117q106 118 106 298t-106 298t-268 118t-268 -118q-105 -118 -105 -298zM84 483q0 219 138 365t344 147q206 0 344 -147q138 -146 138 -364t-138 -365
t-344 -147t-344 146t-138 365z" />
    <glyph glyph-name="otilde" unicode="&#xf5;" 
d="M723 1247q78 0 121 96h53q-19 -82 -71 -130t-113 -48t-159 49t-144 50q-82 -1 -119 -99h-55q57 180 180 181q55 0 153 -50t154 -49zM193 483q0 -180 105 -298q105 -117 267 -117t269 117q106 118 106 298t-106 298t-268 118t-268 -118q-105 -118 -105 -298zM84 483
q0 219 138 365t344 147q206 0 344 -147q138 -146 138 -364t-138 -365t-344 -147t-344 146t-138 365z" />
    <glyph glyph-name="odieresis" unicode="&#xf6;" 
d="M389 1323q29 0 49 -20q20 -19 20 -49t-20 -50t-49 -20t-49 20t-21 49q1 29 21 49t49 21zM743 1323q29 0 49 -20q20 -19 21 -49q0 -30 -20 -50q-19 -20 -49 -20t-50 20t-20 49t20 49t49 21zM193 483q0 -180 105 -298q105 -117 267 -117t269 117q106 118 106 298t-106 298
t-268 118t-268 -118q-105 -118 -105 -298zM84 483q0 219 138 365t344 147q206 0 344 -147q138 -146 138 -364t-138 -365t-344 -147t-344 146t-138 365z" />
    <glyph glyph-name="divide" unicode="&#xf7;" horiz-adv-x="1368" 
d="M682 1008q-27 0 -45 18t-19 45q0 27 18 46t46 19q27 0 46 -18q20 -20 20 -47t-20 -45t-46 -18zM682 180q-27 0 -45 18t-19 46q0 27 18 46t46 19q27 0 46 -19q20 -19 20 -46q0 -28 -20 -46t-46 -18zM145 612v93h1076v-93h-1076z" />
    <glyph glyph-name="oslash" unicode="&#xf8;" 
d="M555 899q-150 0 -255 -118q-105 -119 -105 -287t86 -287l524 604q-100 88 -250 88zM582 68q146 0 254 117q106 118 106 287t-88 286l-522 -604q104 -86 250 -86zM1051 475q-1 -209 -139 -356t-326 -147t-320 106l-135 -158l-57 47l139 162q-127 143 -127 358t138 361
t328 147q190 0 318 -106l140 160l53 -48l-141 -163q129 -154 129 -363z" />
    <glyph glyph-name="ugrave" unicode="&#xf9;" horiz-adv-x="1110" 
d="M567 1098l-243 317h116l205 -317h-78zM821 0v139q-178 -154 -381 -153q-112 0 -178 66t-65 173v652h-170v92h276v-717q0 -170 158 -170q86 0 183 47t177 129v619h-170v92h277v-877h166v-92h-273z" />
    <glyph glyph-name="uacute" unicode="&#xfa;" horiz-adv-x="1110" 
d="M483 1098h-77l204 317h117zM821 0v139q-178 -154 -381 -153q-112 0 -178 66t-65 173v652h-170v92h276v-717q0 -170 158 -170q86 0 183 47t177 129v619h-170v92h277v-877h166v-92h-273z" />
    <glyph glyph-name="ucircumflex" unicode="&#xfb;" horiz-adv-x="1110" 
d="M254 1106l242 297h102l260 -297h-76l-235 207l-221 -207h-72zM821 0v139q-178 -154 -381 -153q-112 0 -178 66t-65 173v652h-170v92h276v-717q0 -170 158 -170q86 0 183 47t177 129v619h-170v92h277v-877h166v-92h-273z" />
    <glyph glyph-name="udieresis" unicode="&#xfc;" horiz-adv-x="1110" 
d="M379 1323q29 0 49 -20q20 -19 20 -49t-20 -50t-49 -20t-49 20t-21 49q1 29 21 49t49 21zM733 1323q29 0 49 -20q20 -19 20 -49t-20 -50t-49 -20t-49 20t-20 49t20 49t49 21zM821 0v139q-178 -154 -381 -153q-112 0 -178 66t-65 173v652h-170v92h276v-717q0 -170 158 -170
q86 0 183 47t177 129v619h-170v92h277v-877h166v-92h-273z" />
    <glyph glyph-name="yacute" unicode="&#xfd;" horiz-adv-x="1087" 
d="M471 1098h-78l205 317h117zM4 877v92h422v-92h-158l295 -721l273 721h-154v92h403v-92h-147l-496 -1311h-270v92h205l135 369l-348 850h-160z" />
    <glyph glyph-name="thorn" unicode="&#xfe;" horiz-adv-x="1216" 
d="M648 891q-166 0 -270 -115t-104 -296t106 -297q106 -115 274 -115q167 0 272 114q104 115 104 297t-108 297q-109 115 -274 115zM172 -342v1640h-168v93h275v-627h4q55 102 155 160t221 59q201 0 336 -144q135 -143 135 -363t-133 -362t-344 -143q-260 0 -370 222h-4
v-535h176v-92h-459v92h176z" />
    <glyph glyph-name="ydieresis" unicode="&#xff;" horiz-adv-x="1087" 
d="M367 1323q29 0 49 -20q20 -19 20 -49t-20 -50t-49 -20t-50 20q-20 20 -20 49t20 50q21 20 50 20zM721 1323q29 0 49 -20q20 -19 20 -49t-20 -50t-49 -20t-49 20t-21 49q1 29 21 49t49 21zM4 877v92h422v-92h-158l295 -721l273 721h-154v92h403v-92h-147l-496 -1311h-270
v92h205l135 369l-348 850h-160z" />
    <glyph glyph-name="dotlessi" unicode="&#x131;" horiz-adv-x="512" 
d="M49 0v92h172v785h-172v92h279v-877h164v-92h-443z" />
    <glyph glyph-name="Lslash" unicode="&#x141;" horiz-adv-x="1044" 
d="M336 1298v-481l280 234v-90l-280 -234v-635h573v461h109v-553h-985v92h188v549l-221 -184v90l221 184v567h-188v93h489v-93h-186z" />
    <glyph glyph-name="lslash" unicode="&#x142;" horiz-adv-x="491" 
d="M18 0v92h175v529l-224 -185v80l224 184v598h-179v93h285v-609l225 187v-80l-225 -187v-610h174v-92h-455z" />
    <glyph glyph-name="OE" unicode="&#x152;" horiz-adv-x="2154" 
d="M1098 92v1206h-236q-292 0 -449 -132q-196 -160 -196 -462q0 -300 173 -456t458 -156h250zM2030 340v-340h-1188q-188 0 -334 57t-232 155q-174 199 -174 466q0 266 148 471q78 109 226 175t351 67h1203v-334h-93v241h-725v-534h576v-92h-576v-580h725v248h93z" />
    <glyph glyph-name="oe" unicode="&#x153;" horiz-adv-x="1898" 
d="M186 493q0 -198 94 -314t252 -116q157 1 260 99t103 305t-95 319t-252 113q-158 0 -260 -104t-102 -302zM1370 907q-144 -1 -253 -103q-108 -102 -116 -249h721q-10 150 -109 251t-243 101zM1833 463h-832q7 -180 113 -291t275 -111q233 0 360 207l84 -39
q-150 -258 -449 -258t-436 258q-48 -119 -158 -189t-253 -69q-207 1 -332 141t-125 370t127 372t332 141q141 -1 253 -75t156 -199q57 129 170 202t268 73t292 -117q71 -59 113 -167t42 -249z" />
    <glyph glyph-name="Scaron" unicode="&#x160;" horiz-adv-x="1110" 
d="M254 1821h72l221 -207l235 207h76l-260 -297h-102zM88 0v477h94v-47q0 -142 117 -246t267 -104t245 82q94 82 94 213q0 84 -45 142t-117 89t-228 74t-245 90q-178 95 -178 299q0 145 114 245t292 99q110 0 204 -43t154 -119h4v140h92v-375h-92v28q0 106 -110 188
q-111 81 -247 81t-220 -70t-84 -163q0 -166 162 -233q73 -30 225 -69t271 -104q73 -41 118 -118t45 -187q0 -166 -127 -278t-315 -111q-124 0 -230 54t-162 148h-4v-182h-94z" />
    <glyph glyph-name="scaron" unicode="&#x161;" horiz-adv-x="917" 
d="M158 1405h71l222 -207l235 207h76l-260 -297h-103zM78 0v336h94q0 -121 83 -195q83 -73 210 -73t203 54t76 136t-64 123q-62 41 -152 57t-180 36t-153 78q-63 60 -63 170t86 186q87 76 216 75q172 0 266 -127h5v113h90v-318h-90q-4 106 -79 175q-76 69 -184 69t-161 -55
q-53 -56 -53 -120t44 -102q45 -38 114 -51q170 -30 295 -70q69 -22 114 -80t45 -149q0 -129 -100 -206t-269 -76q-205 0 -295 135h-4v-121h-94z" />
    <glyph glyph-name="Ydieresis" unicode="&#x178;" horiz-adv-x="1236" 
d="M442 1739q30 -1 50 -21t20 -49t-20 -49t-50 -20t-49 20q-20 20 -20 49t20 49t49 21zM797 1739q29 -1 49 -21t20 -49t-20 -49t-49 -20t-49 20t-21 49q1 29 21 49t49 21zM375 0v92h192v535l-426 671h-180v93h496v-93h-183l361 -571l362 571h-180v93h459v-93h-168l-426 -671
v-535h199v-92h-506z" />
    <glyph glyph-name="Zcaron" unicode="&#x17d;" 
d="M264 1821h72l221 -207l236 207h75l-260 -297h-102zM55 0v92l852 1206h-714v-245h-93v338h944v-93l-851 -1206h780v266h94v-358h-1012z" />
    <glyph glyph-name="zcaron" unicode="&#x17e;" horiz-adv-x="980" 
d="M188 1405h72l221 -207l236 207h76l-261 -297h-102zM92 0v92l682 785h-549v-252h-84v344h750v-92l-682 -785h596v262h86v-354h-799z" />
    <glyph glyph-name="florin" unicode="&#x192;" 
d="M190 -434q-74 0 -180 31l23 100q88 -23 145 -23q127 0 156 131l252 1166h-168l18 92h168l49 207q53 221 265 221q59 0 182 -33l-21 -98q-82 20 -153 20q-109 0 -140 -104l-30 -102l-25 -111h223l-20 -92h-221l-248 -1141q-31 -140 -94 -202t-181 -62z" />
    <glyph glyph-name="circumflex" unicode="&#x2c6;" horiz-adv-x="681" 
d="M39 1106l242 297h102l260 -297h-76l-235 207l-221 -207h-72z" />
    <glyph glyph-name="caron" unicode="&#x2c7;" horiz-adv-x="681" 
d="M39 1405h72l221 -207l235 207h76l-260 -297h-102z" />
    <glyph glyph-name="uni02C9" unicode="&#x2c9;" horiz-adv-x="681" 
d="M12 1229v59h658v-59h-658z" />
    <glyph glyph-name="breve" unicode="&#x2d8;" horiz-adv-x="681" 
d="M342 1128q-96 0 -179 68t-118 174h86q72 -145 210 -145t212 145h84q-35 -106 -117 -174t-178 -68z" />
    <glyph glyph-name="dotaccent" unicode="&#x2d9;" horiz-adv-x="681" 
d="M342 1323q29 0 49 -20q21 -19 21 -49t-20 -50t-50 -20q-29 0 -49 20t-21 49q0 29 20 49t50 21z" />
    <glyph glyph-name="ring" unicode="&#x2da;" horiz-adv-x="681" 
d="M340 1378q-53 0 -89 -36t-36 -89t37 -90t89 -37t89 37t37 89t-37 89t-90 37zM340 1440q78 0 133 -54t55 -133q0 -78 -55 -133t-133 -55t-132 55t-54 133q0 79 54 133t132 54z" />
    <glyph glyph-name="ogonek" unicode="&#x2db;" horiz-adv-x="681" 
d="M262 -136q0 -124 128 -124q60 0 130 29v-84q-68 -41 -148 -41t-144 54t-64 133t90 169h84q-76 -74 -76 -136z" />
    <glyph glyph-name="tilde" unicode="&#x2dc;" horiz-adv-x="681" 
d="M498 1247q78 0 120 96h54q-20 -82 -72 -130t-112 -48q-62 0 -160 49t-144 50q-81 -1 -118 -99h-56q57 180 180 181q56 0 154 -50t154 -49z" />
    <glyph glyph-name="hungarumlaut" unicode="&#x2dd;" horiz-adv-x="681" 
d="M201 1098h-78l205 317h116zM434 1098h-78l205 317h117z" />
    <glyph glyph-name="uni03A9" unicode="&#x3a9;" horiz-adv-x="1425" 
d="M416 80v4q-123 106 -202 274t-79 371q0 301 168 486t416 185q249 0 409 -192q160 -193 160 -473q0 -211 -83 -383t-199 -268v-4h309v-80h-447v59q134 89 230 265t96 399q0 139 -51 272t-164 229t-262 97q-217 0 -352 -173q-135 -174 -135 -406t96 -414q98 -182 229 -269
v-59h-446v80h307z" />
    <glyph glyph-name="uni03BC" unicode="&#x3bc;" 
d="M213 969h100v-490q0 -211 76 -304t184 -93q258 0 258 407v480h101v-969h-101v119h-4q-102 -143 -258 -144q-78 0 -136 33t-116 111h-4v-553h-100v1403z" />
    <glyph glyph-name="pi" unicode="&#x3c0;" horiz-adv-x="1085" 
d="M862 940v-651q0 -201 31 -289h-92q-31 57 -31 274v666h-401q-9 -227 -55 -521t-97 -419h-94q57 143 100 424t53 516q-162 0 -233 -29l-18 64q80 45 260 45h757l-12 -80h-168z" />
    <glyph glyph-name="endash" unicode="&#x2013;" horiz-adv-x="1024" 
d="M-12 567h1048v-108h-1048v108z" />
    <glyph glyph-name="emdash" unicode="&#x2014;" horiz-adv-x="2048" 
d="M-12 567h2072v-108h-2072v108z" />
    <glyph glyph-name="quoteleft" unicode="&#x2018;" horiz-adv-x="512" 
d="M313 1133v-191h-114v223q0 219 133 226v-74q-41 0 -53 -37t-17 -147h51z" />
    <glyph glyph-name="quoteright" unicode="&#x2019;" horiz-adv-x="512" 
d="M199 1200v191h114v-224q0 -219 -133 -225v74q41 0 53 37t17 147h-51z" />
    <glyph glyph-name="quotesinglbase" unicode="&#x201a;" horiz-adv-x="512" 
d="M199 0v190h114v-223q0 -219 -133 -225v74q41 0 53 37t17 147h-51z" />
    <glyph glyph-name="quotedblleft" unicode="&#x201c;" horiz-adv-x="980" 
d="M299 1133v-191h-115v223q0 219 133 226v-74q-41 -1 -53 -37t-16 -147h51zM778 1133v-191h-114v223q0 219 133 226v-74q-41 -1 -53 -37t-17 -147h51z" />
    <glyph glyph-name="quotedblright" unicode="&#x201d;" horiz-adv-x="980" 
d="M203 1200v191h114v-224q0 -219 -133 -225v74q42 0 54 36t16 148h-51zM682 1200v191h115v-224q0 -219 -133 -225v74q41 0 53 36t16 148h-51z" />
    <glyph glyph-name="quotedblbase" unicode="&#x201e;" horiz-adv-x="980" 
d="M199 0v190h114v-223q0 -219 -133 -225v74q41 0 53 37t17 147h-51zM686 0v190h115v-223q0 -219 -133 -225v74q41 0 53 37t16 147h-51z" />
    <glyph glyph-name="dagger" unicode="&#x2020;" horiz-adv-x="960" 
d="M457 783v69q-174 0 -244 -25h-186v103h186q70 -25 244 -25q0 203 -35 285v201h117v-201q-33 -76 -33 -285q174 0 244 25h186v-103h-186q-70 25 -244 25v-69q0 -104 35 -189v-182l-35 -822h-49l-35 822v182q35 93 35 189z" />
    <glyph glyph-name="daggerdbl" unicode="&#x2021;" horiz-adv-x="1003" 
d="M956 135v-127h-186q-105 37 -244 37q0 -131 33 -246v-215h-117v215q35 123 35 246q-142 0 -244 -37h-186v127h186q104 -35 244 -37q0 254 -61 389q61 135 61 390q-137 0 -244 -37h-186v127h186q109 -37 244 -37q0 123 -35 246v215h117v-215q-33 -115 -33 -246
q142 0 244 37h186v-127h-186q-101 35 -244 37q1 -259 58 -390q-57 -131 -58 -389q135 0 244 37h186z" />
    <glyph glyph-name="bullet" unicode="&#x2022;" horiz-adv-x="1024" 
d="M512 948q102 0 176 -74t74 -176t-74 -176t-176 -74t-176 74t-74 176t74 176t176 74z" />
    <glyph glyph-name="ellipsis" unicode="&#x2026;" horiz-adv-x="2048" 
d="M285 190h114v-190h-114v190zM967 190h114v-190h-114v190zM1649 190h114v-190h-114v190z" />
    <glyph glyph-name="perthousand" unicode="&#x2030;" horiz-adv-x="2048" 
d="M156 0l979 1391h69l-979 -1391h-69zM522 1040q0 154 -49 235t-141 81q-195 0 -195 -314q1 -314 193 -315q192 0 192 313zM330 1413q274 0 274 -372t-276 -371q-135 0 -206 95t-71 277t71 276t208 95zM1227 342q0 154 -49 235t-142 80q-194 0 -194 -314t192 -314t193 313z
M1032 715q276 0 277 -372q0 -372 -277 -372q-135 -1 -206 95t-70 278q0 371 276 371zM1917 342q0 154 -49 235t-142 80q-194 0 -194 -314t192 -314t193 313zM1724 715q275 0 275 -372t-277 -372q-136 -1 -206 95t-70 278t71 276t207 95z" />
    <glyph glyph-name="guilsinglleft" unicode="&#x2039;" horiz-adv-x="468" 
d="M147 489l312 -489h-113l-313 489l313 490h113z" />
    <glyph glyph-name="guilsinglright" unicode="&#x203a;" horiz-adv-x="468" 
d="M322 489l-312 490h113l313 -490l-313 -489h-113z" />
    <glyph glyph-name="fraction" unicode="&#x2044;" horiz-adv-x="704" 
d="M-172 0l979 1391h72l-979 -1391h-72z" />
    <glyph glyph-name="Euro" unicode="&#x20ac;" horiz-adv-x="1087" 
d="M686 627v-86h-416q20 -164 92 -308q85 -165 272 -165q99 0 167 72t123 198l88 -39q-123 -317 -379 -317q-113 0 -200 48t-140 132q-103 163 -127 379h-141v86h135l-2 65q0 51 2 76h-135v86h141q25 209 120 370q50 85 134 136t188 51q203 0 312 -178v156h92v-340h-92
q-23 113 -109 197q-85 84 -183 83q-98 0 -164 -46q-110 -77 -164 -273q-22 -76 -32 -156h418v-86h-424l-2 -68q0 -49 2 -73h424z" />
    <glyph glyph-name="afii61289" unicode="&#x2113;" horiz-adv-x="921" 
d="M305 1083v-503q164 178 253 330t89 307q0 236 -160 235q-72 0 -127 -92t-55 -277zM526 -8q-154 0 -230 110t-79 277v29q-14 -14 -55 -48t-62 -53l-37 62q121 102 154 137v563q0 248 82 353q82 106 193 106q110 0 168 -85t59 -218q0 -338 -414 -748v-55q0 -182 68 -268
t164 -86t168 58q71 58 112 138l53 -39q-125 -233 -344 -233z" />
    <glyph glyph-name="trademark" unicode="&#x2122;" horiz-adv-x="1921" 
d="M961 1391h155l203 -654h4l209 654h156v-818h-93v730h-4l-237 -730h-70l-225 730h-4v-730h-94v818zM231 1391h637v-88h-264v-730h-106v730h-267v88z" />
    <glyph glyph-name="Omega" unicode="&#x2126;" horiz-adv-x="1425" 
d="M416 80v4q-123 106 -202 274t-79 371q0 301 168 486t416 185q249 0 409 -192q160 -193 160 -473q0 -211 -83 -383t-199 -268v-4h309v-80h-447v59q134 89 230 265t96 399q0 139 -51 272t-164 229t-262 97q-217 0 -352 -173q-135 -174 -135 -406t96 -414q98 -182 229 -269
v-59h-446v80h307z" />
    <glyph glyph-name="estimated" unicode="&#x212e;" horiz-adv-x="1726" 
d="M1364 729v391q0 27 -18 47q-208 203 -484 203t-483 -211q-20 -18 -21 -47v-383q0 -14 11 -14h987q8 0 8 14zM1657 678h-1288q-10 0 -11 -8v-391q0 -25 19 -43q207 -213 499 -213t500 237h113q-109 -127 -275 -202t-354 -74q-328 0 -560 209t-232 505t232 505
q232 210 561 210t562 -210t234 -507v-18z" />
    <glyph glyph-name="partialdiff" unicode="&#x2202;" horiz-adv-x="1042" 
d="M455 68h4q150 0 250 158t122 392q-31 88 -117 165q-87 77 -211 77t-222 -122q-99 -122 -99 -292t75 -274t198 -104zM476 1546q186 0 325 -190t139 -548t-127 -588t-362 -230q-174 0 -269 131q-94 131 -94 335t123 342t291 138q127 0 218 -69t124 -136h2q4 27 4 96
q0 289 -116 465t-268 176t-267 -94l-41 66q132 106 318 106z" />
    <glyph glyph-name="Delta" unicode="&#x2206;" horiz-adv-x="1259" 
d="M160 78h934l-322 850q-12 35 -69 177q-56 142 -70 195h-10q-11 -45 -63 -179t-62 -160zM66 0v76l514 1343h104l510 -1341v-78h-1128z" />
    <glyph glyph-name="product" unicode="&#x220f;" horiz-adv-x="1347" 
d="M1292 1294h-221v-1484h-90v1484h-616v-1484h-91v1484h-223v84h1241v-84z" />
    <glyph glyph-name="summation" unicode="&#x2211;" horiz-adv-x="1079" 
d="M1032 -190h-987v65l555 715l-528 723v65h929v-82h-796v-8l506 -686l-541 -696v-6h862v-90z" />
    <glyph glyph-name="minus" unicode="&#x2212;" horiz-adv-x="1366" 
d="M145 702h1076v-92h-1076v92z" />
    <glyph glyph-name="uni2215" unicode="&#x2215;" horiz-adv-x="704" 
d="M-172 0l979 1391h72l-979 -1391h-72z" />
    <glyph glyph-name="uni2219" unicode="&#x2219;" horiz-adv-x="598" 
d="M242 588v190h114v-190h-114z" />
    <glyph glyph-name="radical" unicode="&#x221a;" horiz-adv-x="1099" 
d="M1092 1630l-435 -1935h-92l-325 944l-148 -55l-22 63l231 90l277 -790q29 -123 30 -131h2q6 33 25 125l381 1689h76z" />
    <glyph glyph-name="infinity" unicode="&#x221e;" horiz-adv-x="1523" 
d="M1137 799h-2q-49 0 -103 -29q-54 -28 -83 -54q-30 -26 -81 -81t-59 -62q84 -88 126 -127q108 -100 202 -100t151 67q58 67 58 165t-60 159q-60 62 -149 62zM399 346h2q99 0 209 105q23 20 63 61t52 53q-115 133 -185 183t-160 50t-146 -68q-56 -69 -55 -163
q1 -93 61 -157t159 -64zM1421 575v-2q0 -131 -87 -214q-86 -83 -190 -83t-180 56t-200 184q-96 -107 -156 -155q-103 -83 -220 -84q-118 -1 -202 85t-84 210t84 208t198 84t200 -63t186 -178q168 188 243 214q74 27 132 27q125 0 201 -81t75 -208z" />
    <glyph glyph-name="integral" unicode="&#x222b;" horiz-adv-x="663" 
d="M530 1602q-166 0 -165 -410l24 -1018q0 -479 -254 -479q-70 0 -117 33l23 69q49 -25 92 -24q168 0 168 405l-25 1022q0 305 99 404q66 72 160 71q61 1 100 -30l-25 -66q-26 23 -80 23z" />
    <glyph glyph-name="approxequal" unicode="&#x2248;" horiz-adv-x="1120" 
d="M774 295q-79 0 -146 37q-28 14 -120 64t-159 50t-113 -40t-91 -111l-49 37q96 182 264 182q67 0 120 -25t94 -51q42 -26 53 -31q12 -6 29 -15q16 -9 24 -11t23 -8t25 -7q10 -2 26 -4q14 -2 28 -2q109 0 191 150l47 -39q-92 -176 -246 -176zM350 764q-66 0 -113 -39
q-46 -39 -92 -111l-49 37q96 180 264 180q64 0 106 -20q42 -21 76 -41t58 -32l49 -25q71 -35 131 -35q111 -1 193 149l47 -36q-92 -180 -246 -181q-54 0 -85 14t-41 16q-10 3 -33 15q-23 13 -47 25t-29 16q-123 68 -189 68z" />
    <glyph glyph-name="notequal" unicode="&#x2260;" horiz-adv-x="1120" 
d="M1014 780v-69h-359l-141 -299h500v-70h-531l-110 -236l-56 29l97 207h-312v70h344l140 299h-484v69h512l109 232l57 -29l-96 -203h330z" />
    <glyph glyph-name="lessequal" unicode="&#x2264;" horiz-adv-x="1120" 
d="M1014 33h-912v71h912v-71zM1010 188l-895 447v70l895 446v-86l-813 -391v-4l813 -396v-86z" />
    <glyph glyph-name="greaterequal" unicode="&#x2265;" horiz-adv-x="1120" 
d="M1014 33h-910v71h910v-71zM115 1151l895 -446v-72l-893 -445v86l809 394v4l-811 393v86z" />
    <glyph glyph-name="lozenge" unicode="&#x25ca;" horiz-adv-x="1103" 
d="M899 686l-311 598q-12 25 -37 94h-4q-29 -76 -39 -94l-307 -592l313 -602q20 -41 35 -92h6q14 55 35 92zM989 688l-401 -774h-78l-397 774l399 776h78z" />
    </font>
</defs>
</svg>
