<?xml version="1.0" encoding="utf-8"?>
<!-- Generator: Adobe Illustrator 16.0.3, SVG Export Plug-In . SVG Version: 6.00 Build 0)  -->
<!DOCTYPE svg PUBLIC "-//W3C//DTD SVG 1.1//EN" "http://www.w3.org/Graphics/SVG/1.1/DTD/svg11.dtd">
<svg version="1.1" id="Layer_1" xmlns="http://www.w3.org/2000/svg" xmlns:xlink="http://www.w3.org/1999/xlink" x="0px" y="0px"
	 width="100px" height="200px" viewBox="0 0 100 200" enable-background="new 0 0 100 200" xml:space="preserve">
<path fill-rule="evenodd" clip-rule="evenodd" fill="#FFFFFF" d="M60.73,93.729c-2.149,1.091-6.264,0.733-8.175,1.383
	c-9.917-0.435-19.567-3.219-29.18-7.42C-2.144,72.997,1.279,16.861,30.293,7.952c0.839,0.475,1.361-0.805,2.264-0.251
	c1.414-1.119,3.873-0.207,5.157-1.258c0.991,0.183,3.246,0.522,4.15,0c4.854,0.808,10.102,0.806,14.967,2.138
	c0.331,0.037,0.099-0.488,0.503-0.377c1.049,0.878,4.633,1.409,6.163,1.635c0,0.126,0,0.252,0,0.377
	c2.679-0.073,4.905,2.316,7.42,2.264c0.011,0.178,0.021,0.356-0.126,0.377c0.322,0.239,0.955,0.145,1.635,0.377
	c-0.067,0.101-0.131,0.204-0.126,0.377c1.288-0.386,2.267,0.673,3.145,1.132c0.387-0.349,1.053,0.421,1.887,0.377
	c0.035,0.204-0.119,0.217-0.126,0.377c3.831,1.905,7.108,6.371,9.056,8.804c2.438,1.459,3.317,5.661,5.408,8.175
	C105.314,53.641,84.385,92.047,60.73,93.729z M53.687,92.094c1.986,0.857,3.612-0.707,5.408-0.251
	c2.073-0.733,6.089-0.349,8.301-1.383c1.153-1.527,3.237-1.57,4.528-2.767c0.028,0.097,0.003,0.248,0.125,0.251
	c1.787-1.237,4.892-3.229,5.157-5.534c-0.233,0.354-0.46,0.713-0.88,0.881c0-0.126,0.102-0.15,0.125-0.252
	c-5.229,3.619-10.544,5.305-16.979,6.917c0-0.126,0.102-0.149,0.126-0.251c-0.454,0.325-0.626,0.43-1.258,0.251
	c-0.725,0.446-2.45,1.397-2.767,0.755c-0.322,0.124-1.148,0.2-1.509,0.629c-0.477-0.458-0.939-0.411-1.509,0
	c0.007-0.161,0.161-0.174,0.125-0.377c-1.019,0.499-2.025,0.695-2.767,0.88c0.121-0.457-0.565-0.105-0.503-0.503
	c-1.054,0.768-2.941-0.471-3.27,0.88C48.302,92.042,51.297,92.885,53.687,92.094z M78.087,22.667
	c-0.295-0.001-0.942-0.263-0.754-0.754c-5.173-3.489-11.074-7.504-17.105-9.056c-9.214-1.372-18.07-2.357-26.287-0.126
	C15.048,14.933,6.198,38.404,13.817,57.129c-0.667-0.386-0.514,1.162-0.629,1.383c-2.029-3.541-2.113-9.24-4.15-13.332
	c-0.695,9.478,0.345,18.894,3.773,26.161C21.032,88.77,43.145,91.545,59.095,87.44c1.572,0.399,3.68-0.994,5.157-0.754
	c6.657-2.853,12.02-6.028,17.482-10.816c0.728-1.192,1.579-2.821,2.515-3.396C96.218,57.172,94.341,30.85,78.087,22.667z
	 M62.114,53.482c0.227,0.191,0.385,0.453,0.88,0.377c0.339,1.205,0.64,1.476,0.251,2.39c-1.917,0.525-2.087-0.663-2.767-1.383
	C54.463,59.529,48.03,65.53,41.11,70.083c-0.431-0.449-1.127-0.634-1.384-1.258c4.009-7.643,12.351-11.347,17.482-17.482
	c-0.512-0.032-1.058-1.452-1.635-1.384c-4.68-5.219-10.485-11.059-15.596-15.847c0.802-1.699-1.042-2.947-2.264-3.773
	c0.442-0.903,0.266-1.99,1.761-2.012c6.639,7.112,12.605,14.897,19.872,21.381c1.018-0.383,1.529-1.509,2.893-0.88
	c-0.272,0.495,0.233,1.285-0.377,1.761c1.601-0.3,1.971,1.091,1.509,2.138C62.82,52.846,62.5,53.197,62.114,53.482z"/>
<path fill-rule="evenodd" clip-rule="evenodd" fill="#C13227" d="M60.73,193.617c-2.149,1.091-6.264,0.733-8.175,1.383
	c-9.917-0.435-19.567-3.219-29.18-7.42c-25.519-14.695-22.097-70.831,6.918-79.74c0.839,0.475,1.361-0.805,2.264-0.251
	c1.414-1.119,3.873-0.207,5.157-1.258c0.991,0.183,3.246,0.522,4.15,0c4.854,0.808,10.102,0.806,14.967,2.138
	c0.331,0.037,0.099-0.488,0.503-0.377c1.049,0.878,4.633,1.409,6.163,1.635c0,0.126,0,0.252,0,0.377
	c2.679-0.073,4.905,2.316,7.42,2.264c0.011,0.178,0.021,0.356-0.126,0.377c0.322,0.239,0.955,0.145,1.635,0.377
	c-0.067,0.101-0.131,0.204-0.126,0.377c1.288-0.386,2.267,0.673,3.145,1.132c0.387-0.349,1.053,0.421,1.887,0.377
	c0.035,0.204-0.119,0.217-0.126,0.377c3.831,1.905,7.108,6.371,9.056,8.804c2.438,1.459,3.317,5.661,5.408,8.175
	C105.314,153.528,84.385,191.935,60.73,193.617z M53.687,191.981c1.986,0.857,3.612-0.707,5.408-0.251
	c2.073-0.733,6.089-0.349,8.301-1.383c1.153-1.527,3.237-1.57,4.528-2.767c0.028,0.097,0.003,0.248,0.125,0.251
	c1.787-1.237,4.892-3.229,5.157-5.534c-0.233,0.354-0.46,0.713-0.88,0.881c0-0.126,0.102-0.15,0.125-0.252
	c-5.229,3.619-10.544,5.305-16.979,6.917c0-0.126,0.102-0.149,0.126-0.251c-0.454,0.325-0.626,0.43-1.258,0.251
	c-0.725,0.446-2.45,1.397-2.767,0.755c-0.322,0.124-1.148,0.2-1.509,0.629c-0.477-0.458-0.939-0.411-1.509,0
	c0.007-0.161,0.161-0.174,0.125-0.377c-1.019,0.499-2.025,0.695-2.767,0.88c0.121-0.457-0.565-0.105-0.503-0.503
	c-1.054,0.768-2.941-0.471-3.27,0.88C48.302,191.93,51.297,192.772,53.687,191.981z M78.087,122.555
	c-0.295-0.001-0.942-0.263-0.754-0.754c-5.173-3.489-11.074-7.504-17.105-9.056c-9.214-1.372-18.07-2.357-26.287-0.126
	c-18.893,2.202-27.742,25.673-20.124,44.398c-0.667-0.386-0.514,1.162-0.629,1.383c-2.029-3.541-2.113-9.24-4.15-13.332
	c-0.695,9.478,0.345,18.894,3.773,26.161c8.221,17.428,30.334,20.204,46.284,16.099c1.572,0.399,3.68-0.994,5.157-0.754
	c6.657-2.853,12.02-6.028,17.482-10.816c0.728-1.192,1.579-2.821,2.515-3.396C96.218,157.06,94.341,130.738,78.087,122.555z
	 M62.114,153.37c0.227,0.191,0.385,0.453,0.88,0.377c0.339,1.205,0.64,1.476,0.251,2.39c-1.917,0.525-2.087-0.663-2.767-1.383
	c-6.016,4.664-12.449,10.665-19.369,15.218c-0.431-0.449-1.127-0.634-1.384-1.258c4.009-7.643,12.351-11.347,17.482-17.482
	c-0.512-0.032-1.058-1.452-1.635-1.384c-4.68-5.219-10.485-11.059-15.596-15.847c0.802-1.699-1.042-2.947-2.264-3.773
	c0.442-0.903,0.266-1.99,1.761-2.012c6.639,7.112,12.605,14.897,19.872,21.381c1.018-0.383,1.529-1.509,2.893-0.88
	c-0.272,0.495,0.233,1.285-0.377,1.761c1.601-0.3,1.971,1.091,1.509,2.138C62.82,152.733,62.5,153.085,62.114,153.37z"/>
</svg>
